<svg width="50" height="50" viewBox="0 0 50 50" fill="none" xmlns="http://www.w3.org/2000/svg">
<path fill-rule="evenodd" clip-rule="evenodd" d="M9.27096 6.47157C11.4381 7.40282 13.0125 9.44909 13.2731 11.888C13.2974 12.1155 13.2239 12.3426 13.071 12.5128C12.918 12.683 12.7 12.7801 12.4712 12.7801H0.806448C0.577618 12.7801 0.359473 12.6829 0.206549 12.5126C0.0535252 12.3423 -0.0198618 12.1151 0.00463411 11.8876C0.266529 9.44869 1.84133 7.40252 4.00796 6.47147C3.30514 5.78548 2.86764 4.82843 2.86764 3.77268C2.86764 1.69516 4.56129 0 6.6388 0C8.71814 0 10.4115 1.69526 10.4115 3.77268C10.4115 4.82853 9.97409 5.78558 9.27096 6.47157ZM6.6388 7.54536C4.34445 7.54536 2.40655 9.07318 1.78669 11.1672H11.4915C10.8726 9.07308 8.93437 7.54536 6.6388 7.54536ZM6.6388 5.93246C7.82923 5.93246 8.79858 4.96189 8.79858 3.77268C8.79858 2.58347 7.82923 1.6129 6.6388 1.6129C5.44969 1.6129 4.48054 2.58357 4.48054 3.77268C4.48054 4.96179 5.44969 5.93246 6.6388 5.93246ZM9.27177 42.6965C11.4389 43.6277 13.0132 45.6739 13.2739 48.1128C13.2982 48.3403 13.2247 48.5674 13.0718 48.7376C12.9188 48.9077 12.7008 49.0049 12.472 49.0049H0.807255C0.578323 49.0049 0.360279 48.9077 0.207356 48.7375C0.0543317 48.5672 -0.0190554 48.34 0.00533975 48.1124C0.267336 45.6735 1.84213 43.6274 4.00877 42.6964C3.30584 42.0104 2.86844 41.0533 2.86844 39.9975C2.86844 37.92 4.56209 36.2248 6.63961 36.2248C8.71894 36.2248 10.4123 37.9201 10.4123 39.9975C10.4123 41.0533 9.97489 42.0105 9.27177 42.6965ZM6.63961 43.7702C4.34526 43.7702 2.40735 45.298 1.7874 47.392H11.4922C10.8734 45.298 8.93517 43.7702 6.63961 43.7702ZM6.63961 42.1573C7.83003 42.1573 8.79939 41.1868 8.79939 39.9975C8.79939 38.8083 7.83003 37.8377 6.63961 37.8377C5.4505 37.8377 4.48135 38.8084 4.48135 39.9975C4.48135 41.1867 5.4505 42.1573 6.63961 42.1573ZM45.9933 6.82046C48.1605 7.75171 49.7348 9.79798 49.9954 12.2369C50.0197 12.4644 49.9462 12.6915 49.7933 12.8617C49.6404 13.0318 49.4224 13.129 49.1935 13.129H37.5288C37.2999 13.129 37.0818 13.0317 36.9289 12.8615C36.7759 12.6912 36.7025 12.464 36.7269 12.2365C36.9889 9.79758 38.5637 7.75141 40.7303 6.82036C40.0274 6.13437 39.59 5.17732 39.59 4.12157C39.59 2.04405 41.2836 0.348891 43.3612 0.348891C45.4405 0.348891 47.1338 2.04415 47.1338 4.12157C47.1338 5.17732 46.6964 6.13447 45.9933 6.82046ZM43.3612 7.89425C41.0668 7.89425 39.1289 9.42207 38.509 11.5161H48.2138C47.5949 9.42197 45.6567 7.89425 43.3612 7.89425ZM43.3612 6.28135C44.5516 6.28135 45.5209 5.31078 45.5209 4.12157C45.5209 2.93226 44.5516 1.96179 43.3612 1.96179C42.1721 1.96179 41.2029 2.93246 41.2029 4.12157C41.2029 5.31068 42.1721 6.28135 43.3612 6.28135ZM45.9933 43.0453C48.1605 43.9765 49.7348 46.0228 49.9954 48.4617C50.0197 48.6892 49.9462 48.9163 49.7933 49.0865C49.6404 49.2566 49.4224 49.3538 49.1935 49.3538H37.5288C37.2999 49.3538 37.0818 49.2565 36.9289 49.0864C36.7759 48.9161 36.7025 48.6888 36.7269 48.4613C36.9889 46.0224 38.5637 43.9763 40.7303 43.0451C40.0274 42.3592 39.59 41.4022 39.59 40.3464C39.59 38.2689 41.2836 36.5737 43.3612 36.5737C45.4405 36.5737 47.1338 38.269 47.1338 40.3464C47.1338 41.4022 46.6964 42.3593 45.9933 43.0453ZM43.3612 44.1191C41.0668 44.1191 39.1289 45.6469 38.509 47.7409H48.2138C47.5949 45.6469 45.6567 44.1191 43.3612 44.1191ZM43.3612 42.5062C44.5516 42.5062 45.5209 41.5357 45.5209 40.3464C45.5209 39.1571 44.5516 38.1866 43.3612 38.1866C42.1721 38.1866 41.2029 39.1572 41.2029 40.3464C41.2029 41.5356 42.1721 42.5062 43.3612 42.5062ZM47.7351 32.162L47.8014 32.1203C48.1784 31.8838 48.6766 31.9978 48.9132 32.3747C49.1498 32.7517 49.0359 33.2499 48.6588 33.4865L46.5535 34.8079C46.3434 34.9398 46.0846 34.9677 45.8513 34.8837C45.618 34.7996 45.4365 34.6129 45.3588 34.3774L44.5806 32.0167C44.4413 31.5939 44.6713 31.1377 45.094 30.9983C45.5168 30.859 45.9732 31.089 46.1125 31.5118L46.1811 31.7201C46.9862 29.4138 47.4237 26.9358 47.4237 24.3564C47.4237 21.2134 46.7741 18.221 45.6015 15.5062C45.4251 15.0976 45.6135 14.6226 46.0221 14.4461C46.4307 14.2697 46.9057 14.4581 47.0822 14.8666C48.3395 17.7776 49.0366 20.9863 49.0366 24.3564C49.0366 27.0886 48.5784 29.7147 47.7351 32.162ZM18.0977 47.3039L18.1406 47.3668C18.3915 47.7345 18.2968 48.2367 17.9291 48.4876C17.5615 48.7385 17.0594 48.6437 16.8085 48.2761L15.4071 46.223C15.2673 46.0182 15.2295 45.7606 15.3046 45.5243C15.3796 45.288 15.5592 45.0993 15.7915 45.0127L18.1207 44.1445C18.5377 43.989 19.0025 44.2014 19.158 44.6185C19.3134 45.0356 19.1011 45.5004 18.684 45.6558L18.4766 45.7331C20.5584 46.3744 22.7694 46.7195 25.0606 46.7195C27.927 46.7195 30.6682 46.1793 33.1878 45.1947C33.6023 45.0327 34.0704 45.2378 34.2324 45.6523C34.3944 46.0669 34.1894 46.535 33.7748 46.6971C31.0733 47.7527 28.1341 48.3324 25.0606 48.3324C22.6394 48.3324 20.3016 47.9727 18.0977 47.3039ZM2.28094 16.8626L2.19939 16.9134C1.82157 17.1486 1.32379 17.0328 1.08861 16.6548C0.853424 16.2769 0.969251 15.7792 1.34717 15.544L3.45756 14.2305C3.66804 14.0995 3.92711 14.0727 4.15997 14.1576C4.39294 14.2425 4.57379 14.4299 4.6505 14.6656L5.41975 17.0293C5.55745 17.4526 5.3257 17.9081 4.90241 18.0458C4.47913 18.1835 4.02368 17.9517 3.88598 17.5284L3.82328 17.3358C3.09274 19.5441 2.69737 21.9044 2.69737 24.3564C2.69737 27.6373 3.40524 30.7541 4.67681 33.5622C4.86038 33.9676 4.68034 34.4459 4.27479 34.6295C3.86935 34.8131 3.39112 34.6329 3.20756 34.2275C1.84405 31.2164 1.08447 27.8745 1.08447 24.3564C1.08447 21.7399 1.50463 19.2207 2.28094 16.8626ZM34.6028 4.12853C31.708 2.75917 28.4731 1.99335 25.0606 1.99335C20.959 1.99335 17.1138 3.0997 13.8078 5.03044C13.4234 5.25494 12.9291 5.1251 12.7046 4.74072C12.4801 4.35645 12.61 3.86209 12.9943 3.6377C16.5395 1.56734 20.6625 0.380443 25.0606 0.380443C28.6402 0.380443 32.0376 1.16663 35.0895 2.5756L35.0892 2.575C34.8925 2.1757 35.0569 1.69183 35.4562 1.49516C35.8555 1.29849 36.3394 1.4629 36.5361 1.8622L37.6347 4.09203C37.7442 4.31441 37.7454 4.5748 37.6379 4.79818C37.5303 5.02157 37.326 5.18306 37.0839 5.23619L34.6557 5.76814C34.221 5.8634 33.7906 5.5877 33.6953 5.15292C33.6001 4.71814 33.8758 4.2878 34.3106 4.19254L34.6028 4.12853ZM28.0993 13.3756C28.9991 13.6254 29.8642 13.9838 30.678 14.4442L32.333 13.7084C32.638 13.5728 32.9949 13.6391 33.2309 13.875L35.6274 16.2716C35.8631 16.5073 35.9295 16.8637 35.7945 17.1684C35.7945 17.1684 35.0613 18.8238 35.0613 18.8237C35.5221 19.6382 35.8808 20.5043 36.1307 21.407L37.8184 22.0565C38.1298 22.1764 38.3353 22.4756 38.3353 22.8092V26.1992C38.3353 26.5328 38.1298 26.8319 37.8184 26.9518L36.1302 27.6015C35.8799 28.5013 35.5197 29.3664 35.0609 30.1802L35.7945 31.8365C35.9295 32.1413 35.8631 32.4977 35.6274 32.7334L33.2309 35.1299C32.9952 35.3656 32.6388 35.4319 32.3341 35.297L30.6792 34.564C29.8667 35.0245 28.9996 35.3831 28.099 35.6329L27.4493 37.3209C27.3294 37.6322 27.0303 37.8377 26.6967 37.8377H23.3067C22.9731 37.8377 22.6739 37.6322 22.5541 37.3209C22.5541 37.3209 21.9044 35.633 21.9045 35.633C21.0021 35.3827 20.1364 35.0224 19.3223 34.5633L17.6659 35.297C17.3612 35.4319 17.0047 35.3656 16.769 35.1299L14.3726 32.7334C14.1366 32.4974 14.0704 32.1404 14.2059 31.8355C14.2059 31.8355 14.9415 30.181 14.9415 30.1811C14.4812 29.3689 14.1226 28.5021 13.8708 27.6019L12.1815 26.9518C11.8702 26.8319 11.6647 26.5328 11.6647 26.1992V22.8092C11.6647 22.4756 11.8702 22.1764 12.1815 22.0565L13.8705 21.4065C14.1224 20.5042 14.4811 19.6385 14.9417 18.8244L14.2059 17.1694C14.0704 16.8645 14.1366 16.5076 14.3726 16.2716L16.769 13.875C17.005 13.6391 17.362 13.5728 17.6669 13.7084C17.6669 13.7084 19.322 14.4442 19.3219 14.4442C20.136 13.9837 21.0013 13.6252 21.9014 13.3754L22.5543 11.6834C22.6744 11.3724 22.9734 11.1672 23.3067 11.1672H26.6967C27.0304 11.1672 27.3297 11.3729 27.4495 11.6844L28.0993 13.3756ZM26.7427 14.3419L26.1426 12.7801H23.86L23.2568 14.343C23.1612 14.5909 22.9495 14.7758 22.6909 14.8373C21.6684 15.0803 20.6933 15.4843 19.7971 16.0365C19.5705 16.1762 19.2895 16.195 19.0464 16.0869L17.5178 15.4073L15.9047 17.0204L16.5844 18.5488C16.6925 18.792 16.6737 19.0729 16.5341 19.2995C15.9814 20.1964 15.5773 21.1723 15.3309 22.1986C15.269 22.4566 15.0842 22.6676 14.8365 22.763L13.2776 23.3629V25.6455L14.8365 26.2454C15.084 26.3406 15.2687 26.5514 15.3308 26.8093C15.5771 27.8321 15.9809 28.8109 16.5334 29.7043C16.6736 29.9311 16.6927 30.2125 16.5844 30.4561L15.9047 31.9846L17.5184 33.5983L19.0474 32.9211C19.2897 32.8137 19.5692 32.8322 19.7952 32.9708C20.692 33.5201 21.6676 33.9278 22.6938 34.171C22.9528 34.2322 23.1649 34.4175 23.2605 34.666L23.8605 36.2248H26.1429L26.7428 34.666C26.8384 34.4177 27.0503 34.2325 27.3091 34.1711C28.3311 33.9281 29.3092 33.5246 30.2019 32.9725C30.4283 32.8324 30.7092 32.8132 30.9526 32.9211L32.4815 33.5983L34.0957 31.984L33.4185 30.4551C33.3112 30.2128 33.3298 29.9332 33.4682 29.7071C34.0177 28.8104 34.4254 27.8347 34.6685 26.8115C34.7301 26.5527 34.9152 26.3409 35.1635 26.2454L36.7224 25.6455V23.3629L35.1635 22.763C34.9151 22.6673 34.7298 22.4553 34.6684 22.1963C34.4255 21.1708 34.0216 20.1957 33.4693 19.2995C33.3299 19.0733 33.311 18.7928 33.4185 18.5499L34.0957 17.021L32.4821 15.4073L30.9536 16.0869C30.7105 16.195 30.4295 16.1762 30.2029 16.0365C29.3066 15.4843 28.3315 15.0803 27.3091 14.8373C27.0501 14.7758 26.8382 14.5904 26.7427 14.3419ZM25 17.7833C28.7125 17.7833 31.7227 20.7899 31.7227 24.5025C31.7227 28.2148 28.7124 31.2251 25 31.2251C21.2875 31.2251 18.2807 28.215 18.2807 24.5025C18.2807 20.7898 21.2874 17.7833 25 17.7833ZM25 19.3962C22.1785 19.3962 19.8936 21.681 19.8936 24.5025C19.8936 27.3241 22.1784 29.6122 25 29.6122C27.8217 29.6122 30.1098 27.3242 30.1098 24.5025C30.1098 21.6809 27.8216 19.3962 25 19.3962ZM21.73 25.2357C21.415 24.9213 21.4146 24.4102 21.7291 24.0953C22.0435 23.7802 22.5546 23.7798 22.8695 24.0942L23.9011 25.124L27.1585 22.1707C27.4882 21.8717 27.9987 21.8967 28.2976 22.2264C28.5966 22.5561 28.5716 23.0665 28.2418 23.3655L24.416 26.8343C24.0977 27.123 23.6088 27.1113 23.3046 26.8075L21.73 25.2357Z" fill="#3259BB"/>
</svg>
