<svg width="50" height="42" viewBox="0 0 50 42" fill="none" xmlns="http://www.w3.org/2000/svg">
<path d="M41.8143 24.7873C39.3434 22.3475 36.3548 20.7085 32.9295 19.916C32.4149 19.7967 31.9502 19.7438 31.4222 19.7438H27.4108L24.2822 17.1162C24.1701 17.0218 24.028 16.9699 23.8817 16.9699H17.9699C17.7334 16.9699 17.5166 17.1048 17.4118 17.3164C17.3071 17.528 17.332 17.7822 17.4761 17.9699L19.472 20.5768V21.4336L16.8309 20.4512C16.64 20.3807 16.4263 20.4066 16.2583 20.5239C16.0913 20.64 15.9907 20.8309 15.9907 21.0353V29.4232C15.9907 29.6266 16.0902 29.8185 16.2583 29.9346C16.3641 30.0083 16.4886 30.0456 16.6131 30.0456C16.6867 30.0456 16.7593 30.0332 16.8299 30.0062L19.471 29.0239V29.8807L17.4751 32.4865C17.3309 32.6743 17.306 32.9284 17.4108 33.14C17.5156 33.3517 17.7324 33.4865 17.9689 33.4865H23.8807C24.027 33.4865 24.1691 33.4346 24.2811 33.3402L27.4098 30.7127H31.4212C31.9492 30.7127 32.4139 30.6598 32.9284 30.5405C36.3537 29.7479 39.3423 28.1089 41.8133 25.6691C41.9315 25.5519 41.9979 25.3932 41.9979 25.2261C41.9979 25.0591 41.9326 24.9046 41.8143 24.7873ZM23.6556 18.2158L25.4761 19.7448H20.4025L19.2313 18.2158H23.6556ZM17.2365 28.529V21.9315L19.472 22.7624V27.6971L17.2365 28.529ZM23.6556 32.2448H19.2313L20.4025 30.7158H25.4761L23.6556 32.2448ZM32.6494 29.3309C32.2251 29.4295 31.8579 29.471 31.4222 29.471H20.7168V20.9886H31.4222C31.8579 20.9886 32.2251 21.0301 32.6494 21.1286C33.8361 21.4035 34.9658 21.7884 36.0363 22.278V28.1805C34.9658 28.6712 33.8361 29.0571 32.6494 29.3309ZM37.2811 27.5498V22.9098C38.4243 23.5519 39.4917 24.3257 40.4751 25.2293C39.4917 26.1338 38.4253 26.9077 37.2811 27.5498ZM30.7355 22.2261C29.0788 22.2261 27.7313 23.5737 27.7313 25.2303C27.7313 26.8869 29.0788 28.2344 30.7355 28.2344C32.3921 28.2344 33.7396 26.8869 33.7396 25.2303C33.7396 23.5737 32.3921 22.2261 30.7355 22.2261ZM30.7355 26.9896C29.7656 26.9896 28.9761 26.2002 28.9761 25.2303C28.9761 24.2604 29.7656 23.471 30.7355 23.471C31.7054 23.471 32.4948 24.2604 32.4948 25.2303C32.4948 26.2002 31.7064 26.9896 30.7355 26.9896ZM15.5809 22.8257C15.5809 23.1691 15.3019 23.4481 14.9585 23.4481H10.5415C10.1981 23.4481 9.91909 23.1691 9.91909 22.8257C9.91909 22.4824 10.1981 22.2033 10.5415 22.2033H14.9585C15.3019 22.2033 15.5809 22.4824 15.5809 22.8257ZM15.5809 25.2303C15.5809 25.5737 15.3019 25.8527 14.9585 25.8527H8.62241C8.27905 25.8527 8 25.5737 8 25.2303C8 24.8869 8.27905 24.6079 8.62241 24.6079H14.9585C15.3019 24.6079 15.5809 24.8869 15.5809 25.2303ZM15.5809 27.6349C15.5809 27.9782 15.3019 28.2573 14.9585 28.2573H10.5415C10.1981 28.2573 9.91909 27.9782 9.91909 27.6349C9.91909 27.2915 10.1981 27.0124 10.5415 27.0124H14.9585C15.3019 27.0124 15.5809 27.2915 15.5809 27.6349ZM49.3776 9.42739H46.8807C45.1608 9.42739 43.7614 10.8268 43.7614 12.5467V14.1598H32.1608V14.0923C32.1608 12.0042 30.6183 10.2697 28.612 9.96784V6.30498H35.3485C37.0871 6.30498 38.501 4.89108 38.501 3.15249C38.501 1.4139 37.0871 0 35.3485 0H14.6515C12.9129 0 11.499 1.4139 11.499 3.15249C11.499 4.89108 12.9129 6.30498 14.6515 6.30498H21.388V9.96888C19.3828 10.2707 17.8402 12.0041 17.8402 14.0934V14.1608H6.23859V12.5477C6.23859 10.8278 4.83921 9.42842 3.11929 9.42842H0.622407C0.279046 9.42842 0 9.70747 0 10.0508V40.4108C0 40.7542 0.279046 41.0332 0.622407 41.0332H3.11929C4.83921 41.0332 6.23859 39.6338 6.23859 37.9139V36.3008H43.7614V37.9139C43.7614 39.6338 45.1608 41.0332 46.8807 41.0332H49.3776C49.721 41.0332 50 40.7542 50 40.4108V10.0498C50 9.70643 49.721 9.42739 49.3776 9.42739ZM4.99378 37.9139C4.99378 38.9471 4.15249 39.7884 3.11929 39.7884H1.24481V10.6722H3.11929C4.15249 10.6722 4.99378 11.5135 4.99378 12.5467V37.9139ZM12.7438 3.15249C12.7438 2.10062 13.5996 1.24481 14.6515 1.24481H35.3485C36.4004 1.24481 37.2562 2.10062 37.2562 3.15249C37.2562 4.20436 36.4004 5.06017 35.3485 5.06017H14.6515C13.5996 5.06017 12.7438 4.20436 12.7438 3.15249ZM27.3672 6.30498V9.9222H22.6328V6.30498H27.3672ZM19.084 14.0934C19.084 12.4803 20.3963 11.1681 22.0093 11.1681H27.9886C29.6017 11.1681 30.9149 12.4803 30.9149 14.0934V14.1608H19.084V14.0934ZM6.23859 35.055V15.4056H43.7614V35.056H6.23859V35.055ZM48.7552 39.7884H46.8807C45.8475 39.7884 45.0062 38.9471 45.0062 37.9139V12.5467C45.0062 11.5135 45.8475 10.6722 46.8807 10.6722H48.7552V39.7884Z" fill="#3259BB"/>
</svg>
