<svg width="50" height="51" viewBox="0 0 50 51" fill="none" xmlns="http://www.w3.org/2000/svg">
<path d="M25.4102 11.4756C24.4266 11.4756 23.5528 11.9199 22.9512 12.6084L18.7781 10.5215C18.8257 10.3002 18.8527 10.0715 18.8527 9.83623C18.8527 8.028 17.3822 6.55748 15.574 6.55748C13.7658 6.55748 12.2952 8.028 12.2952 9.83623C12.2952 10.5723 12.5477 11.2453 12.9592 11.7928L7.07713 19.1454C6.66728 18.961 6.21646 18.8528 5.73858 18.8528C3.93036 18.8528 2.45984 20.3233 2.45984 22.1315C2.45984 23.9397 3.93036 25.4103 5.73858 25.4103C7.54681 25.4103 9.01732 23.9397 9.01732 22.1315C9.01732 21.3954 8.76486 20.7225 8.35338 20.1749L14.2354 12.8223C14.6453 13.0068 15.0969 13.115 15.5748 13.115C16.5584 13.115 17.4322 12.6707 18.0339 11.9822L22.2069 14.0691C22.1593 14.2904 22.1323 14.5191 22.1323 14.7543C22.1323 16.5626 23.6028 18.0331 25.411 18.0331C27.2193 18.0331 28.6898 16.5626 28.6898 14.7543C28.6898 14.0576 28.4676 13.4142 28.0955 12.8822L33.812 6.2124C34.2472 6.42633 34.73 6.55748 35.2464 6.55748C36.4866 6.55748 37.5547 5.85747 38.1112 4.84024L41.8064 5.76403C41.8203 7.55996 43.2835 9.01654 45.0827 9.01654C46.8819 9.01654 48.3614 7.54602 48.3614 5.7378C48.3614 3.92957 46.8909 2.45906 45.0827 2.45906C43.8433 2.45906 42.7744 3.15907 42.2179 4.1763L38.5227 3.25251C38.508 1.45658 37.0457 0 35.2464 0C33.4472 0 31.9677 1.47052 31.9677 3.27874C31.9677 3.97547 32.1898 4.61975 32.562 5.1509L26.8455 11.8207C26.4102 11.6067 25.9274 11.4756 25.4102 11.4756ZM5.73776 23.7709C4.83365 23.7709 4.09839 23.0356 4.09839 22.1315C4.09839 21.2274 4.83365 20.4921 5.73776 20.4921C6.64187 20.4921 7.37713 21.2274 7.37713 22.1315C7.37713 23.0356 6.64187 23.7709 5.73776 23.7709ZM15.574 11.4756C14.6699 11.4756 13.9346 10.7403 13.9346 9.83623C13.9346 8.93211 14.6699 8.19686 15.574 8.19686C16.4781 8.19686 17.2134 8.93211 17.2134 9.83623C17.2134 10.7403 16.4781 11.4756 15.574 11.4756ZM25.4102 16.3937C24.5061 16.3937 23.7708 15.6585 23.7708 14.7543C23.7708 13.8502 24.5061 13.115 25.4102 13.115C26.3143 13.115 27.0496 13.8502 27.0496 14.7543C27.0496 15.6585 26.3143 16.3937 25.4102 16.3937ZM45.0827 4.09843C45.9868 4.09843 46.722 4.83369 46.722 5.7378C46.722 6.64191 45.9868 7.37717 45.0827 7.37717C44.1786 7.37717 43.4433 6.64191 43.4433 5.7378C43.4433 4.83369 44.1786 4.09843 45.0827 4.09843ZM35.2464 1.63937C36.1506 1.63937 36.8858 2.37463 36.8858 3.27874C36.8858 4.18286 36.1506 4.91811 35.2464 4.91811C34.3423 4.91811 33.6071 4.18286 33.6071 3.27874C33.6071 2.37463 34.3423 1.63937 35.2464 1.63937Z" fill="#3259BB"/>
<path d="M18.8527 40.1642C23.3725 40.1642 27.0496 36.4871 27.0496 31.9674C27.0496 27.4476 23.3725 23.7705 18.8527 23.7705C14.333 23.7705 10.6559 27.4476 10.6559 31.9674C10.6559 36.4871 14.333 40.1642 18.8527 40.1642ZM18.8527 38.5248C16.4322 38.5248 14.3182 37.2027 13.1822 35.2461H24.5225C23.3864 37.2027 21.2741 38.5248 18.8527 38.5248ZM25.4102 31.9674C25.4102 32.5346 25.3307 33.0813 25.1946 33.6067H23.7709V27.6443C24.7881 28.8001 25.4102 30.3108 25.4102 31.9674ZM22.1315 26.2968V33.6067H15.574V26.2968C16.5396 25.7361 17.6576 25.4099 18.8527 25.4099C20.0478 25.4099 21.1659 25.7361 22.1315 26.2968ZM13.9346 27.6443V33.6067H12.5108C12.3748 33.0813 12.2953 32.5346 12.2953 31.9674C12.2953 30.3108 12.9174 28.8001 13.9346 27.6443Z" fill="#3259BB"/>
<path d="M3.4894 50.8205C4.65827 50.8205 5.74354 50.2402 6.39273 49.2664L10.0993 43.7064C10.2813 43.7605 10.4674 43.7966 10.6559 43.7966C11.1526 43.7966 11.6502 43.6081 12.0281 43.2294L13.2715 41.9859C14.9248 42.9105 16.8265 43.4433 18.8519 43.4433C24.0397 43.4433 28.4292 39.9802 29.8439 35.2465H50V33.6071H49.1803V14.7543C49.1803 14.3019 48.8131 13.9346 48.3606 13.9346H41.8031C41.3507 13.9346 40.9835 14.3019 40.9835 14.7543V33.6071H39.3441V22.9512H37.7047V33.6071H32.7866V13.115H37.7047V20.4921H39.3441V12.2953C39.3441 11.8428 38.9769 11.4756 38.5244 11.4756H31.9669C31.5145 11.4756 31.1472 11.8428 31.1472 12.2953V33.6071H30.1964C30.2734 33.0702 30.3275 32.5259 30.3275 31.9677C30.3275 27.0849 27.257 22.9168 22.9504 21.2618V18.0331C22.9504 17.5806 22.5832 17.2134 22.1307 17.2134H15.5732C15.1207 17.2134 14.7535 17.5806 14.7535 18.0331V21.2618C12.0002 22.3192 9.76164 24.4045 8.49932 27.0496H2.45906C2.00659 27.0496 1.63937 27.4168 1.63937 27.8693V33.6071H0.819686V35.2465H7.86079C8.10259 36.0547 8.43047 36.8252 8.83457 37.5481L7.58619 38.7965C7.06487 39.3178 6.91241 40.0621 7.11159 40.7228L1.55412 44.4278C0.581157 45.077 0 46.1622 0 47.3311C0 49.2549 1.5656 50.8205 3.4894 50.8205ZM42.6236 15.574H47.5418V33.6071H42.6236V15.574ZM16.3937 18.8528H21.3118V20.7643C20.5184 20.5905 19.697 20.4921 18.8528 20.4921C18.0085 20.4921 17.1872 20.5905 16.3937 20.7643V18.8528ZM18.8528 22.1315C24.2766 22.1315 28.689 26.5439 28.689 31.9677C28.689 37.3916 24.2766 41.8039 18.8528 41.8039C13.4289 41.8039 9.01654 37.3916 9.01654 31.9677C9.01654 26.5439 13.4289 22.1315 18.8528 22.1315ZM3.27874 33.6071V28.689H7.86079C7.55012 29.7292 7.37717 30.8284 7.37717 31.9677C7.37717 32.5259 7.43045 33.0702 7.50832 33.6071H3.27874ZM8.74522 39.9556L9.76 38.9408C10.3723 39.7367 11.0838 40.4482 11.8797 41.0605L10.869 42.0712C10.7149 42.2253 10.5961 42.2253 10.442 42.0712L8.74441 40.3736C8.66899 40.2982 8.65834 40.2105 8.65834 40.1646C8.65834 40.1187 8.67063 40.031 8.74522 39.9556ZM2.46316 45.7917L8.09276 42.0392L8.78211 42.7286L5.02959 48.3582C4.68614 48.8737 4.1099 49.1819 3.49022 49.1819C2.46971 49.1819 1.64019 48.3524 1.64019 47.3319C1.64019 46.7122 1.94757 46.1368 2.46397 45.7925L2.46316 45.7917Z" fill="#3259BB"/>
</svg>
