<svg width="26" height="50" viewBox="0 0 26 50" fill="none" xmlns="http://www.w3.org/2000/svg">
<path d="M20.8402 21.9622V21.7362C20.8402 18.8471 17.5061 18.106 15.9143 19.6556C15.7686 16.9378 12.5436 16.2701 10.9822 17.7729V15.9466C12.0761 15.5411 13.085 14.8947 13.9133 14.0588C15.4606 12.4958 16.3127 10.4272 16.3127 8.23411C16.3127 6.04067 15.4606 3.97211 13.9133 2.40933C12.3746 0.855555 10.33 0 8.15667 0C5.972 0 3.92178 0.855556 2.38189 2.411C0.846 3.98 0 6.048 0 8.234C0 10.4198 0.846 12.4878 2.38356 14.0587C3.18233 14.8654 4.16278 15.5046 5.23278 15.9242V22.2273C3.83144 23.451 2.53156 24.6217 2.43211 26.3043C2.34267 27.817 3.23633 29.5683 5.23656 31.8049C5.31789 34.6592 7.54122 37.061 10.3671 37.3076C10.4903 37.3183 10.5982 37.2784 10.683 37.2004C10.7689 37.1219 10.8176 37.0111 10.8176 36.895C10.8176 34.3007 12.9202 32.19 15.505 32.19C18.0744 32.19 20.1772 34.3018 20.1919 36.8972C20.1924 37.0131 20.2417 37.1232 20.327 37.2012C20.4039 37.271 20.5033 37.3091 20.6061 37.3091C20.618 37.3091 20.6304 37.3086 20.6422 37.3074C23.5123 37.0554 25.7609 34.5673 25.7609 31.6432V24.039C25.7617 21.1654 22.4354 20.4262 20.8402 21.9622ZM5.23289 10.2884V11.4169C4.36433 10.6046 3.86311 9.46256 3.86311 8.234C3.86311 5.84056 5.789 3.89344 8.15667 3.89344C10.5239 3.89344 12.4497 5.84045 12.4497 8.234C12.4497 9.50956 11.9116 10.6814 10.9821 11.495V10.2883C10.9821 8.40122 9.536 7.414 8.10745 7.414C6.67889 7.41411 5.23289 8.40133 5.23289 10.2884ZM2.97411 13.4779C1.59022 12.0643 0.828445 10.202 0.828445 8.23411C0.828445 6.26589 1.59022 4.40356 2.97244 2.992C4.35356 1.59678 6.19467 0.828556 8.15667 0.828556C10.1073 0.828556 11.9428 1.59678 13.3244 2.992C14.7174 4.39878 15.4842 6.26056 15.4842 8.23411C15.4842 10.2074 14.7173 12.0691 13.3244 13.4759C12.6542 14.1529 11.853 14.6934 10.9821 15.0596V12.5376C12.4242 11.5798 13.2781 9.98811 13.2781 8.23411C13.2781 5.384 10.9804 3.06522 8.15667 3.06522C5.33233 3.06522 3.03467 5.38411 3.03467 8.23411C3.03467 9.94467 3.85233 11.5153 5.23289 12.4813V15.0302C4.38745 14.6552 3.615 14.1252 2.97411 13.4779ZM3.259 26.353C3.32733 25.2008 4.16311 24.2941 5.23289 23.332V30.5304C3.841 28.8338 3.194 27.4614 3.259 26.353ZM24.9327 31.6434C24.9327 33.9942 23.2362 36.015 20.9984 36.4248C20.7452 33.5931 18.3724 31.3618 15.5051 31.3618C12.6214 31.3618 10.248 33.5931 10.009 36.4248C7.76333 36.0151 6.06122 33.9946 6.06122 31.6434V22.4154V15.6397V12.2599V10.2886C6.06122 8.88289 7.12189 8.24233 8.10745 8.24233C9.093 8.24233 10.1537 8.88289 10.1537 10.2886V12.3097V15.6561V19.8477C10.1537 20.0766 10.339 20.2619 10.5679 20.2619C10.7968 20.2619 10.9821 20.0766 10.9821 19.8477C10.9821 18.442 12.0473 17.8014 13.0368 17.8014C14.0262 17.8014 15.0909 18.442 15.0909 19.8477V21.7362C15.0909 21.9651 15.2762 22.1504 15.5051 22.1504C15.734 22.1504 15.9193 21.9651 15.9193 21.7362C15.9193 20.3221 16.98 19.6779 17.9656 19.6779C18.9511 19.6779 20.0118 20.3221 20.0118 21.7362V24.0392C20.0118 24.2681 20.1971 24.4534 20.426 24.4534C20.6549 24.4534 20.8402 24.2681 20.8402 24.0392C20.8402 22.6336 21.9009 21.993 22.8864 21.993C23.872 21.993 24.9327 22.6336 24.9327 24.0392V31.6434Z" fill="#3259BB"/>
<path d="M17.9983 41.2024H17.3134V40.0414C18.3973 39.405 19.085 38.2107 19.085 36.9282C19.085 34.9275 17.479 33.2998 15.5051 33.2998C13.5217 33.2998 11.9082 34.9276 11.9082 36.9282C11.9082 38.2105 12.5959 39.4048 13.6798 40.0414V41.2024H12.9954C11.329 41.2024 9.97278 42.5699 9.97278 44.2508V49.5856C9.97278 49.8145 10.1581 49.9998 10.387 49.9998H20.6226C20.8514 49.9998 21.0368 49.8145 21.0368 49.5856V44.2508C21.0369 42.5699 19.6739 41.2024 17.9983 41.2024ZM14.2761 39.422C13.3409 38.9646 12.7368 37.9858 12.7368 36.9282C12.7368 35.3844 13.9789 34.1282 15.5052 34.1282C17.0224 34.1282 18.2567 35.3845 18.2567 36.9282C18.2567 37.9858 17.6526 38.9648 16.7173 39.422C16.5754 39.4916 16.4851 39.6359 16.4851 39.7941V41.2024H14.5083V39.7941C14.5083 39.6359 14.4184 39.4916 14.2761 39.422ZM20.2084 49.1714H10.8013V44.2508C10.8013 43.0268 11.7858 42.0308 12.9957 42.0308H14.0942H16.8993H17.9984C19.2173 42.0308 20.2086 43.0268 20.2086 44.2508V49.1714H20.2084Z" fill="#3259BB"/>
</svg>
