<svg width="50" height="43" viewBox="0 0 50 43" fill="none" xmlns="http://www.w3.org/2000/svg">
<path d="M25.9843 41.3386C25.9843 41.8819 25.5423 42.3228 25 42.3228C24.4577 42.3228 24.0157 41.8819 24.0157 41.3386C24.0157 40.7963 24.4577 40.3543 25 40.3543C25.5423 40.3543 25.9843 40.7963 25.9843 41.3386ZM7.8372 17.126C7.2936 17.126 6.85295 17.5666 6.85295 18.1102C6.85295 18.6538 7.2936 19.0945 7.8372 19.0945H9.84252V28.937C9.84252 29.4806 10.2832 29.9213 10.8268 29.9213C11.3704 29.9213 11.811 29.4806 11.811 28.937V19.0945H13.8163C14.3599 19.0945 14.8006 18.6538 14.8006 18.1102C14.8006 17.5666 14.3599 17.126 13.8163 17.126H7.8372ZM41.9291 9.44882C44.2086 9.44882 46.063 11.3032 46.063 13.5827C46.063 15.8621 44.2086 17.7165 41.9291 17.7165C39.6497 17.7165 37.7953 15.8621 37.7953 13.5827C37.7953 11.3032 39.6497 9.44882 41.9291 9.44882ZM39.7638 13.5827C39.7638 14.7767 40.7351 15.748 41.9291 15.748C43.1231 15.748 44.0945 14.7767 44.0945 13.5827C44.0945 12.3887 43.1231 11.4173 41.9291 11.4173C40.7351 11.4173 39.7638 12.3887 39.7638 13.5827ZM39.1732 42.3228H29.4291C28.8651 42.3228 28.4095 41.8458 28.447 41.2727C28.4813 40.7496 28.9395 40.3543 29.4637 40.3543H38.189V38.3858H30.9055C29.2747 38.3858 27.9528 37.0639 27.9528 35.4331V32.874C27.9528 31.2432 29.2747 29.9213 30.9055 29.9213H38.189V25.7874H24.6063C24.0627 25.7874 23.622 25.3468 23.622 24.8031V6.49606C23.622 5.95246 24.0627 5.51181 24.6063 5.51181H38.189V2.95276C38.189 2.40915 37.7483 1.9685 37.2047 1.9685H12.7953C12.2517 1.9685 11.811 2.40915 11.811 2.95276V12.6968H20.6693C21.2129 12.6968 21.6535 13.1375 21.6535 13.6811V33.3661C21.6535 33.9097 21.2129 34.3504 20.6693 34.3504H11.811V40.3543H20.5363C21.0605 40.3543 21.5187 40.7496 21.553 41.2727C21.5905 41.8458 21.1349 42.3228 20.5709 42.3228H10.8268C10.2832 42.3228 9.84252 41.8822 9.84252 41.3386V34.3504H0.984252C0.44065 34.3504 0 33.9097 0 33.3661V13.6811C0 13.1375 0.44065 12.6968 0.984252 12.6968H9.84252V2.95276C9.84252 1.32195 11.1645 0 12.7953 0H37.2047C38.8355 0 40.1575 1.32195 40.1575 2.95276V5.51181H49.0157C49.5593 5.51181 50 5.95246 50 6.49606V24.8031C50 25.3468 49.5593 25.7874 49.0157 25.7874H40.1575V29.9213H42.7165C44.3473 29.9213 45.6693 31.2432 45.6693 32.874V35.4331C45.6693 37.0639 44.3473 38.3858 42.7165 38.3858H40.1575V41.3386C40.1575 41.8822 39.7168 42.3228 39.1732 42.3228ZM19.685 14.6654H1.9685V32.3819H19.685V14.6654ZM42.7165 31.8898H30.9055C30.3628 31.8898 29.9213 32.3313 29.9213 32.874V35.4331C29.9213 35.9758 30.3628 36.4173 30.9055 36.4173H42.7165C43.2593 36.4173 43.7008 35.9758 43.7008 35.4331V32.874C43.7008 32.3313 43.2593 31.8898 42.7165 31.8898ZM25.5906 23.8189H40.8361L31.7497 15.3251C30.619 14.2682 28.8475 14.268 27.7169 15.3251L25.5906 17.3129V23.8189ZM48.0315 7.48031H25.5906V14.6182L26.3726 13.8871C28.2572 12.1255 31.2096 12.1256 33.094 13.8871L43.7188 23.8189H48.0315V7.48031Z" fill="#3259BB"/>
</svg>
