<svg width="50" height="50" viewBox="0 0 50 50" fill="none" xmlns="http://www.w3.org/2000/svg">
<path d="M20.8325 33.3324H29.1659C30.5466 33.3324 31.6659 32.2131 31.6659 30.8324V23.3324C31.6659 21.9516 30.5466 20.8324 29.1659 20.8324V19.1657C29.1659 16.8645 27.3004 14.999 24.9992 14.999C22.698 14.999 20.8325 16.8645 20.8325 19.1657V20.8324C19.4518 20.8324 18.3325 21.9516 18.3325 23.3324V30.8324C18.3325 32.2131 19.4518 33.3324 20.8325 33.3324ZM22.4992 19.1657C22.4992 17.785 23.6185 16.6657 24.9992 16.6657C26.3799 16.6657 27.4992 17.785 27.4992 19.1657V20.8324H22.4992V19.1657ZM19.9992 23.3324C19.9992 22.8721 20.3723 22.499 20.8325 22.499H29.1659C29.6261 22.499 29.9992 22.8721 29.9992 23.3324V30.8324C29.9992 31.2926 29.6261 31.6657 29.1659 31.6657H20.8325C20.3723 31.6657 19.9992 31.2926 19.9992 30.8324V23.3324Z" fill="#3259BB"/>
<path d="M24.1667 29.0133V29.1666C24.1667 29.6268 24.5398 29.9999 25 29.9999C25.4602 29.9999 25.8333 29.6268 25.8333 29.1666V29.0133C26.9813 28.6074 27.6699 27.4336 27.464 26.2335C27.2581 25.0334 26.2176 24.1562 25 24.1562C23.7824 24.1562 22.7419 25.0334 22.536 26.2335C22.3301 27.4336 23.0187 28.6074 24.1667 29.0133ZM25 25.8333C25.4602 25.8333 25.8333 26.2064 25.8333 26.6666C25.8333 27.1268 25.4602 27.4999 25 27.4999C24.5398 27.4999 24.1667 27.1268 24.1667 26.6666C24.1667 26.2064 24.5398 25.8333 25 25.8333Z" fill="#3259BB"/>
<path d="M10.833 25.0007C10.833 32.8247 17.1756 39.1673 24.9997 39.1673C32.8237 39.1673 39.1663 32.8247 39.1663 25.0007C39.1663 17.1766 32.8237 10.834 24.9997 10.834C17.1793 10.8427 10.8417 17.1802 10.833 25.0007ZM24.9997 12.5007C31.9032 12.5007 37.4997 18.0971 37.4997 25.0007C37.4997 31.9042 31.9032 37.5007 24.9997 37.5007C18.0961 37.5007 12.4997 31.9042 12.4997 25.0007C12.5075 18.1003 18.0994 12.5085 24.9997 12.5007Z" fill="#3259BB"/>
<path d="M41.6659 43.3327C40.1505 43.3384 38.8297 44.3655 38.4509 45.8327H32.4992V40.7952C34.3624 39.9182 36.0553 38.7176 37.4992 37.2494C37.7126 37.0378 37.7956 36.7277 37.7163 36.4378C37.6371 36.1478 37.4078 35.9231 37.1164 35.8496C36.825 35.776 36.5165 35.8651 36.3092 36.0827C34.8943 37.5293 33.2147 38.6906 31.3617 39.5036C31.2498 39.548 31.149 39.6166 31.0667 39.7044C31.0575 39.7144 31.0525 39.7277 31.0434 39.7394C30.9824 39.8072 30.9331 39.8846 30.8975 39.9686C30.8812 40.0209 30.8703 40.0748 30.865 40.1294C30.8495 40.1766 30.8387 40.2251 30.8325 40.2744V40.2894V45.8327C30.8325 46.7532 31.5787 47.4994 32.4992 47.4994H38.4509C38.8869 49.1724 40.5314 50.2328 42.2353 49.9395C43.9391 49.6462 45.1345 48.097 44.986 46.3745C44.8376 44.652 43.3947 43.3302 41.6659 43.3327ZM41.6659 48.3327C40.7454 48.3327 39.9992 47.5865 39.9992 46.6661C39.9992 45.7456 40.7454 44.9994 41.6659 44.9994C42.5863 44.9994 43.3325 45.7456 43.3325 46.6661C43.3325 47.5865 42.5863 48.3327 41.6659 48.3327Z" fill="#3259BB"/>
<path d="M6.54788 34.1669H10.5745C10.5812 34.1669 10.587 34.1627 10.5945 34.1627C10.6774 34.159 10.7593 34.1424 10.837 34.1135C10.8759 34.1008 10.9138 34.0852 10.9504 34.0669C10.9595 34.0619 10.9704 34.0602 10.9795 34.0544C10.9887 34.0485 11.0029 34.031 11.0162 34.0219C11.0918 33.9752 11.1589 33.9161 11.2145 33.8469C11.2244 33.834 11.2336 33.8206 11.242 33.8069C11.296 33.731 11.3366 33.6464 11.362 33.5569C11.362 33.5444 11.367 33.5319 11.3695 33.5194C11.3897 33.4592 11.4026 33.3968 11.4079 33.3335C11.4036 33.302 11.3972 33.2708 11.3887 33.2402C11.3887 33.2294 11.3887 33.2194 11.3829 33.2077C11.3687 33.1099 11.3368 33.0156 11.2887 32.9294L11.2845 32.916C10.4301 31.441 9.82153 29.8367 9.48288 28.166C9.39083 27.715 8.95058 27.424 8.49955 27.516C8.04851 27.6081 7.7575 28.0483 7.84955 28.4994C8.12992 29.8819 8.57767 31.2251 9.18288 32.4994H6.54788C6.12824 30.8741 4.56556 29.8144 2.90038 30.0259C1.2352 30.2374 -0.0129395 31.6541 -0.0129395 33.3327C-0.0129395 35.0112 1.2352 36.4279 2.90038 36.6395C4.56556 36.851 6.12824 35.7921 6.54788 34.1669ZM3.33288 35.0002C2.41241 35.0002 1.66621 34.254 1.66621 33.3335C1.66621 32.413 2.41241 31.6669 3.33288 31.6669C4.25336 31.6669 4.99955 32.413 4.99955 33.3335C4.99955 34.254 4.25336 35.0002 3.33288 35.0002Z" fill="#3259BB"/>
<path d="M2.61266e-06 16.6673C-0.0020821 18.3438 1.24365 19.7599 2.90671 19.9715C4.56977 20.1832 6.13047 19.1242 6.54834 17.5007H10.575H10.5975C10.6797 17.496 10.7609 17.4794 10.8383 17.4515C10.875 17.4398 10.9106 17.4253 10.945 17.4082C10.9894 17.3848 11.0313 17.3568 11.07 17.3248C11.1403 17.2718 11.2011 17.2073 11.25 17.134C11.2608 17.1182 11.275 17.1065 11.285 17.0898C12.3535 15.2355 13.7875 13.6176 15.5 12.334C15.7382 12.1554 15.863 11.8632 15.8274 11.5676C15.7917 11.2721 15.6011 11.0179 15.3274 10.901C15.0536 10.784 14.7382 10.822 14.5 11.0007C12.7463 12.3217 11.2572 13.9614 10.1108 15.834H6.54834C6.13047 14.2104 4.56977 13.1515 2.90671 13.3631C1.24365 13.5748 -0.0020821 14.9909 2.61266e-06 16.6673ZM5.00001 16.6673C5.00001 17.5878 4.25381 18.334 3.33334 18.334C2.41286 18.334 1.66667 17.5878 1.66667 16.6673C1.66667 15.7469 2.41286 15.0007 3.33334 15.0007C3.77537 15.0007 4.19929 15.1763 4.51185 15.4888C4.82441 15.8014 5.00001 16.2253 5.00001 16.6673Z" fill="#3259BB"/>
<path d="M46.6663 29.9998C45.151 30.0054 43.8301 31.0325 43.4513 32.4998H40.8155C41.4212 31.2257 41.869 29.8824 42.1488 28.4998C42.2409 28.0485 41.9497 27.6081 41.4984 27.516C41.0471 27.424 40.6067 27.7152 40.5146 28.1664C40.1766 29.837 39.5686 31.4414 38.7146 32.9164V32.9273C38.6648 33.0154 38.6321 33.112 38.618 33.2123C38.618 33.2214 38.618 33.2298 38.6121 33.2389C38.6035 33.2699 38.5966 33.3014 38.5913 33.3331C38.5963 33.3986 38.6092 33.4632 38.6296 33.5256C38.6296 33.5364 38.6296 33.5473 38.6363 33.5581C38.6622 33.648 38.7036 33.7326 38.7588 33.8081C38.7671 33.8206 38.7738 33.8331 38.783 33.8448C38.8394 33.9143 38.907 33.974 38.983 34.0214C38.9963 34.0306 39.0046 34.0448 39.0188 34.0531C39.033 34.0614 39.0388 34.0606 39.048 34.0656C39.085 34.0845 39.1234 34.1004 39.163 34.1131C39.2404 34.141 39.3216 34.1573 39.4038 34.1614C39.4113 34.1614 39.4171 34.1656 39.4246 34.1656H43.4513C43.8869 35.8388 45.5314 36.8997 47.2354 36.6066C48.9394 36.3136 50.1351 34.7643 49.9867 33.0417C49.8383 31.319 48.3953 29.9971 46.6663 29.9998ZM46.6663 34.9998C45.7458 34.9998 44.9996 34.2536 44.9996 33.3331C44.9996 32.4126 45.7458 31.6664 46.6663 31.6664C47.5868 31.6664 48.333 32.4126 48.333 33.3331C48.333 34.2536 47.5868 34.9998 46.6663 34.9998Z" fill="#3259BB"/>
<path d="M19.1665 40.29V40.2758C19.1612 40.229 19.152 40.1827 19.139 40.1375C19.1331 40.0809 19.1216 40.0251 19.1048 39.9708C19.0697 39.8882 19.0213 39.8119 18.9615 39.745C18.9506 39.7325 18.9456 39.7175 18.9348 39.7058C18.8521 39.6179 18.7511 39.5494 18.639 39.505C16.4576 38.5422 14.5196 37.1031 12.9673 35.2933C12.7764 35.0582 12.473 34.9453 12.1748 34.9982C11.8766 35.0511 11.6306 35.2617 11.5323 35.5481C11.4339 35.8345 11.4987 36.1517 11.7015 36.3766C13.3041 38.242 15.2791 39.7516 17.4998 40.8083V45.8341H11.5481C11.1285 44.2089 9.5658 43.1492 7.90062 43.3607C6.23545 43.5722 4.9873 44.9889 4.9873 46.6675C4.9873 48.346 6.23545 49.7627 7.90062 49.9742C9.5658 50.1857 11.1285 49.1261 11.5481 47.5008H17.4998C18.4203 47.5008 19.1665 46.7546 19.1665 45.8341V40.29ZM8.33312 48.3341C7.41265 48.3341 6.66646 47.5879 6.66646 46.6675C6.66646 45.747 7.41265 45.0008 8.33312 45.0008C9.2536 45.0008 9.99979 45.747 9.99979 46.6675C9.99979 47.5879 9.2536 48.3341 8.33312 48.3341Z" fill="#3259BB"/>
<path d="M28.1662 40.5182C26.076 40.938 23.9232 40.938 21.8329 40.5182C21.5381 40.4506 21.2297 40.548 21.0273 40.7728C20.8249 40.9976 20.7602 41.3145 20.8583 41.6006C20.9564 41.8868 21.2018 42.0973 21.4996 42.1507C22.3793 42.3216 23.2708 42.425 24.1662 42.4599V49.1682C24.1662 49.6284 24.5393 50.0015 24.9996 50.0015C25.4598 50.0015 25.8329 49.6284 25.8329 49.1682V42.4599C26.7284 42.425 27.6199 42.3217 28.4996 42.1507C28.9405 42.0495 29.2202 41.615 29.1297 41.1717C29.0392 40.7285 28.6116 40.4384 28.1662 40.5182Z" fill="#3259BB"/>
<path d="M17.4998 2.50025H11.5481C11.1285 0.874991 9.5658 -0.184691 7.90062 0.0268144C6.23545 0.23832 4.9873 1.65502 4.9873 3.33358C4.9873 5.01214 6.23545 6.42884 7.90062 6.64035C9.5658 6.85185 11.1285 5.79217 11.5481 4.16691H17.4998V9.72691C17.4998 9.76025 17.5156 9.79275 17.5198 9.82608C17.5285 9.91235 17.5507 9.99671 17.5856 10.0761C17.6202 10.1503 17.6664 10.2187 17.7223 10.2786C17.7502 10.3088 17.7806 10.3367 17.8131 10.3619C17.8539 10.3953 17.8977 10.4249 17.944 10.4502C17.9825 10.4716 18.0226 10.49 18.064 10.5052C18.1235 10.5242 18.185 10.5365 18.2473 10.5419C18.2747 10.5494 18.3025 10.5552 18.3306 10.5594C18.45 10.5569 18.5675 10.5285 18.6748 10.4761C19.69 10.0359 20.7485 9.70352 21.8331 9.48441C22.2844 9.39237 22.5756 8.95193 22.4835 8.50066C22.3915 8.0494 21.9511 7.7582 21.4998 7.85025C20.7078 8.01229 19.9281 8.22949 19.1665 8.50025V4.16691C19.1665 3.24644 18.4203 2.50025 17.4998 2.50025ZM8.33312 5.00025C7.41265 5.00025 6.66646 4.25406 6.66646 3.33358C6.66646 2.41311 7.41265 1.66691 8.33312 1.66691C9.2536 1.66691 9.99979 2.41311 9.99979 3.33358C9.99979 3.77561 9.8242 4.19953 9.51163 4.51209C9.19907 4.82465 8.77515 5.00025 8.33312 5.00025Z" fill="#3259BB"/>
<path d="M38.4511 4.16691C38.8707 5.79217 40.4334 6.85185 42.0986 6.64035C43.7638 6.42884 45.0119 5.01214 45.0119 3.33358C45.0119 1.65502 43.7638 0.23832 42.0986 0.0268144C40.4334 -0.184691 38.8707 0.874991 38.4511 2.50025H32.4994C31.579 2.50025 30.8328 3.24644 30.8328 4.16691V9.70941V9.72441C30.8378 9.77357 30.8476 9.82213 30.8619 9.86941C30.8672 9.924 30.8781 9.97789 30.8944 10.0302C30.93 10.1142 30.9793 10.1916 31.0403 10.2594C31.0494 10.2702 31.0544 10.2844 31.0636 10.2944C31.146 10.3822 31.2467 10.4508 31.3586 10.4952C33.2112 11.307 34.8908 12.4669 36.3061 13.9119C36.5105 14.139 36.8227 14.2361 37.1198 14.1648C37.4169 14.0936 37.6512 13.8655 37.7304 13.5705C37.8096 13.2754 37.721 12.9606 37.4994 12.7502C36.0555 11.282 34.3626 10.0815 32.4994 9.20441V4.16691H38.4511ZM41.6661 1.66691C42.5866 1.66691 43.3328 2.41311 43.3328 3.33358C43.3328 4.25405 42.5866 5.00025 41.6661 5.00025C40.7456 5.00025 39.9994 4.25405 39.9994 3.33358C39.9994 2.41311 40.7456 1.66691 41.6661 1.66691Z" fill="#3259BB"/>
<path d="M25.0001 0C24.5398 0 24.1667 0.373096 24.1667 0.833333V8.33333C24.1667 8.79357 24.5398 9.16667 25.0001 9.16667C26.0636 9.16644 27.1244 9.27253 28.1667 9.48333C28.2216 9.49461 28.2774 9.5002 28.3334 9.5C28.76 9.49837 29.1164 9.17487 29.1593 8.75046C29.2022 8.32605 28.9177 7.93778 28.5001 7.85083C27.6204 7.67985 26.7289 7.57649 25.8334 7.54167V0.833333C25.8334 0.373096 25.4603 0 25.0001 0Z" fill="#3259BB"/>
<path d="M43.4511 17.5019C43.8707 19.1271 45.4334 20.1868 47.0986 19.9753C48.7637 19.7638 50.0119 18.3471 50.0119 16.6685C50.0119 14.99 48.7637 13.5733 47.0986 13.3618C45.4334 13.1503 43.8707 14.21 43.4511 15.8352H39.4244C39.4086 15.8352 39.3961 15.8435 39.3811 15.8435C39.3328 15.8488 39.285 15.8585 39.2386 15.8727C39.1701 15.8862 39.1037 15.9086 39.0411 15.9394C39.0344 15.9394 39.0261 15.9394 39.0186 15.9477C39.0111 15.956 38.9969 15.9702 38.9827 15.9794C38.9068 16.0268 38.8392 16.0865 38.7827 16.156C38.7736 16.1677 38.7669 16.1802 38.7586 16.1927C38.7034 16.2682 38.6619 16.3528 38.6361 16.4427C38.6361 16.4535 38.6361 16.4644 38.6294 16.4752C38.6089 16.5379 38.596 16.6028 38.5911 16.6685C38.5955 16.7005 38.6016 16.7322 38.6094 16.7635C38.6094 16.7727 38.6136 16.781 38.6152 16.7902C38.6293 16.8904 38.6621 16.9871 38.7119 17.0752V17.086C40.1017 19.4926 40.8332 22.2228 40.8327 25.0019C40.8327 25.4621 41.2058 25.8352 41.6661 25.8352H49.1661C49.6263 25.8352 49.9994 25.4621 49.9994 25.0019C49.9994 24.5416 49.6263 24.1685 49.1661 24.1685H42.4719C42.3626 21.858 41.7962 19.592 40.8052 17.5019H43.4511ZM46.6661 15.0019C47.5865 15.0019 48.3327 15.7481 48.3327 16.6685C48.3327 17.589 47.5865 18.3352 46.6661 18.3352C45.7456 18.3352 44.9994 17.589 44.9994 16.6685C44.9994 15.7481 45.7456 15.0019 46.6661 15.0019Z" fill="#3259BB"/>
<path d="M0.833333 25.834H8.33333C8.79357 25.834 9.16667 25.4609 9.16667 25.0007C9.16491 23.3169 9.43187 21.6437 9.9575 20.044C10.0505 19.7612 9.98562 19.4502 9.78719 19.2282C9.58877 19.0062 9.28699 18.907 8.99553 18.9678C8.70407 19.0286 8.4672 19.2404 8.37417 19.5232C7.88461 21.026 7.60147 22.5883 7.5325 24.1674H0.833333C0.373096 24.1674 0 24.5405 0 25.0007C0 25.4609 0.373096 25.834 0.833333 25.834Z" fill="#3259BB"/>
</svg>
