<svg width="50" height="54" viewBox="0 0 50 54" fill="none" xmlns="http://www.w3.org/2000/svg">
<path d="M49.6783 36.5734L41.4136 23.6179C41.12 23.1593 40.6565 22.8358 40.1248 22.7183C39.5931 22.6007 39.0365 22.6987 38.5769 22.9907L34.5194 25.5791C34.1444 25.8193 33.8575 26.1747 33.7016 26.5919C33.5457 27.009 33.5293 27.4655 33.6548 27.8928C33.4963 27.8935 33.3343 27.8909 33.1657 27.8819C32.2787 27.8334 31.7249 27.5622 31.1386 27.275C29.6287 26.5355 28.3649 26.1758 25.1736 27.8939C23.9667 26.3668 21.9993 26.8535 20.2403 27.2904C18.9157 27.6195 17.5541 27.9573 16.3028 27.6644C16.4636 27.2249 16.4696 26.7437 16.32 26.3002C16.1704 25.8568 15.8741 25.4776 15.4799 25.2253L11.4224 22.6369C10.9628 22.3449 10.4062 22.2469 9.87447 22.3645C9.34278 22.482 8.87933 22.8055 8.58563 23.264L0.321011 36.2195C0.0289521 36.6791 -0.0690272 37.2358 0.0485367 37.7675C0.166101 38.2993 0.489622 38.7627 0.948232 39.0564L5.00543 41.6447C5.38324 41.8855 5.82936 41.9962 6.27588 41.96C6.7224 41.9238 7.14487 41.7428 7.479 41.4444C7.07099 42.1141 6.81122 42.8666 6.8872 43.7489C6.97631 44.7857 7.35262 45.5541 8.00553 46.0331C8.58006 46.4547 9.34437 46.6242 10.2841 46.5393C10.4202 47.3584 10.7475 48.0161 11.2619 48.5009C11.861 49.0658 12.6941 49.3744 13.7449 49.4221C13.9505 50.1409 14.3268 50.6929 14.8687 51.0678C15.583 51.5621 16.5204 51.7166 17.7208 51.5345C18.2566 52.8114 19.3061 53.4781 20.7942 53.4781C20.8475 53.4781 20.9019 53.4771 20.9564 53.4754C21.759 53.4501 22.5417 52.8841 23.1406 52.2988C24.7997 53.4347 26.2436 54.0071 27.4518 54.0071C27.8197 54.01 28.1856 53.9512 28.5341 53.8333C29.4313 53.524 30.1125 52.8341 30.5661 51.7779C31.5807 52.0923 32.4697 52.0649 33.2154 51.6943C34.0253 51.2918 34.6267 50.5016 35.0084 49.3409C35.9838 49.4339 36.7848 49.2476 37.3967 48.7839C37.975 48.3456 38.3588 47.6797 38.5418 46.7979C39.921 46.9368 41.0857 46.5835 42.0107 45.7432C42.0566 45.7014 42.0973 45.6542 42.1318 45.6026C42.8176 44.5788 43.0641 43.5793 42.8643 42.6318C42.8074 42.3645 42.7166 42.1055 42.5942 41.8611C42.9617 42.1584 43.4202 42.3205 43.8929 42.3203C44.2833 42.3205 44.6656 42.2089 44.9945 41.9985L49.0517 39.4102C49.5103 39.1165 49.8339 38.6531 49.9514 38.1214C50.069 37.5897 49.9711 37.033 49.679 36.5734H49.6783ZM30.4653 28.6496C31.0977 28.9594 31.8847 29.3448 33.0823 29.4103C33.5571 29.4385 34.0333 29.4279 34.5063 29.3787L41.0788 39.6816C40.9904 39.7883 40.8809 39.8755 40.7571 39.9378C40.7039 39.9024 40.651 39.8668 40.5958 39.8319C40.0289 39.4789 39.1745 38.8698 38.1852 38.1655C32.9693 34.4495 29.1491 31.9274 27.4885 33.3275C23.5845 36.621 21.2169 37.4107 20.375 37.085C20.2457 37.035 20.1204 36.9471 20.0798 36.6459C19.9176 35.4286 21.4398 32.429 25.3298 29.559C28.5426 27.7082 29.35 28.1035 30.4653 28.6496ZM5.82868 40.3539L1.77126 37.7659C1.65497 37.6905 1.57302 37.5723 1.54311 37.437C1.51321 37.3017 1.53774 37.16 1.61142 37.0427L9.87604 24.0872C9.91307 24.0293 9.96119 23.9794 10.0176 23.9402C10.0741 23.9011 10.1377 23.8735 10.2049 23.8591C10.243 23.8506 10.282 23.8462 10.321 23.8462C10.4196 23.8461 10.5162 23.8743 10.5993 23.9274L14.6571 26.5157C14.774 26.5906 14.8565 26.7088 14.8865 26.8444C14.9165 26.98 14.8914 27.1219 14.8169 27.2391L6.55211 40.1943C6.47609 40.3099 6.35795 40.3913 6.22283 40.4211C6.08771 40.4509 5.94629 40.4268 5.82868 40.3539ZM8.33833 40.2398C8.34999 40.2509 8.36165 40.2618 8.37331 40.2726C8.30291 40.3515 8.23326 40.4314 8.16439 40.5124L8.33833 40.2398ZM8.91088 44.7988C8.62969 44.5925 8.46176 44.195 8.41202 43.618C8.32029 42.5522 9.15841 41.661 10.0459 40.7184C10.2236 40.5295 10.4074 40.3342 10.5803 40.1397C10.7433 39.9518 10.955 39.8126 11.1921 39.7376C11.4292 39.6625 11.6824 39.6544 11.9238 39.7143C12.2004 39.7826 12.4558 39.9185 12.667 40.1098C12.8782 40.301 13.0387 40.5417 13.134 40.8102C12.8878 41.5591 12.2437 42.9523 10.5648 44.9576C9.80935 45.0938 9.24008 45.0403 8.91088 44.7988ZM11.7527 45.9225C13.6613 43.6375 14.3688 42.0043 14.6291 41.1583C15.3 40.4713 16.4824 40.1617 17.2968 40.4828C17.8711 40.7093 18.1644 41.2094 18.1724 41.9697L13.9669 47.8976C13.2181 47.8886 12.6619 47.7174 12.3118 47.3873C11.984 47.0776 11.7967 46.5857 11.7527 45.9225ZM15.7395 49.8089C15.4609 49.6161 15.2764 49.2956 15.1766 48.8374L19.3778 42.9158C20.3102 42.7656 21.0365 42.911 21.3932 43.3284C21.7767 43.7773 21.7892 44.5916 21.4329 45.5731C20.3806 46.85 19.5484 47.8605 18.9362 48.6046C18.4157 49.2371 18.0213 49.7162 17.818 49.9623C16.8765 50.152 16.1606 50.1 15.7395 49.8089ZM20.9081 51.9454C19.946 51.9728 19.3853 51.6368 19.0879 50.8282C19.2778 50.5986 19.5932 50.2149 20.118 49.5774C20.6849 48.8888 21.4403 47.9715 22.3841 46.8256C23.04 47.0283 23.6983 47.3628 23.8388 47.9029C23.9395 48.2902 23.6109 49.2839 22.8035 50.3628C21.9987 51.4386 21.2106 51.9358 20.9081 51.9454ZM40.9125 44.6705C40.2252 45.2548 39.332 45.4269 38.1902 45.197L30.4034 39.9344L29.5463 41.2026L37.0779 46.2927C36.9848 46.9021 36.7817 47.3291 36.4715 47.5642C36.107 47.8405 35.5243 47.9031 34.7427 47.7562L28.7405 43.8403C28.6564 43.7854 28.5622 43.7476 28.4634 43.729C28.3647 43.7105 28.2632 43.7116 28.1648 43.7323C28.0665 43.753 27.9732 43.7928 27.8902 43.8496C27.8073 43.9063 27.7363 43.9788 27.6814 44.063C27.6264 44.1472 27.5886 44.2413 27.5701 44.3401C27.5516 44.4389 27.5527 44.5404 27.5734 44.6387C27.594 44.7371 27.6339 44.8304 27.6906 44.9133C27.7474 44.9963 27.8199 45.0673 27.9041 45.1222L33.5681 48.8175C33.3213 49.598 32.9744 50.1042 32.533 50.3235C32.045 50.5658 31.3553 50.4946 30.4827 50.1144L26.9398 47.5961C26.858 47.5365 26.7651 47.4938 26.6667 47.4704C26.5682 47.447 26.4661 47.4433 26.3662 47.4596C26.2663 47.476 26.1706 47.5119 26.0848 47.5655C25.9989 47.619 25.9244 47.689 25.8658 47.7715C25.8072 47.854 25.7655 47.9473 25.7431 48.046C25.7208 48.1447 25.7183 48.2469 25.7357 48.3466C25.7531 48.4463 25.7901 48.5415 25.8446 48.6269C25.899 48.7121 25.9699 48.7858 26.053 48.8435L29.1979 51.0791C28.917 51.7774 28.527 52.2161 28.0344 52.3863C27.1559 52.6887 25.8163 52.2528 24.1401 51.1274C24.6168 50.4592 25.6552 48.8074 25.3198 47.5179C25.0743 46.5744 24.3198 45.878 23.0727 45.4415C23.3845 44.1826 23.2092 43.0982 22.5564 42.3343C21.9191 41.5883 20.9055 41.2476 19.6508 41.3425C19.4724 40.2592 18.8466 39.449 17.8578 39.0592C16.7008 38.6029 15.2726 38.8212 14.1852 39.5467C13.7339 38.88 13.0486 38.4072 12.2651 38.222C11.7564 38.1006 11.2242 38.1203 10.7259 38.2789C10.2275 38.4375 9.78187 38.7289 9.43687 39.122C9.429 39.1309 9.42025 39.14 9.41227 39.149C9.33251 39.0737 9.25744 38.9936 9.18749 38.9091L15.4931 29.0245C17.2576 29.6074 19.0988 29.1512 20.6097 28.7761C22.4001 28.3314 23.3124 28.1827 23.8777 28.7425C20.4405 31.4383 18.2778 34.7065 18.5633 36.8483C18.6701 37.6489 19.1176 38.2401 19.8236 38.5129C21.5702 39.1877 24.5621 37.7992 28.476 34.4976C28.4805 34.4934 29.0184 34.1462 31.7058 35.6833C33.5201 36.7209 35.6146 38.2131 37.2975 39.412C38.3077 40.1317 39.1801 40.7533 39.7823 41.1285C40.7016 41.7108 41.2346 42.3229 41.3665 42.9482C41.4745 43.4623 41.3262 44.0267 40.9125 44.6705ZM48.4562 37.7909C48.4417 37.8581 48.4141 37.9217 48.375 37.9782C48.3358 38.0346 48.2858 38.0827 48.2279 38.1198L44.1706 40.7081C44.053 40.781 43.9115 40.805 43.7764 40.7752C43.6413 40.7453 43.5232 40.6639 43.4472 40.5483L35.1828 27.5928C35.1091 27.4754 35.0845 27.3337 35.1144 27.1984C35.1443 27.063 35.2263 26.9449 35.3426 26.8695L39.4 24.2811C39.4831 24.228 39.5797 24.1999 39.6783 24.2C39.7173 24.2 39.7562 24.2043 39.7944 24.2128C39.8616 24.2272 39.9252 24.2548 39.9817 24.294C40.0381 24.3331 40.0863 24.3831 40.1232 24.4411L48.3879 37.3965C48.4247 37.4545 48.4497 37.5192 48.4615 37.5869C48.4732 37.6546 48.4714 37.7239 48.4562 37.7909ZM12.2882 27.2051L12.1542 27.4128C12.0441 27.5833 11.8707 27.703 11.6722 27.7456C11.4738 27.7883 11.2665 27.7503 11.096 27.6401C10.9256 27.53 10.8059 27.3566 10.7632 27.1581C10.7206 26.9597 10.7586 26.7524 10.8687 26.5819L11.0028 26.3742C11.0569 26.2889 11.1274 26.2152 11.2102 26.1573C11.293 26.0994 11.3864 26.0585 11.4851 26.0369C11.5838 26.0152 11.6858 26.0134 11.7852 26.0314C11.8846 26.0494 11.9795 26.0869 12.0643 26.1417C12.1492 26.1966 12.2223 26.2677 12.2795 26.3509C12.3368 26.4342 12.3769 26.5279 12.3977 26.6268C12.4186 26.7257 12.4196 26.8277 12.4008 26.9269C12.382 27.0262 12.3437 27.1207 12.2882 27.2051ZM38.9146 26.5819C38.97 26.6664 39.0081 26.7609 39.0268 26.8601C39.0454 26.9594 39.0443 27.0613 39.0234 27.1601C39.0025 27.2588 38.9623 27.3525 38.905 27.4357C38.8478 27.5188 38.7746 27.5898 38.6898 27.6446C38.605 27.6994 38.5102 27.7368 38.4108 27.7548C38.3115 27.7727 38.2095 27.7708 38.1109 27.7492C38.0123 27.7276 37.9189 27.6867 37.8362 27.6289C37.7534 27.571 37.6829 27.4974 37.6288 27.4122L37.4949 27.2045C37.4403 27.12 37.403 27.0257 37.3849 26.9268C37.3669 26.8279 37.3685 26.7265 37.3896 26.6282C37.4108 26.53 37.4511 26.4369 37.5082 26.3542C37.5654 26.2715 37.6383 26.2009 37.7227 26.1464C37.8071 26.0919 37.9015 26.0545 38.0003 26.0365C38.0992 26.0184 38.2007 26.02 38.2989 26.0412C38.3972 26.0623 38.4903 26.1026 38.573 26.1598C38.6557 26.2169 38.7263 26.2898 38.7808 26.3742L38.9146 26.5819ZM21.303 14.6944C21.7612 15.211 22.194 15.6988 22.6334 16.1381C23.0985 16.6021 23.7286 16.8627 24.3855 16.8627C25.0425 16.8627 25.6726 16.6021 26.1376 16.1381C27.062 15.2138 27.9949 14.2709 28.8973 13.3593C29.7997 12.4476 30.7298 11.5073 31.6513 10.5858C32.1158 10.1213 32.3767 9.49141 32.3766 8.83459C32.3766 8.17777 32.1157 7.54786 31.6512 7.08343C31.1868 6.61901 30.5568 6.35811 29.9 6.35813C29.2432 6.35815 28.6133 6.61909 28.1489 7.08354L24.4838 10.7485L23.4002 9.66524C22.9355 9.20055 22.3052 8.93949 21.648 8.93949C20.9909 8.93949 20.3606 9.20055 19.8959 9.66524C19.4313 10.1299 19.1702 10.7602 19.1702 11.4173C19.1702 12.0745 19.4313 12.7048 19.8959 13.1695C20.3728 13.646 20.8457 14.179 21.303 14.6944ZM20.9782 10.7471C21.156 10.5697 21.3969 10.4701 21.6481 10.4701C21.8993 10.4701 22.1402 10.5697 22.318 10.7471L23.9428 12.3718C24.0138 12.4429 24.0982 12.4992 24.191 12.5377C24.2839 12.5762 24.3834 12.596 24.4839 12.596C24.5844 12.596 24.684 12.5762 24.7768 12.5377C24.8697 12.4992 24.954 12.4429 25.0251 12.3718L29.2307 8.16568C29.3185 8.07783 29.4228 8.00814 29.5376 7.96059C29.6524 7.91304 29.7754 7.88857 29.8996 7.88856C30.0239 7.88856 30.1469 7.91302 30.2617 7.96056C30.3764 8.0081 30.4807 8.07778 30.5686 8.16563C30.6564 8.25347 30.7261 8.35776 30.7737 8.47254C30.8212 8.58732 30.8457 8.71034 30.8457 8.83457C30.8457 8.95881 30.8212 9.08183 30.7737 9.19661C30.7262 9.3114 30.6565 9.41569 30.5686 9.50354C29.6443 10.4278 28.7114 11.3707 27.809 12.2825C26.9066 13.1943 25.9765 14.1343 25.0552 15.0558C24.8773 15.2332 24.6364 15.3327 24.3853 15.3327C24.1341 15.3327 23.8932 15.2332 23.7154 15.0558C23.3082 14.6486 22.8901 14.1775 22.4471 13.6783C21.9749 13.1461 21.4867 12.5959 20.9774 12.0865C20.801 11.9082 20.702 11.6675 20.702 11.4166C20.702 11.1658 20.801 10.925 20.9774 10.7467L20.9782 10.7471ZM25.7733 23.2215C28.0696 23.2215 30.3145 22.5405 32.2238 21.2647C34.1332 19.9889 35.6214 18.1756 36.5002 16.054C37.379 13.9324 37.6089 11.5979 37.1609 9.34561C36.7129 7.09334 35.6071 5.02451 33.9833 3.40071C32.3595 1.77692 30.2907 0.671106 28.0384 0.223102C25.7861 -0.224901 23.4516 0.00503065 21.33 0.88382C19.2084 1.76261 17.3951 3.25079 16.1193 5.16017C14.8435 7.06954 14.1625 9.31436 14.1625 11.6108C14.166 14.689 15.3903 17.6402 17.567 19.8169C19.7437 21.9935 22.695 23.2178 25.7733 23.2212V23.2215ZM25.7733 1.53149C27.7669 1.53149 29.7158 2.12268 31.3735 3.2303C33.0311 4.33792 34.3231 5.91222 35.0861 7.75412C35.849 9.59603 36.0486 11.6228 35.6597 13.5782C35.2708 15.5335 34.3107 17.3296 32.901 18.7394C31.4912 20.1491 29.6951 21.1091 27.7398 21.4981C25.7844 21.887 23.7577 21.6874 21.9157 20.9245C20.0738 20.1615 18.4995 18.8695 17.3919 17.2118C16.2843 15.5542 15.6931 13.6053 15.6931 11.6116C15.6959 8.93904 16.7588 6.37671 18.6486 4.48688C20.5384 2.59704 23.1007 1.53405 25.7733 1.53116V1.53149Z" fill="#3259BB"/>
</svg>
