<svg width="59" height="59" viewBox="0 0 59 59" fill="none" xmlns="http://www.w3.org/2000/svg">
<g clip-path="url(#clip0_1377_33067)">
<path d="M32.7173 23.6621C32.7173 24.1393 33.1044 24.5264 33.5815 24.5264H35.022V34.7822H24.7661V24.5264H29.894C30.3712 24.5264 30.7583 24.1393 30.7583 23.6621C30.7583 23.185 30.3712 22.7979 29.894 22.7979H24.3628C23.6322 22.7979 23.0376 23.3925 23.0376 24.123V35.1855C23.0376 35.9161 23.6322 36.5107 24.3628 36.5107H35.4253C36.1559 36.5107 36.7505 35.9161 36.7505 35.1855V24.123C36.7505 23.3925 36.1559 22.7979 35.4253 22.7979H33.5815C33.1044 22.7979 32.7173 23.185 32.7173 23.6621Z" fill="#9E79F7"/>
<path d="M5.17554 3.61035C4.44497 3.61035 3.85034 4.20498 3.85034 4.93555V10.9277C3.85034 11.6583 4.44497 12.2529 5.17554 12.2529H11.1677C11.8983 12.2529 12.4929 11.6583 12.4929 10.9277V4.93555C12.4929 4.20498 11.8983 3.61035 11.1677 3.61035H5.17554ZM10.7644 10.5244H5.57886V5.33887H10.7644V10.5244Z" fill="#9E79F7"/>
<path d="M11.1677 47.0537H5.17554C4.44497 47.0537 3.85034 47.6483 3.85034 48.3789V54.3711C3.85034 55.1017 4.44497 55.6963 5.17554 55.6963H11.1677C11.8983 55.6963 12.4929 55.1017 12.4929 54.3711V48.3789C12.4929 47.6483 11.8983 47.0537 11.1677 47.0537ZM10.7644 53.9678H5.57886V48.7822H10.7644V53.9678Z" fill="#9E79F7"/>
<path d="M46.0837 15.71H57.1462C58.3855 15.71 59.3933 14.7021 59.3933 13.4629V2.40039C59.3933 1.16117 58.3855 0.15332 57.1462 0.15332H46.0837C44.8445 0.15332 43.8367 1.16117 43.8367 2.40039V7.06738H33.4656C32.9884 7.06738 32.6013 7.4545 32.6013 7.93164V19.3398H27.8767V15.9647C28.8828 15.6078 29.6052 14.6472 29.6052 13.5205C29.6052 12.0909 28.4421 10.9277 27.0125 10.9277C25.5828 10.9277 24.4197 12.0909 24.4197 13.5205C24.4197 14.6472 25.1421 15.6078 26.1482 15.9647V19.3398H22.2869C20.7943 19.3398 19.5798 20.5543 19.5798 22.047V27.0605H9.03589V15.71H13.7029C14.9421 15.71 15.95 14.7021 15.95 13.4629V11.2158C15.95 10.7387 15.5628 10.3516 15.0857 10.3516C14.6086 10.3516 14.2214 10.7387 14.2214 11.2158V13.4629C14.2214 13.7487 13.9887 13.9814 13.7029 13.9814H2.64038C2.35455 13.9814 2.12183 13.7487 2.12183 13.4629V2.40039C2.12183 2.11456 2.35455 1.88184 2.64038 1.88184H13.7029C13.9887 1.88184 14.2214 2.11456 14.2214 2.40039V7.52832C14.2214 8.00546 14.6086 8.39258 15.0857 8.39258C15.5628 8.39258 15.95 8.00546 15.95 7.52832V2.40039C15.95 1.16117 14.9421 0.15332 13.7029 0.15332H2.64038C1.40116 0.15332 0.393311 1.16117 0.393311 2.40039V13.4629C0.393311 14.7021 1.40116 15.71 2.64038 15.71H7.30737V27.9248C7.30737 28.4019 7.69449 28.7891 8.17163 28.7891H19.5798V32.4766H18.3942C18.0372 31.4705 17.0766 30.748 15.95 30.748C14.5203 30.748 13.3572 31.9112 13.3572 33.3408C13.3572 34.7704 14.5203 35.9336 15.95 35.9336C17.0766 35.9336 18.0372 35.2111 18.3942 34.2051H19.5798V37.2597C19.5798 38.7523 20.7943 39.9668 22.2869 39.9668H26.1482V50.2326H15.95V45.8438C15.95 44.6045 14.9421 43.5967 13.7029 43.5967H2.64038C1.40116 43.5967 0.393311 44.6045 0.393311 45.8438V56.9062C0.393311 58.1455 1.40116 59.1533 2.64038 59.1533H13.7029C14.9421 59.1533 15.95 58.1455 15.95 56.9062V51.9611H27.0125C27.4896 51.9611 27.8767 51.574 27.8767 51.0968V39.9668H32.6013V43.8028C31.5953 44.1598 30.8728 45.1204 30.8728 46.2471C30.8728 47.6767 32.036 48.8398 33.4656 48.8398C34.8952 48.8398 36.0583 47.6767 36.0583 46.2471C36.0583 45.1204 35.3359 44.1598 34.3298 43.8028V39.9668H37.4997C38.9923 39.9668 40.2068 38.7523 40.2068 37.2597V31.376H50.7521V43.5967H46.0837C44.8445 43.5967 43.8367 44.6045 43.8367 45.8438V48.0908C43.8367 48.568 44.2238 48.9551 44.7009 48.9551C45.1781 48.9551 45.5652 48.568 45.5652 48.0908V45.8438C45.5652 45.5579 45.7979 45.3252 46.0837 45.3252H57.1462C57.4321 45.3252 57.6648 45.5579 57.6648 45.8438V56.9062C57.6648 57.1921 57.4321 57.4248 57.1462 57.4248H46.0837C45.7979 57.4248 45.5652 57.1921 45.5652 56.9062V51.7639C45.5652 51.2868 45.1781 50.8997 44.7009 50.8997C44.2238 50.8997 43.8367 51.2868 43.8367 51.7639V56.9062C43.8367 58.1455 44.8445 59.1533 46.0837 59.1533H57.1462C58.3855 59.1533 59.3933 58.1455 59.3933 56.9062V45.8438C59.3933 44.6045 58.3855 43.5967 57.1462 43.5967H52.4806V30.5117C52.4806 30.0346 52.0935 29.6475 51.6163 29.6475H40.2068V26.7148H44.3251C44.682 27.7209 45.6426 28.4434 46.7693 28.4434C48.1989 28.4434 49.3621 27.2802 49.3621 25.8506C49.3621 24.421 48.1989 23.2578 46.7693 23.2578C45.6426 23.2578 44.682 23.9803 44.3251 24.9863H40.2068V22.047C40.2068 20.5543 38.9923 19.3398 37.4997 19.3398H34.3298V8.7959H43.8367V13.4629C43.8367 14.7021 44.8445 15.71 46.0837 15.71ZM27.0125 12.6562C27.4891 12.6562 27.8767 13.0438 27.8767 13.5205C27.8767 13.9972 27.4891 14.3848 27.0125 14.3848C26.5358 14.3848 26.1482 13.9972 26.1482 13.5205C26.1482 13.0438 26.5358 12.6562 27.0125 12.6562ZM15.95 34.2051C15.4733 34.2051 15.0857 33.8175 15.0857 33.3408C15.0857 32.8641 15.4733 32.4766 15.95 32.4766C16.4266 32.4766 16.8142 32.8641 16.8142 33.3408C16.8142 33.8175 16.4266 34.2051 15.95 34.2051ZM14.2214 56.9062C14.2214 57.1921 13.9887 57.4248 13.7029 57.4248H2.64038C2.35455 57.4248 2.12183 57.1921 2.12183 56.9062V45.8438C2.12183 45.5579 2.35455 45.3252 2.64038 45.3252H13.7029C13.9887 45.3252 14.2214 45.5579 14.2214 45.8438V56.9062ZM33.4656 47.1113C32.9889 47.1113 32.6013 46.7238 32.6013 46.2471C32.6013 45.7704 32.9889 45.3828 33.4656 45.3828C33.9423 45.3828 34.3298 45.7704 34.3298 46.2471C34.3298 46.7238 33.9423 47.1113 33.4656 47.1113ZM46.7693 24.9863C47.246 24.9863 47.6336 25.3739 47.6336 25.8506C47.6336 26.3273 47.246 26.7148 46.7693 26.7148C46.2926 26.7148 45.905 26.3273 45.905 25.8506C45.905 25.3739 46.2926 24.9863 46.7693 24.9863ZM38.4783 22.047V37.2597C38.4783 37.7994 38.0394 38.2383 37.4997 38.2383H22.2869C21.7472 38.2383 21.3083 37.7994 21.3083 37.2597V22.047C21.3083 21.5072 21.7472 21.0684 22.2869 21.0684H37.4997C38.0394 21.0684 38.4783 21.5072 38.4783 22.047ZM46.0837 1.88184H57.1462C57.4321 1.88184 57.6648 2.11456 57.6648 2.40039V13.4629C57.6648 13.7487 57.4321 13.9814 57.1462 13.9814H46.0837C45.7979 13.9814 45.5652 13.7487 45.5652 13.4629V7.95415C45.5656 7.9465 45.5665 7.93929 45.5665 7.93164C45.5665 7.92399 45.5656 7.91679 45.5652 7.90913V2.40039C45.5652 2.11456 45.7979 1.88184 46.0837 1.88184Z" fill="#9E79F7"/>
<path d="M48.6189 12.2529H54.6111C55.3417 12.2529 55.9363 11.6583 55.9363 10.9277V4.93555C55.9363 4.20498 55.3417 3.61035 54.6111 3.61035H48.6189C47.8883 3.61035 47.2937 4.20498 47.2937 4.93555V10.9277C47.2937 11.6583 47.8883 12.2529 48.6189 12.2529ZM49.0222 5.33887H54.2078V10.5244H49.0222V5.33887Z" fill="#9E79F7"/>
<path d="M54.6111 55.6963C55.3417 55.6963 55.9363 55.1017 55.9363 54.3711V48.3789C55.9363 47.6483 55.3417 47.0537 54.6111 47.0537H48.6189C47.8883 47.0537 47.2937 47.6483 47.2937 48.3789V54.3711C47.2937 55.1017 47.8883 55.6963 48.6189 55.6963H54.6111ZM49.0222 48.7822H54.2078V53.9678H49.0222V48.7822Z" fill="#9E79F7"/>
</g>
<defs>
<clipPath id="clip0_1377_33067">
<rect width="59" height="59" fill="white"/>
</clipPath>
</defs>
</svg>
