<svg width="191" height="54" viewBox="0 0 191 54" fill="none" xmlns="http://www.w3.org/2000/svg">
<path d="M71.6912 12.8887C64.1659 13.0392 57.9951 19.3605 57.9951 26.7353C58.1456 34.4111 64.3164 40.5819 71.9922 40.5819C79.6681 40.5819 85.9893 34.1101 85.8388 26.4343C85.6883 18.9089 79.5176 12.8887 71.6912 12.8887ZM71.9922 32.304C68.8316 32.304 66.4235 29.8959 66.574 26.7353C66.574 23.8757 69.1326 21.317 71.9922 21.1665C75.1529 21.1665 77.7115 23.7251 77.7115 26.8858C77.561 30.0464 75.1529 32.304 71.9922 32.304Z" fill="white"/>
<path d="M134.603 26.7363C134.603 23.7262 134.603 20.8665 134.603 17.8564C134.603 17.5554 134.603 17.4049 134.603 17.1039C134.452 16.8028 134.151 16.6523 133.549 16.6523C132.947 16.6523 132.496 16.8028 132.345 17.1039C132.345 17.5554 132.345 18.0069 132.345 18.4584C132.345 24.1777 132.345 29.8969 132.345 35.6162C132.345 35.9172 131.894 36.5192 133.248 36.5192C134.151 36.5192 134.753 36.5192 134.603 35.7667C134.603 32.9071 134.603 29.8969 134.603 26.7363Z" fill="#96D4C8"/>
<path d="M126.476 26.7363C126.476 23.7262 126.476 20.716 126.476 17.7059C126.476 17.2544 126.626 16.6523 125.422 16.6523C124.218 16.6523 124.218 17.1039 124.218 17.7059C124.218 23.7262 124.218 29.7464 124.218 35.7667C124.218 36.2182 124.067 36.6697 125.271 36.6697C126.476 36.6697 126.476 36.2182 126.476 35.7667C126.476 32.7566 126.476 29.7464 126.476 26.7363Z" fill="#96D4C8"/>
<path d="M128.282 26.7352C128.282 29.7453 128.282 32.7555 128.282 35.7656C128.282 36.2171 128.131 36.6686 129.335 36.6686C130.389 36.6686 130.539 36.3676 130.539 35.9161C130.539 29.8958 130.539 23.7251 130.539 17.7048C130.539 17.2533 130.539 16.8018 129.486 16.8018C128.282 16.8018 128.282 17.2533 128.282 17.7048C128.282 20.7149 128.282 23.7251 128.282 26.7352Z" fill="#96D4C8"/>
<path d="M125.723 14.6947C126.174 15.1462 126.927 15.5977 127.679 15.2967C128.733 14.8452 129.786 14.8452 130.99 15.1462C131.743 15.4472 132.495 14.9957 132.947 14.5442C133.398 14.0927 132.796 13.6412 132.495 13.1896C131.743 11.6846 130.99 10.1795 130.087 8.82495C129.636 8.07241 129.184 7.92191 128.733 8.67444C127.83 10.4805 126.927 12.2866 125.873 14.2432C125.873 14.3937 125.873 14.5442 125.723 14.6947Z" fill="white"/>
<path d="M129.486 41.6366C130.84 41.6366 132.195 41.6366 133.7 41.6366C134.603 41.6366 134.754 41.1851 134.754 40.4326C134.754 39.68 134.754 39.2285 133.7 39.2285C130.84 39.2285 127.981 39.2285 125.272 39.2285C124.369 39.2285 124.218 39.8305 124.369 40.4326C124.369 41.1851 124.519 41.6366 125.422 41.6366C126.626 41.4861 127.981 41.6366 129.486 41.6366Z" fill="white"/>
<path d="M90.354 32.3054C90.354 28.0912 89.9025 23.877 92.0096 19.9639C94.5682 15.1476 100.588 12.1375 106.157 13.0406C112.027 14.0941 116.843 18.7598 117.445 24.3285C118.047 29.1448 117.596 33.8105 117.746 38.6267C117.746 39.6802 117.295 39.9812 116.392 39.9812C114.586 39.9812 112.78 39.9812 110.973 39.9812C109.619 39.9812 109.318 39.5297 109.318 38.1752C109.318 34.262 109.318 30.1983 109.318 26.2851C109.318 24.178 108.264 22.5225 106.157 21.6194C104.05 20.7164 102.094 21.1679 100.287 22.673C98.9329 23.7265 98.6319 25.2316 98.6319 26.8872C98.6319 30.6498 98.6319 34.262 98.6319 38.0247C98.6319 39.5297 98.3309 40.2822 96.5248 40.1317C94.4177 39.9812 91.8591 41.0348 90.5045 39.6802C89.3005 38.4762 90.2035 36.0681 90.2035 34.1115C90.354 33.3589 90.354 32.7569 90.354 32.3054Z" fill="white"/>
<path d="M156.275 12.8887C159.286 13.0392 162.597 14.6948 165.456 17.7049C166.209 18.4574 166.058 19.0594 165.306 19.511C164.403 20.113 163.65 20.5645 162.747 21.1665C160.941 22.3706 159.587 23.8757 157.028 21.7686C155.071 20.113 151.61 21.317 150.105 23.4241C148.6 25.5312 148.901 28.6919 150.707 30.4979C152.814 32.4545 155.974 32.7555 158.082 30.9495C158.985 30.1969 159.587 30.1969 160.49 30.799C161.844 31.8525 163.199 33.0566 164.553 33.8091C165.908 34.5616 165.456 35.1637 164.704 36.0667C159.888 41.6354 149.804 41.7859 144.686 36.2172C140.623 31.8525 139.569 26.5848 141.827 21.016C144.084 16.0493 149.352 12.8887 156.275 12.8887Z" fill="white"/>
<path d="M180.056 12.8887C183.367 12.8887 186.076 13.7917 188.635 15.4473C189.538 16.0493 189.839 16.5008 189.086 17.4039C188.785 17.8554 188.484 18.3069 188.334 18.6079C187.581 19.6615 186.979 21.317 185.926 21.7686C184.872 22.3706 183.969 20.414 182.765 20.2635C182.765 20.2635 182.614 20.2635 182.614 20.113C181.109 19.6615 179.002 18.4574 178.25 20.414C177.497 22.3706 180.056 22.3706 181.26 22.9726C182.313 23.5746 183.668 23.8757 184.872 24.3272C189.086 26.1333 191.043 28.9929 190.591 32.605C190.14 36.3677 187.581 39.2273 183.367 40.1304C178.701 41.1839 174.337 40.1304 170.273 37.7223C168.918 36.9697 168.918 36.2172 169.972 35.0131C171.025 33.9596 171.477 32.1535 172.681 31.5515C174.036 30.799 175.089 32.9061 176.444 33.2071C177.798 33.5081 179.002 34.1101 180.357 33.9596C181.109 33.8091 182.012 33.6586 182.163 32.7555C182.313 31.702 181.561 31.401 180.808 31.1C178.852 30.1969 176.745 29.7454 174.788 28.8424C171.477 27.1868 169.821 24.6282 169.821 21.016C169.821 17.5544 172.229 14.8453 175.992 13.6412C177.347 13.0392 178.852 12.8887 180.056 12.8887Z" fill="white"/>
<path opacity="0.5" d="M73.799 21.469C73.197 21.3185 72.5949 21.168 71.8424 21.168H71.6919C71.8424 21.3185 72.1434 21.469 72.4444 21.469H73.799Z" fill="#96D4C8"/>
<path d="M85.2369 13.0391H73.0459C78.3136 13.4906 82.8288 16.8017 84.7854 21.6179H85.2369C85.839 21.6179 86.441 21.1664 86.441 20.4139V14.2431C86.441 13.4906 85.839 13.0391 85.2369 13.0391Z" fill="#96D4C8"/>
<path opacity="0.5" d="M73.0458 13.0391H72.4438C71.8418 13.0391 71.2397 13.4906 71.2397 14.2431V20.4139C71.2397 20.7149 71.3903 21.0159 71.5408 21.3169H71.6913C72.4438 21.3169 73.0458 21.4674 73.6478 21.6179H84.6348C82.8288 16.8017 78.4641 13.4906 73.0458 13.0391Z" fill="#96D4C8"/>
<path d="M40.5364 12.8904C33.0111 13.0409 26.8403 19.3622 26.8403 26.737C26.9908 34.4128 33.1616 40.5836 40.8374 40.5836C48.5133 40.5836 54.8346 34.1118 54.6841 26.436C54.5335 18.9107 48.2123 12.7399 40.5364 12.8904ZM40.6869 32.3057C37.5263 32.3057 35.1182 29.8976 35.2687 26.737C35.2687 23.8774 37.8273 21.3188 40.6869 21.1683C43.8476 21.1683 46.4062 23.7269 46.4062 26.8875C46.4062 29.8976 43.8476 32.3057 40.6869 32.3057Z" fill="white"/>
<path d="M25.0346 38.1744C20.8204 34.8633 16.7568 31.4016 12.5426 28.0905C11.188 27.0369 11.3385 26.4349 12.5426 25.5319C15.4022 23.2743 18.2618 21.0167 20.9709 18.6086C22.9275 17.1035 24.7336 15.4479 26.6902 13.9428C26.6902 13.7923 26.5397 13.6418 26.5397 13.3408C24.1316 13.3408 21.573 13.4913 19.1649 13.3408C17.3588 13.3408 16.0042 13.7923 14.6497 14.9964C13.2951 16.2004 10.4355 18.3075 10.4355 18.3075L8.62939 19.6621V33.5087C9.83345 34.5623 12.8436 36.9704 14.3486 38.1744C15.1012 38.7764 15.8537 39.6795 16.9073 39.6795C20.0679 39.83 23.2285 39.6795 26.6902 39.6795C26.2387 38.9269 25.6366 38.6259 25.0346 38.1744Z" fill="#96D4C8"/>
<g opacity="0.5">
<path d="M8.47854 19.8125C8.32803 19.8125 8.32803 19.963 8.17753 19.963L0.200676 26.1338C0.200676 26.1338 -0.250844 26.5853 0.200676 27.3378L7.87651 33.0571C7.87651 33.0571 8.02702 33.2076 8.47854 33.5086V19.8125Z" fill="#96D4C8"/>
</g>
<path d="M8.47854 14.2441V13.4916C8.47854 11.0835 8.47854 8.82588 8.47854 6.41778C8.47854 -0.204513 8.47854 -0.204513 1.70574 0.0965006C0.501689 0.0965006 0.050169 0.548021 0.050169 1.75207C0.050169 9.87943 0.200675 18.1573 0.200675 26.2847C0.200675 26.2847 -0.250844 26.7362 0.200675 27.4887C0.200675 31.1009 0.200676 34.8635 0.050169 38.4757C0.050169 39.6797 0.652195 39.9808 1.70574 39.9808C3.36131 39.9808 5.01689 39.9808 6.67246 39.9808C7.87651 39.9808 8.47854 39.6797 8.47854 38.3252C8.47854 38.1747 8.47854 38.1747 8.47854 38.0242V19.8129C8.62905 17.8563 8.47854 16.0502 8.47854 14.2441Z" fill="white"/>
<path opacity="0.5" d="M8.47854 19.8135C8.32803 19.8135 8.32803 19.964 8.17753 19.964L0.200676 26.1348C0.200676 26.1348 -0.250844 26.5863 0.200676 27.3388L7.87651 33.0581C7.87651 33.0581 8.02702 33.2086 8.47854 33.5096V19.8135Z" fill="#96D4C8"/>
<path d="M81.1729 50.8164C80.4203 49.1608 79.6678 47.5052 79.0658 45.6992C78.7648 44.6456 78.3132 44.6456 77.4102 44.7961C75.4536 45.3982 73.6475 45.5487 71.691 45.6992C69.7344 45.6992 67.7778 45.3982 65.9717 44.7961C65.0687 44.4951 64.6172 44.6456 64.3161 45.6992C63.7141 47.5052 62.9616 49.1608 62.209 50.8164C61.7575 51.7194 62.0585 52.3215 63.1121 52.6225C65.9717 53.5255 68.8313 53.977 71.691 53.977C74.7011 54.1275 77.4102 53.5255 80.2698 52.6225C81.3234 52.3215 81.6244 51.8699 81.1729 50.8164Z" fill="white"/>
</svg>
