<svg width="56" height="68" viewBox="0 0 56 68" fill="none" xmlns="http://www.w3.org/2000/svg">
<path d="M44.2055 29.2464C44.7378 29.3549 45.2566 29.0117 45.3655 28.4784C45.6084 27.2879 45.7314 26.063 45.7314 24.8372C45.7314 14.8726 37.649 6.76562 27.7142 6.76562C17.7795 6.76562 9.69702 14.8726 9.69702 24.8372C9.69702 34.8018 17.7795 42.9088 27.7142 42.9088C34.4858 42.9088 40.6239 39.157 43.7329 33.1177C43.9819 32.6339 43.7929 32.0392 43.3106 31.7895C42.8284 31.5396 42.2354 31.7295 41.9865 32.213C39.2162 37.5943 33.7474 40.9373 27.7144 40.9373C18.8634 40.9373 11.6627 33.7148 11.6627 24.8371C11.6627 15.9594 18.8634 8.7369 27.7144 8.7369C36.5653 8.7369 43.7661 15.9594 43.7661 24.8371C43.7661 25.9303 43.6564 27.0223 43.4399 28.0829C43.331 28.6164 43.6739 29.1372 44.2055 29.2464Z" fill="#9E79F7"/>
<path d="M38.6483 21.1719C38.5324 20.8143 38.224 20.5541 37.853 20.5007L31.4481 19.5805L28.5962 13.7548C28.2705 13.0309 27.1575 13.031 26.8319 13.7548L23.98 19.5804L17.5751 20.5006C16.787 20.5877 16.4447 21.65 17.0299 22.1835L21.6723 26.7042L20.5656 33.0984C20.4046 33.8746 21.3038 34.5327 21.9929 34.1387L27.714 31.1069L33.4351 34.1387C34.1231 34.5327 35.0237 33.8746 34.8624 33.0984L33.7557 26.7042L38.3981 22.1835C38.6671 21.9218 38.7641 21.5294 38.6483 21.1719ZM32.0141 25.6526C31.781 25.8796 31.6749 26.2073 31.7303 26.5284L32.5835 31.4578L28.173 29.1206C27.8858 28.9684 27.5421 28.9684 27.2548 29.1206L22.8444 31.4578L23.6975 26.5284C23.7531 26.2073 23.6468 25.8796 23.4137 25.6526L19.8348 22.1675L24.7725 21.4579C25.0941 21.4117 25.3722 21.2092 25.5154 20.9166L27.7139 16.4257L29.9124 20.9166C30.0556 21.2091 30.3336 21.4117 30.6552 21.4579L35.593 22.1675L32.0141 25.6526Z" fill="#9E79F7"/>
<path d="M55.2932 58.5924L45.6877 41.9049C49.8937 37.4513 52.4773 31.4415 52.4773 24.8374C52.4771 11.142 41.3687 0 27.7144 0C23.5133 0 19.363 1.07461 15.7117 3.10774C15.2371 3.37204 15.066 3.97204 15.3295 4.44809C15.5928 4.92387 16.1911 5.09553 16.6656 4.83149C20.0257 2.96046 23.8463 1.97154 27.7144 1.97154C40.2849 1.97154 50.5116 12.2293 50.5116 24.8375C50.5116 37.4459 40.2849 47.7037 27.7144 47.7037C15.1439 47.7037 4.91722 37.4459 4.91722 24.8374C4.91722 18.0734 7.87951 11.6935 13.0448 7.33372C13.46 6.98321 13.5133 6.36132 13.1639 5.94489C12.8144 5.52833 12.1945 5.47461 11.7792 5.82539C6.16925 10.5606 2.95171 17.4902 2.95171 24.8374C2.95171 31.4528 5.54396 37.472 9.76261 41.9279L7.0422 46.654C6.39031 47.7481 8.11524 48.7597 8.74434 47.6397L11.2173 43.3435C14.176 45.9997 17.7726 47.9539 21.7453 48.9439L13.2649 63.6766L11.0956 56.8286C10.9419 56.3432 10.4445 56.0554 9.94841 56.1643L2.95105 57.7039L6.45098 51.6236C6.72235 51.1521 6.56131 50.5492 6.09129 50.2771C5.62114 50.0049 5.02022 50.1663 4.74884 50.6378L0.13539 58.6526C-0.302265 59.3567 0.392741 60.3134 1.19703 60.1084L9.49372 58.2827L12.0658 66.4024C12.2906 67.2012 13.4608 67.3313 13.8535 66.5967L23.7753 49.3595C25.0584 49.5662 26.3737 49.6751 27.714 49.6751C29.0654 49.6751 30.3912 49.5642 31.6844 49.3543L37.6434 59.7069C37.8254 60.0232 38.1558 60.1999 38.4954 60.1999C38.6621 60.1999 38.8311 60.1573 38.9859 60.0677C39.4559 59.7954 39.6169 59.1926 39.3456 58.7212L33.7134 48.9364C37.6844 47.9415 41.2786 45.9829 44.2339 43.3231L52.4771 57.6438L45.4798 56.1041C44.9837 55.995 44.4864 56.283 44.3326 56.7685L42.1633 63.6165L41.6386 62.705C41.3673 62.2335 40.7662 62.0721 40.2962 62.3443C39.8262 62.6165 39.6651 63.2193 39.9365 63.6908L41.5746 66.5367C41.9674 67.2714 43.1374 67.141 43.3623 66.3424L45.9343 58.2227L54.231 60.0484C55.0361 60.2526 55.7306 59.2965 55.2932 58.5924Z" fill="#9E79F7"/>
</svg>
