<svg width="50" height="50" viewBox="0 0 50 50" fill="none" xmlns="http://www.w3.org/2000/svg">
<mask id="mask0_957_30450" style="mask-type:luminance" maskUnits="userSpaceOnUse" x="0" y="0" width="50" height="50">
<path d="M49 49V1H1V49H49Z" fill="white" stroke="white" stroke-width="2"/>
</mask>
<g mask="url(#mask0_957_30450)">
<path d="M25.0015 28.1754C23.2471 28.1754 21.8249 26.7531 21.8249 24.9986C21.8249 23.2441 23.2471 21.8219 25.0015 21.8219C26.756 21.8219 28.1783 23.2441 28.1783 24.9986C28.1783 26.7531 26.756 28.1754 25.0015 28.1754ZM32.7818 23.3316H31.3566C31.1036 23.3316 30.8764 23.1736 30.7916 22.9352C30.722 22.7401 30.643 22.5496 30.5549 22.3639C30.4462 22.1351 30.4948 21.8627 30.674 21.6836L31.6817 20.6759C31.9168 20.4408 31.9168 20.0597 31.6818 19.8247L30.1754 18.3183C29.9404 18.0834 29.5593 18.0834 29.3244 18.3183L28.3165 19.3262C28.1374 19.5053 27.865 19.5539 27.6361 19.4453C27.4506 19.3571 27.26 19.2782 27.0649 19.2087C26.8264 19.1238 26.6684 18.8966 26.6684 18.6436V17.2183C26.6684 16.8859 26.3991 16.6165 26.0667 16.6165H23.9364C23.604 16.6165 23.3346 16.8859 23.3346 17.2183V18.6436C23.3346 18.8966 23.1766 19.1238 22.9381 19.2087C22.743 19.2782 22.5524 19.3571 22.3669 19.4453C22.1381 19.5539 21.8657 19.5053 21.6866 19.3262L20.6787 18.3183C20.4437 18.0834 20.0626 18.0834 19.8276 18.3183L18.3212 19.8247C18.0862 20.0597 18.0862 20.4408 18.3213 20.6759L19.3292 21.6836C19.5083 21.8627 19.5568 22.1351 19.4481 22.364C19.36 22.5496 19.281 22.7401 19.2115 22.9352C19.1266 23.1736 18.8996 23.3316 18.6464 23.3316H17.2212C16.8888 23.3316 16.6194 23.6011 16.6194 23.9335V26.0638C16.6194 26.3962 16.8888 26.6656 17.2212 26.6656H18.6464C18.8996 26.6656 19.1266 26.8236 19.2116 27.0621C19.281 27.2572 19.36 27.4477 19.4481 27.6332C19.5568 27.8621 19.5083 28.1345 19.3292 28.3137L18.3213 29.3214C18.0862 29.5565 18.0862 29.9376 18.3212 30.1726L19.8276 31.6789C20.0626 31.9139 20.4437 31.9139 20.6787 31.6789L21.6865 30.6711C21.8657 30.492 22.1381 30.4435 22.3669 30.552C22.5524 30.6401 22.743 30.7191 22.9381 30.7887C23.1766 30.8735 23.3346 31.1007 23.3346 31.3537V32.779C23.3346 33.1114 23.604 33.3809 23.9364 33.3809H26.0667C26.3991 33.3809 26.6684 33.1114 26.6684 32.779V31.3537C26.6684 31.1007 26.8264 30.8735 27.0649 30.7887C27.26 30.7191 27.4506 30.6401 27.6361 30.552C27.8649 30.4435 28.1374 30.492 28.3166 30.6711L29.3244 31.6789C29.5593 31.9139 29.9404 31.9139 30.1754 31.6789L31.6818 30.1726C31.9168 29.9376 31.9168 29.5565 31.6818 29.3214L30.674 28.3137C30.4948 28.1345 30.4462 27.8621 30.5549 27.6332C30.643 27.4477 30.722 27.2572 30.7916 27.0621C30.8764 26.8236 31.1035 26.6656 31.3566 26.6656H32.7818C33.1142 26.6656 33.3836 26.3962 33.3836 26.0638V23.9335C33.3836 23.6011 33.1142 23.3316 32.7818 23.3316Z" stroke="#3259BB" stroke-width="2" stroke-miterlimit="10" stroke-linecap="round" stroke-linejoin="round"/>
<path d="M17.6699 9.20233C17.6699 13.8794 13.8784 17.6709 9.20132 17.6709C4.52417 17.6709 0.732666 13.8794 0.732666 9.20233C0.732666 4.52527 4.52417 0.733755 9.20132 0.733755C13.8784 0.733755 17.6699 4.52527 17.6699 9.20233Z" stroke="#3259BB" stroke-width="2" stroke-miterlimit="10" stroke-linecap="round" stroke-linejoin="round"/>
<path d="M49.2668 40.799C49.2668 45.4761 45.4753 49.2676 40.7982 49.2676C36.1211 49.2676 32.3296 45.4761 32.3296 40.799C32.3296 36.1218 36.1211 32.3303 40.7982 32.3303C45.4753 32.3303 49.2668 36.1218 49.2668 40.799Z" stroke="#3259BB" stroke-width="2" stroke-miterlimit="10" stroke-linecap="round" stroke-linejoin="round"/>
<path d="M11.2072 4.34459C12.3195 5.4569 12.3195 7.26042 11.2072 8.37273C10.0948 9.48513 8.29136 9.48513 7.17896 8.37273C6.06665 7.26042 6.06665 5.4569 7.17896 4.34459C8.29136 3.23219 10.0948 3.23219 11.2072 4.34459Z" stroke="#3259BB" stroke-width="2" stroke-miterlimit="10" stroke-linecap="round" stroke-linejoin="round"/>
<path d="M11.5759 11.8798H6.82119C5.02207 11.8798 3.56348 13.3383 3.56348 15.1375V15.5233C5.06055 16.8588 7.03457 17.6709 9.19854 17.6709C11.3625 17.6709 13.3365 16.8588 14.8336 15.5233V15.1375C14.8336 13.3383 13.375 11.8798 11.5759 11.8798Z" stroke="#3259BB" stroke-width="2" stroke-miterlimit="10" stroke-linecap="round" stroke-linejoin="round"/>
<path d="M11.2072 35.9403C12.3195 37.0527 12.3195 38.8561 11.2072 39.9685C10.0948 41.0808 8.29136 41.0808 7.17896 39.9685C6.06665 38.8561 6.06665 37.0527 7.17896 35.9403C8.29136 34.828 10.0948 34.828 11.2072 35.9403Z" stroke="#3259BB" stroke-width="2" stroke-miterlimit="10" stroke-linecap="round" stroke-linejoin="round"/>
<path d="M11.5759 43.4765H6.82119C5.02207 43.4765 3.56348 44.935 3.56348 46.7341V47.12C5.06055 48.4555 7.03457 49.2676 9.19854 49.2676C11.3625 49.2676 13.3365 48.4555 14.8336 47.12V46.7341C14.8336 44.935 13.375 43.4765 11.5759 43.4765Z" stroke="#3259BB" stroke-width="2" stroke-miterlimit="10" stroke-linecap="round" stroke-linejoin="round"/>
<path d="M42.8058 4.34459C43.9181 5.4569 43.9181 7.26042 42.8058 8.37273C41.6934 9.48513 39.89 9.48513 38.7776 8.37273C37.6653 7.26042 37.6653 5.4569 38.7776 4.34459C39.89 3.23219 41.6934 3.23219 42.8058 4.34459Z" stroke="#3259BB" stroke-width="2" stroke-miterlimit="10" stroke-linecap="round" stroke-linejoin="round"/>
<path d="M43.1848 11.8798H38.4301C36.631 11.8798 35.1724 13.3383 35.1724 15.1375V15.5233C36.6694 16.8588 38.6435 17.6709 40.8074 17.6709C42.9714 17.6709 44.9454 16.8588 46.4425 15.5233V15.1375C46.4425 13.3383 44.9839 11.8798 43.1848 11.8798Z" stroke="#3259BB" stroke-width="2" stroke-miterlimit="10" stroke-linecap="round" stroke-linejoin="round"/>
<path d="M42.8058 35.9403C43.9181 37.0527 43.9181 38.8561 42.8058 39.9685C41.6934 41.0808 39.89 41.0808 38.7776 39.9685C37.6653 38.8561 37.6653 37.0527 38.7776 35.9403C39.89 34.828 41.6934 34.828 42.8058 35.9403Z" stroke="#3259BB" stroke-width="2" stroke-miterlimit="10" stroke-linecap="round" stroke-linejoin="round"/>
<path d="M43.1848 43.4765H38.4301C36.631 43.4765 35.1724 44.935 35.1724 46.7341V47.12C36.6694 48.4555 38.6435 49.2676 40.8074 49.2676C42.9714 49.2676 44.9454 48.4555 46.4425 47.12V46.7341C46.4425 44.935 44.9839 43.4765 43.1848 43.4765Z" stroke="#3259BB" stroke-width="2" stroke-miterlimit="10" stroke-linecap="round" stroke-linejoin="round"/>
<path d="M20.3892 9.20703H29.6062" stroke="#3259BB" stroke-width="2" stroke-miterlimit="10" stroke-linecap="round" stroke-linejoin="round"/>
<path d="M20.3892 40.8027H29.6062" stroke="#3259BB" stroke-width="2" stroke-miterlimit="10" stroke-linecap="round" stroke-linejoin="round"/>
<path d="M9.19751 29.6113V20.3943" stroke="#3259BB" stroke-width="2" stroke-miterlimit="10" stroke-linecap="round" stroke-linejoin="round"/>
<path d="M40.7925 29.6113V20.3943" stroke="#3259BB" stroke-width="2" stroke-miterlimit="10" stroke-linecap="round" stroke-linejoin="round"/>
<path d="M49.1088 7.56902C48.3476 3.67361 44.9164 0.733658 40.7981 0.733658C36.1211 0.733658 32.3296 4.52527 32.3296 9.20233C32.3296 13.8794 36.1211 17.6709 40.7981 17.6709C44.8629 17.6709 48.2582 14.8069 49.0777 10.987" stroke="#3259BB" stroke-width="2" stroke-miterlimit="10" stroke-linecap="round" stroke-linejoin="round"/>
<path d="M7.49248 32.5029C3.63467 33.2935 0.73291 36.7074 0.73291 40.799C0.73291 45.4761 4.52441 49.2676 9.20147 49.2676C13.8786 49.2676 17.6701 45.4761 17.6701 40.799C17.6701 36.7074 14.7683 33.2935 10.9105 32.5029" stroke="#3259BB" stroke-width="2" stroke-miterlimit="10" stroke-linecap="round" stroke-linejoin="round"/>
</g>
</svg>
