<svg width="50" height="50" viewBox="0 0 50 50" fill="none" xmlns="http://www.w3.org/2000/svg">
<path d="M24.9997 0C23.1491 0 21.6648 1.49894 21.6648 3.32994C21.6648 5.16097 23.1491 6.66643 24.9997 6.66643C26.8502 6.66643 28.3346 5.16097 28.3346 3.32994C28.3346 1.49894 26.8502 0 24.9997 0ZM24.9997 1.66659C25.9105 1.66659 26.668 2.39965 26.668 3.32994C26.668 4.26026 25.9137 4.99981 24.9997 4.99981C24.0856 4.99981 23.3314 4.26026 23.3314 3.32994C23.3314 2.39965 24.0889 1.66659 24.9997 1.66659ZM19.3959 4.99975L8.23722 10.1477C7.23184 10.5895 7.90642 12.1315 8.93541 11.6613L20.0958 6.51337C20.8737 6.16609 20.6718 4.98296 19.8012 4.92003C19.6613 4.91061 19.5224 4.93896 19.3959 4.99975ZM41.064 11.6614C42.093 12.1316 42.7676 10.5896 41.7622 10.1477L30.6035 4.99981C30.4773 4.93934 30.338 4.91225 30.1982 4.92009C29.3276 4.98305 29.1256 6.16616 29.9037 6.51343L41.064 11.6614ZM22.8155 9.50813C22.1931 9.80954 21.9629 10.2746 21.8259 10.6035C21.6889 10.9323 21.635 11.1182 21.4629 11.3294C21.2907 11.5404 20.9766 11.8102 20.2504 12.1171C19.5215 12.4251 19.0972 12.4686 18.8165 12.4491C18.5359 12.4302 18.3677 12.3452 18.0483 12.2214C17.7288 12.0973 17.2311 11.9382 16.6144 12.1417C16.0573 12.3253 15.5083 12.7678 14.8989 13.3852C14.2379 14.0548 13.8386 14.6075 13.6798 15.1136C13.4871 15.7281 13.6609 16.223 13.7904 16.5393C13.9205 16.8557 14.0071 17.0253 14.0313 17.3027C14.0565 17.5801 14.0187 18.0062 13.7236 18.7365C13.4272 19.4669 13.1594 19.7966 12.9489 19.9783C12.7385 20.1601 12.5581 20.2161 12.2474 20.3478C11.8433 20.5188 11.4389 20.7579 11.1699 21.2771C10.9255 21.7491 10.8255 22.4101 10.833 23.3311C10.8267 24.1772 10.9017 24.8674 11.1699 25.3851C11.4389 25.9042 11.8454 26.1441 12.2474 26.3144C12.5579 26.446 12.7286 26.4989 12.9391 26.6806C13.1495 26.8623 13.4271 27.1953 13.7236 27.9257C14.0146 28.6419 14.0523 29.065 14.0313 29.3416C14.0093 29.6185 13.9286 29.7856 13.8033 30.0854C13.6521 30.4467 13.5113 30.8983 13.6553 31.4509C13.7611 31.8571 13.9759 32.2291 14.3226 32.6504C13.7553 33.5812 13.3094 34.571 12.9993 35.6419C12.3976 34.7527 11.6067 34.0501 10.6687 33.5358C11.2917 32.8064 11.6647 31.8635 11.6647 30.8325C11.6647 28.5412 9.8138 26.6643 7.49975 26.6643C5.18567 26.6643 3.32824 28.5412 3.32824 30.8325C3.32824 31.8647 3.70351 32.806 4.3292 33.5358C2.23515 34.6645 0.833186 36.8752 0.833186 39.4227V40.4008C0.833186 42.4881 2.51663 44.1653 4.58152 44.1653H10.4131C11.1841 44.1653 11.902 43.9348 12.4997 43.5306V46.6718C12.4997 47.6722 12.814 48.6522 13.5771 49.297C14.3401 49.9418 15.4562 50.1428 16.733 49.8943C16.7519 49.8911 16.7702 49.8848 16.7885 49.8817L24.9948 47.6731L33.2336 49.8882C34.5381 50.143 35.6228 49.9688 36.4204 49.2974C37.1832 48.6551 37.4995 47.6789 37.4995 46.6836V43.5342C38.0972 43.9382 38.8151 44.1656 39.586 44.1656H45.4177C47.4825 44.1656 49.166 42.4884 49.166 40.4011V39.423C49.166 36.8755 47.764 34.6648 45.6699 33.5361C46.2957 32.8064 46.6709 31.865 46.6709 30.8328C46.6709 28.5415 44.8135 26.6646 42.4994 26.6646C40.1853 26.6646 38.3344 28.5415 38.3344 30.8328C38.3344 31.8638 38.7075 32.8067 39.3305 33.5361C38.399 34.0373 37.5983 34.7563 36.9966 35.6454C36.6863 34.5747 36.2424 33.5749 35.6749 32.6442C36.022 32.2226 36.2381 31.8577 36.3439 31.4513C36.4878 30.8986 36.3469 30.447 36.1959 30.0857C36.0708 29.7859 35.9892 29.6186 35.9678 29.3419C35.9458 29.0654 35.9836 28.6423 36.2755 27.926C36.5719 27.1956 36.8495 26.8626 37.06 26.6809C37.2704 26.4992 37.4411 26.4462 37.7518 26.3147C38.1537 26.1443 38.5603 25.9046 38.8292 25.3854C39.0976 24.8677 39.1731 24.1775 39.1661 23.3314C39.1724 22.4104 39.0739 21.7494 38.8292 21.2774C38.5603 20.7582 38.1559 20.5193 37.7518 20.3481C37.4412 20.2165 37.2608 20.1604 37.0503 19.9786C36.8399 19.7969 36.572 19.4672 36.2756 18.7368C35.9792 18.0065 35.9438 17.5803 35.9679 17.303C35.9931 17.0258 36.0787 16.856 36.2088 16.5396C36.3389 16.2233 36.5124 15.7284 36.3193 15.1139C36.1606 14.6078 35.7613 14.0551 35.1003 13.3855C34.4909 12.7681 33.9419 12.3258 33.3848 12.142C32.7681 11.9386 32.2704 12.0976 31.9509 12.2217C31.6315 12.3458 31.4634 12.4299 31.1827 12.4494C30.9021 12.4683 30.4777 12.4242 29.7488 12.1174C29.0226 11.8106 28.7084 11.5408 28.5362 11.3297C28.364 11.1186 28.3104 10.9326 28.1733 10.6038C28.0363 10.2749 27.8061 9.80998 27.1837 9.50844C26.6438 9.24672 25.9963 9.16502 24.9996 9.16486C24.0028 9.1647 23.3554 9.24659 22.8155 9.50813ZM3.33328 9.99801C1.48269 9.99801 0 11.497 0 13.328C0 15.159 1.48269 16.6644 3.33328 16.6644C5.18387 16.6644 6.6682 15.159 6.6682 13.328C6.6682 11.497 5.18387 9.99801 3.33328 9.99801ZM46.666 9.99801C44.8155 9.99801 43.3311 11.497 43.3311 13.328C43.3311 15.159 44.8155 16.6644 46.666 16.6644C48.5166 16.6644 49.9994 15.159 49.9994 13.328C49.9994 11.497 48.5166 9.99801 46.666 9.99801ZM26.458 11.0039C26.5726 11.0594 26.584 11.1488 26.6369 11.2496C26.7292 11.471 26.8712 11.9215 27.2456 12.3807C27.62 12.8399 28.1959 13.2747 29.0962 13.6551C29.9938 14.0344 30.7082 14.1567 31.2983 14.1157C31.8884 14.0748 32.3249 13.8681 32.5597 13.7771C32.6992 13.723 32.7694 13.6918 32.8608 13.7217C32.9805 13.7614 33.2844 13.9157 33.9138 14.5534C34.5141 15.1615 34.689 15.4936 34.726 15.6113C34.7512 15.7099 34.7102 15.7971 34.6642 15.9058C34.5855 16.097 34.3591 16.5654 34.3078 17.1541C34.2565 17.7429 34.3651 18.4616 34.731 19.3627C35.0967 20.2638 35.5132 20.8524 35.9614 21.2393C36.4096 21.6262 36.8668 21.7863 37.1007 21.8854C37.233 21.9415 37.2954 21.9465 37.3464 22.0448C37.3974 22.1434 37.5133 22.4695 37.5058 23.3305C37.5121 24.141 37.4147 24.4842 37.3464 24.6163C37.2954 24.7149 37.2028 24.7325 37.1007 24.7757C36.8667 24.8749 36.4096 25.0349 35.9614 25.4218C35.5132 25.8087 35.0967 26.3973 34.731 27.2984C34.3723 28.1821 34.2633 28.8865 34.3078 29.4695C34.3522 30.0525 34.5428 30.4492 34.6577 30.7244C34.7066 30.862 34.7551 30.9392 34.7311 31.0321C34.7248 31.0573 34.6886 31.1461 34.6562 31.2078C33.4209 29.7118 31.8331 28.501 30.029 27.7119C31.0539 26.5382 31.6679 25.0076 31.6679 23.3321C31.6679 19.6601 28.6717 16.6657 24.9997 16.6657C21.3277 16.6657 18.3315 19.6601 18.3315 23.3321C18.3315 25.008 18.945 26.5382 19.9705 27.7119C18.1662 28.5006 16.5782 29.7119 15.3433 31.2078C15.3112 31.1461 15.2753 31.0582 15.2683 31.0321C15.2431 30.9392 15.2935 30.862 15.3417 30.7244C15.4567 30.4491 15.6472 30.0525 15.6916 29.4695C15.736 28.8865 15.6271 28.1821 15.2685 27.2984C14.9027 26.3973 14.4862 25.8087 14.038 25.4218C13.5898 25.035 13.1326 24.8748 12.8987 24.7757C12.7964 24.7325 12.7041 24.7146 12.6531 24.6163C12.5847 24.4844 12.4868 24.141 12.4937 23.3305C12.4874 22.4695 12.602 22.1433 12.6531 22.0448C12.7041 21.9462 12.7664 21.9415 12.8987 21.8854C13.1327 21.7862 13.5898 21.6262 14.038 21.2393C14.4862 20.8524 14.9027 20.2638 15.2685 19.3627C15.6342 18.4616 15.743 17.7429 15.6916 17.1541C15.6403 16.5654 15.4138 16.0969 15.3352 15.9058C15.2905 15.7968 15.247 15.7096 15.2735 15.6113C15.3103 15.4935 15.4854 15.1615 16.0856 14.5534C16.715 13.9158 17.019 13.7612 17.1387 13.7217C17.23 13.6902 17.3003 13.7229 17.4398 13.7771C17.6744 13.8682 18.1111 14.0748 18.7012 14.1157C19.2912 14.1566 20.0056 14.0344 20.9033 13.6551C21.8036 13.2747 22.3795 12.8399 22.7538 12.3807C23.1282 11.9215 23.2704 11.4708 23.3626 11.2496C23.4158 11.1488 23.4268 11.0594 23.5418 11.0039C23.6759 10.9387 24.1149 10.8313 24.9999 10.8313C25.8848 10.8313 26.3237 10.9387 26.458 11.0039ZM3.33328 11.6646C4.24407 11.6646 5.00154 12.3977 5.00154 13.328C5.00154 14.2583 4.24735 14.9979 3.33328 14.9979C2.41921 14.9979 1.66662 14.2583 1.66662 13.328C1.66662 12.3977 2.42249 11.6646 3.33328 11.6646ZM46.666 11.6646C47.5769 11.6646 48.3327 12.3977 48.3327 13.328C48.3327 14.2583 47.5801 14.9979 46.666 14.9979C45.752 14.9979 44.9978 14.2583 44.9978 13.328C44.9978 12.3977 45.7553 11.6646 46.666 11.6646ZM4.83392 18.0218C4.26061 17.9859 3.82354 18.5269 3.97941 19.0797L5.44424 24.6281C5.69999 25.7467 7.38261 25.3048 7.05556 24.2049L5.59073 18.6566C5.50443 18.3022 5.19789 18.045 4.83392 18.0218ZM45.1654 18.0218C44.8014 18.0439 44.4948 18.3021 44.4086 18.6566L42.9438 24.2049C42.6167 25.3048 44.2994 25.7467 44.5551 24.6281L46.0199 19.0797C46.1758 18.5269 45.7387 17.9858 45.1654 18.0218ZM24.9997 18.3327C27.7449 18.3327 30.0012 20.5612 30.0012 23.3325C30.0012 26.1039 27.7546 28.334 24.9997 28.334C22.2447 28.334 19.9981 26.1039 19.9981 23.3325C19.9981 20.5612 22.2512 18.3327 24.9997 18.3327ZM7.4999 28.3307C8.87091 28.3307 9.9966 29.4417 9.9966 30.8323C9.9966 32.2228 8.87419 33.3305 7.4999 33.3305C6.12559 33.3305 4.99666 32.2228 4.99666 30.8323C4.99666 29.4417 6.12887 28.3307 7.4999 28.3307ZM42.4995 28.3307C43.8705 28.3307 45.0027 29.4417 45.0027 30.8323C45.0027 32.2228 43.8737 33.3305 42.4995 33.3305C41.1251 33.3305 40.0027 32.2228 40.0027 30.8323C40.0027 29.4417 41.1284 28.3307 42.4995 28.3307ZM19.168 42.0428V39.1572C19.1428 38.0705 17.5255 38.0705 17.5014 39.1572V42.4709L17.2932 42.5244C16.2145 42.799 16.6262 44.4169 17.705 44.1422L30.3025 40.9066C31.2634 40.6597 32.1988 41.2159 32.4428 42.1306C32.6906 43.0558 32.1543 44.0174 31.2074 44.2724L16.4127 48.2583C16.4095 48.2589 16.4095 48.2576 16.4063 48.2583C15.46 48.4406 14.9511 48.274 14.6534 48.0239C14.3545 47.7713 14.1684 47.3352 14.1684 46.6714V39.1668C14.1684 34.4159 17.198 30.4071 21.3916 28.9409C22.4292 29.6082 23.6734 30.0005 25 30.0005C26.3256 30.0005 27.5663 29.6089 28.6034 28.9426C32.8247 30.4183 35.8331 34.4158 35.8331 39.1668V46.6828C35.8332 47.3388 35.6454 47.7723 35.3465 48.0239C35.0489 48.2746 34.54 48.4407 33.5936 48.2583L28.2063 46.8081L31.6372 45.8837C33.4479 45.3961 34.5402 43.5377 34.0493 41.7058C33.8062 40.7979 33.231 40.0886 32.4982 39.6551V39.157C32.473 38.0703 30.8557 38.0801 30.8316 39.1854C30.5802 39.1665 30.2015 39.2074 29.8842 39.2889L19.168 42.0428ZM28.3346 34.1655C27.2479 34.1907 27.2479 35.808 28.3346 35.8321H30.8313C31.918 35.8069 31.918 34.1896 30.8313 34.1655H28.3346ZM5.88534 34.67C6.34959 34.8725 6.93459 34.9972 7.4999 34.9972C8.06522 34.9972 8.62795 34.8724 9.11771 34.67C11.0966 35.3347 12.4998 37.2258 12.4998 39.4225V40.4006C12.4998 41.5612 11.58 42.4985 10.4133 42.4985H4.58164C3.41495 42.4985 2.49997 41.5499 2.49997 40.4006V39.4225C2.49997 37.2225 3.90515 35.3357 5.88534 34.67ZM40.8816 34.67C41.3518 34.8757 41.9342 34.9988 42.4995 34.9988C43.0647 34.9988 43.6335 34.8823 44.114 34.67C46.0942 35.3357 47.4994 37.2225 47.4994 39.4225V40.4006C47.4994 41.5499 46.5844 42.4985 45.4177 42.4985H39.5861C38.4194 42.4985 37.4995 41.5499 37.4995 40.4006V39.4225C37.4995 37.2258 38.9028 35.3347 40.8816 34.67Z" fill="#3259BB"/>
</svg>
