<svg width="63" height="67" viewBox="0 0 63 67" fill="none" xmlns="http://www.w3.org/2000/svg">
<path d="M7.40204 66.7891H37.8175C41.9007 66.7891 45.2224 63.4674 45.2224 59.3845V43.0095C54.9329 40.8189 62.2099 32.1291 62.2099 21.7662C62.2099 9.33892 51.8412 -0.592325 39.3204 0.027518C32.4471 0.366067 26.3265 4.08054 22.5609 9.4854H7.40204C3.31875 9.4854 -0.00292969 12.8071 -0.00292969 16.89V59.3844C-0.00292969 63.4674 3.31875 66.7891 7.40204 66.7891ZM39.389 1.41722C51.2431 0.835895 60.8185 10.268 60.8185 21.766C60.8185 33.8897 50.1762 43.571 37.7488 41.9839C37.3398 41.9261 36.9365 42.0124 36.5974 42.2082C36.4321 42.3016 28.9519 47.7894 28.8817 47.8411C28.6849 47.9866 28.489 47.9229 28.4147 47.8875C28.3382 47.8519 28.1608 47.7422 28.1438 47.4937L27.5805 38.329C27.5473 37.8347 27.3217 37.3829 26.9501 37.0611C22.4993 33.1356 19.9806 27.4916 20.0391 21.5745C20.1365 11.0993 28.7065 1.94352 39.389 1.41722ZM1.38847 16.89C1.38847 13.5745 4.08638 10.8768 7.40204 10.8768H21.6216C19.6809 14.1822 18.6812 17.9432 18.6444 21.5593C18.5838 27.9585 21.3714 33.994 26.0317 38.1093C26.1268 38.1912 26.1825 38.3002 26.1893 38.4177L26.7508 47.5119C26.7756 47.5815 26.769 48.6574 27.828 49.1495C27.8282 49.1495 27.8283 49.1495 27.8283 49.1496C27.8284 49.1497 27.8286 49.1497 27.8287 49.1499C28.4603 49.4439 29.1935 49.3404 29.708 48.9634C30.4784 48.3985 26.9173 51.0099 37.2422 43.4384C37.3341 43.3734 37.4418 43.347 37.5662 43.3651C39.5196 43.6121 41.7401 43.6061 43.7827 43.2889C43.7987 43.2864 43.815 43.2857 43.831 43.2832V59.3844C43.831 62.6999 41.1331 65.3976 37.8175 65.3976H7.40204C4.08652 65.3976 1.38847 62.6999 1.38847 59.3844V16.89Z" fill="#667CF0"/>
<path d="M9.48368 25.82H13.6634C14.8272 25.82 15.7743 24.8728 15.7743 23.709V19.5221C15.7743 18.3583 14.8272 17.4111 13.6634 17.4111H9.48368C8.3192 17.4111 7.37207 18.3583 7.37207 19.5221V23.709C7.37207 24.8728 8.3192 25.82 9.48368 25.82ZM8.76348 19.5221C8.76348 19.1254 9.08683 18.8025 9.48368 18.8025H13.6634C14.0601 18.8025 14.3829 19.1252 14.3829 19.5221V23.709C14.3829 24.1057 14.0602 24.4286 13.6634 24.4286H9.48368C9.08696 24.4286 8.76348 24.1059 8.76348 23.709V19.5221Z" fill="#667CF0"/>
<path d="M9.48563 38.0641H13.6653C14.8292 38.0641 15.7763 37.117 15.7763 35.9531V31.7662C15.7763 30.6024 14.8292 29.6553 13.6653 29.6553H9.48563C8.32115 29.6553 7.37402 30.6024 7.37402 31.7662V35.9531C7.37402 37.117 8.32115 38.0641 9.48563 38.0641ZM8.76543 31.7662C8.76543 31.3695 9.08878 31.0467 9.48563 31.0467H13.6653C14.0621 31.0467 14.3849 31.3694 14.3849 31.7662V35.9531C14.3849 36.3499 14.0622 36.6727 13.6653 36.6727H9.48563C9.08891 36.6727 8.76543 36.35 8.76543 35.9531V31.7662Z" fill="#667CF0"/>
<path d="M9.48563 50.3092H13.6653C14.8292 50.3092 15.7763 49.3621 15.7763 48.1979V44.0113C15.7763 42.8475 14.8292 41.9004 13.6653 41.9004H9.48563C8.32115 41.9004 7.37402 42.8475 7.37402 44.0113V48.1979C7.37402 49.3621 8.32115 50.3092 9.48563 50.3092ZM8.76543 44.0113C8.76543 43.6146 9.08878 43.2918 9.48563 43.2918H13.6653C14.0621 43.2918 14.3849 43.6145 14.3849 44.0113V48.1979C14.3849 48.5946 14.0622 48.9177 13.6653 48.9177H9.48563C9.08891 48.9177 8.76543 48.5946 8.76543 48.1979V44.0113Z" fill="#667CF0"/>
<path d="M20.974 44.2771H24.0178C24.4024 44.2771 24.7135 43.9656 24.7135 43.5814C24.7135 43.1972 24.4024 42.8857 24.0178 42.8857H20.974C20.5895 42.8857 20.2783 43.1973 20.2783 43.5814C20.2783 43.9656 20.5895 44.2771 20.974 44.2771Z" fill="#667CF0"/>
<path d="M20.974 49.324H25.1273C25.5118 49.324 25.823 49.0125 25.823 48.6283C25.823 48.2442 25.5118 47.9326 25.1273 47.9326H20.974C20.5895 47.9326 20.2783 48.2442 20.2783 48.6283C20.2783 49.0125 20.5895 49.324 20.974 49.324Z" fill="#667CF0"/>
<path d="M9.48368 62.5534H13.6634C14.8272 62.5534 15.7743 61.6062 15.7743 60.4424V56.2555C15.7743 55.0917 14.8272 54.1445 13.6634 54.1445H9.48368C8.3192 54.1445 7.37207 55.0917 7.37207 56.2555V60.4424C7.37207 61.6062 8.3192 62.5534 9.48368 62.5534ZM8.76348 56.2555C8.76348 55.8588 9.08683 55.5359 9.48368 55.5359H13.6634C14.0601 55.5359 14.3829 55.8586 14.3829 56.2555V60.4424C14.3829 60.8391 14.0602 61.162 13.6634 61.162H9.48368C9.08696 61.162 8.76348 60.8393 8.76348 60.4424V56.2555Z" fill="#667CF0"/>
<path d="M20.974 56.5232H37.1482C37.5328 56.5232 37.8439 56.2117 37.8439 55.8275C37.8439 55.4434 37.5328 55.1318 37.1482 55.1318H20.974C20.5895 55.1318 20.2783 55.4434 20.2783 55.8275C20.2783 56.2117 20.5895 56.5232 20.974 56.5232Z" fill="#667CF0"/>
<path d="M20.973 61.5682H34.4513C34.8359 61.5682 35.147 61.2566 35.147 60.8725C35.147 60.4883 34.8359 60.1768 34.4513 60.1768H20.973C20.5885 60.1768 20.2773 60.4883 20.2773 60.8725C20.2773 61.2566 20.5885 61.5682 20.973 61.5682Z" fill="#667CF0"/>
<path d="M34.7305 19.3678C36.1458 19.3678 37.2974 18.2161 37.2974 16.8006C37.2974 15.0656 38.6961 13.663 40.4254 13.663C42.0937 13.6659 43.5774 15.1606 43.5588 16.8342C43.5433 18.2854 42.5492 19.528 41.1408 19.8556C39.2371 20.2992 37.8551 22.081 37.8551 24.0928V28.5569C37.8551 29.9725 39.0068 31.1241 40.4227 31.1241C41.8379 31.1241 42.9896 29.9725 42.9896 28.5572L42.9909 24.6659C46.3377 23.5771 48.6558 20.4538 48.6939 16.8892C48.742 12.3923 44.9829 8.5354 40.422 8.52832C35.904 8.52832 32.1631 12.1862 32.1631 16.8006C32.1631 18.2163 33.3146 19.3678 34.7305 19.3678ZM40.4316 9.91986C44.1796 9.92549 47.3424 13.1251 47.3025 16.8744C47.2693 19.9919 45.14 22.7037 42.1241 23.4688C41.8157 23.5468 41.5996 23.8245 41.5996 24.1427L41.5983 28.5569C41.5983 29.2051 41.0711 29.7327 40.4229 29.7327C39.7748 29.7327 39.2469 29.2051 39.2469 28.5569V24.0928C39.2469 22.721 40.1764 21.5093 41.4564 21.2111C43.4912 20.7376 44.9282 18.9438 44.9506 16.8495C44.9776 14.4144 42.8819 12.2758 40.4223 12.2716C37.9282 12.2716 35.9063 14.2962 35.9063 16.8006C35.9063 17.4488 35.379 17.9764 34.7309 17.9764C34.0828 17.9764 33.5549 17.4488 33.5549 16.8006C33.5545 13.0183 36.6042 9.91986 40.4316 9.91986Z" fill="#667CF0"/>
<path d="M42.2426 32.8029C41.144 31.7028 39.1271 31.8731 38.2985 33.18C37.6497 34.1071 37.6969 35.5299 38.6104 36.4232C39.5921 37.4276 41.2445 37.4281 42.2371 36.4341C43.2498 35.4443 43.2347 33.7816 42.2426 32.8029ZM41.2587 35.4453C40.8232 35.8795 40.0365 35.8906 39.5942 35.4395C39.1082 34.9642 39.1642 34.1906 39.6023 33.7837C40.016 33.3656 40.8307 33.3584 41.2607 33.7884C41.7075 34.2323 41.7206 34.9929 41.2587 35.4453Z" fill="#667CF0"/>
</svg>
