<svg width="66" height="60" viewBox="0 0 66 60" fill="none" xmlns="http://www.w3.org/2000/svg">
<path d="M55.8486 10.5901C57.0003 7.46154 54.5029 3.95811 51.1644 4.02275C47.813 3.95811 45.3155 7.48739 46.4931 10.6159C43.8533 11.9475 41.8477 14.3262 41.0195 17.1703C40.9677 17.3642 40.9677 17.5711 41.0195 17.752C42.2488 22.2251 46.6872 25.6121 51.3714 25.457C55.9392 25.3924 60.4164 21.9406 61.3869 17.4547C60.7399 14.4425 58.5531 11.9345 55.8486 10.5901ZM51.1644 6.12997C54.9299 6.22047 54.9299 11.7406 51.1644 11.8311C47.4118 11.7406 47.3989 6.2334 51.1644 6.12997ZM55.7451 21.9406C51.255 25.0821 44.7074 22.6129 43.1287 17.4547C43.8533 15.257 45.4838 13.4212 47.58 12.4129C49.4563 14.4167 52.8983 14.4167 54.7617 12.387C56.8709 13.3825 58.5013 15.2053 59.213 17.4288C58.6178 19.2775 57.4014 20.8676 55.7451 21.9406ZM54.1535 0.325405C45.212 -1.69133 35.9729 5.96192 36.2964 15.1018C36.3482 21.9277 41.7441 28.3916 48.5764 29.5292L48.654 35.3338V35.6053C47.6189 35.8509 46.8295 36.8722 46.8683 37.9452L46.9201 42.0563C46.9589 45.7536 47.0107 49.438 47.0624 53.1354C47.0754 53.7688 47.3471 54.3893 47.813 54.8289C48.2788 55.2684 48.874 55.5011 49.4951 55.4882L53.9206 55.4365C55.2405 55.4236 56.3015 54.3376 56.2886 53.0319L56.211 47.7186C56.211 47.6928 56.2239 47.654 56.2239 47.6281L56.1463 42.0563C56.1463 42.0304 56.1463 42.0175 56.1333 41.9916L56.0816 37.8547C56.0945 36.7817 55.2922 35.7992 54.2441 35.5794L54.1664 29.4646C69.9661 25.7285 69.9273 3.93225 54.1535 0.325405ZM48.9775 37.9194C48.9775 37.5445 49.4951 37.6608 49.7281 37.635C50.6856 37.622 52.7431 37.5962 53.6747 37.5832C53.8688 37.6091 53.9335 37.6737 53.9594 37.8547L53.9982 40.9962H49.0164L48.9775 37.9194ZM50.6856 29.7619C51.1385 29.7749 51.5914 29.7619 52.0443 29.7361L52.1219 35.4889L50.7762 35.5019L50.6856 29.7619ZM49.0422 43.1034H54.0241C54.0241 43.892 54.0629 45.8053 54.0759 46.568H49.0811C49.0681 45.4175 49.0552 44.2669 49.0422 43.1034ZM54.1664 53.0449C54.1664 53.1871 54.037 53.3163 53.8947 53.3163L49.4434 53.368C49.2881 53.368 49.1716 53.2388 49.1716 53.0966C49.1458 51.6228 49.1328 50.149 49.1199 48.6753H54.1147L54.1664 53.0449ZM46.6872 26.8273C38.2762 23.6213 35.5459 12.5163 42.0547 6.09119C49.9351 -2.13087 63.7937 3.46685 63.949 14.7528C64.1949 23.3886 54.8005 30.111 46.6872 26.8273ZM41.2912 39.0958H35.2224C34.6401 39.0958 34.1614 39.5741 34.1614 40.1559V58.9399C34.1614 59.5217 34.6401 60 35.2224 60H41.2912C41.8735 60 42.3523 59.5217 42.3523 58.9399V40.1429C42.3523 39.5612 41.8735 39.0958 41.2912 39.0958ZM40.2302 57.8798H36.2835V41.203H40.2302V57.8798ZM7.15577 36.9886L14.0398 31.5977C16.3172 32.9163 19.2158 30.6281 18.4394 28.0943L25.5822 20.1566C26.4621 20.5962 27.6526 20.5186 28.4678 19.9885L35.9471 31.1969C34.2131 33.0844 35.6753 36.3293 38.2633 36.2775C42.637 36.0836 42.1453 29.6714 37.7975 30.1756L29.8135 18.2045C30.4088 16.2912 28.856 14.2615 26.8632 14.3003C24.6635 14.2486 23.0977 16.7049 24.0812 18.657L17.1842 26.3232C14.7386 24.6555 11.4906 27.254 12.6293 30.0076L6.31467 34.946C4.51603 32.9422 0.957553 34.3254 1.00931 37.0532C1.13871 41.203 7.16871 41.1125 7.15577 36.9886ZM38.2633 32.2441C39.5314 32.2699 39.5314 34.1445 38.2633 34.1703C36.9952 34.1445 36.9952 32.2699 38.2633 32.2441ZM27.7561 17.752C27.3679 18.6958 25.8928 18.4114 25.9057 17.3771C25.9963 15.8387 28.2737 16.3171 27.7561 17.752ZM15.4761 27.9391C16.7442 27.965 16.7442 29.8395 15.4761 29.8654C14.208 29.8395 14.208 27.9521 15.4761 27.9391ZM4.08901 36.1224C5.35712 36.1483 5.35712 38.0228 4.08901 38.0486C2.8209 38.0228 2.8209 36.1353 4.08901 36.1224ZM7.11695 46.038H1.06107C0.478777 46.038 0 46.5163 0 47.0981V58.9399C0 59.5217 0.478777 60 1.06107 60H7.11695C7.69924 60 8.17802 59.5217 8.17802 58.9399V47.0981C8.17802 46.5034 7.69924 46.038 7.11695 46.038ZM6.06882 57.8798H2.1092V48.1582H6.05588V57.8798H6.06882ZM29.9041 27.2281H23.8353C23.253 27.2281 22.7742 27.7064 22.7742 28.2882V58.9399C22.7742 59.5217 23.253 60 23.8353 60H29.9041C30.4864 60 30.9652 59.5217 30.9652 58.9399V28.2752C30.9523 27.6935 30.4864 27.2281 29.9041 27.2281ZM28.8431 57.8798H24.8964V29.3353H28.8431V57.8798ZM18.5041 39.7034H12.4482C11.8659 39.7034 11.3871 40.1817 11.3871 40.7635V58.9399C11.3871 59.5217 11.8659 60 12.4482 60H18.5041C19.0864 60 19.5651 59.5217 19.5651 58.9399V40.7635C19.5651 40.1817 19.0864 39.7034 18.5041 39.7034ZM17.4559 57.8798H13.5093V41.8106H17.4559V57.8798Z" fill="#667CF0"/>
</svg>
