<svg width="65" height="66" viewBox="0 0 65 66" fill="none" xmlns="http://www.w3.org/2000/svg">
<path d="M36.6808 14.2828C36.6808 14.5607 36.5704 14.8273 36.3738 15.0239C36.1772 15.2205 35.9106 15.3309 35.6327 15.3309H33.6098C33.4269 15.3303 33.2444 15.3127 33.0647 15.2785C32.4678 17.1366 31.2925 18.7552 29.7103 19.8978C28.1282 21.0404 26.2222 21.6473 24.2706 21.6297C22.3191 21.6122 20.4243 20.9711 18.863 19.8002C17.3017 18.6293 16.1556 16.9898 15.5922 15.1213C15.4057 15.1568 15.2162 15.1743 15.0263 15.1737H13.0557C12.7778 15.1737 12.5112 15.0632 12.3146 14.8667C12.118 14.6701 12.0076 14.4035 12.0076 14.1255V10.216C12.0102 10.0629 12.0462 9.91232 12.1132 9.7747C12.1802 9.63708 12.2765 9.5158 12.3954 9.4194C13.0468 6.72711 14.5868 4.33303 16.7666 2.6239C18.9465 0.914763 21.6388 -0.00961816 24.4088 7.54697e-05C27.1787 0.0097691 29.8645 0.952972 32.0323 2.67732C34.2001 4.40167 35.7233 6.80647 36.3559 9.50325C36.4613 9.60098 36.5454 9.71933 36.6031 9.85096C36.6608 9.98258 36.6908 10.1247 36.6913 10.2684L36.6808 14.2828ZM34.5845 13.2346V12.1865C34.5845 11.9035 34.5845 11.6205 34.5845 11.3375H33.6517C33.5282 11.34 33.4066 11.3676 33.2941 11.4186C33.1816 11.4696 33.0807 11.5428 32.9974 11.634C32.9141 11.7251 32.8501 11.8322 32.8095 11.9488C32.7688 12.0654 32.7522 12.1891 32.7608 12.3123C32.7608 12.5485 32.8546 12.7752 33.0217 12.9422C33.1888 13.1093 33.4154 13.2032 33.6517 13.2032L34.5845 13.2346ZM24.3547 19.5235C25.9404 19.5176 27.4783 18.9792 28.7213 17.9946C29.9644 17.01 30.8407 15.6364 31.2095 14.0941C30.8268 13.5591 30.6216 12.9176 30.6226 12.2599C30.6218 11.6572 30.8046 11.0685 31.1466 10.5723C30.7668 9.05294 29.89 7.70409 28.6556 6.74024C27.4211 5.77638 25.8999 5.25284 24.3337 5.25284C22.7676 5.25284 21.2463 5.77638 20.0119 6.74024C18.7775 7.70409 17.9006 9.05294 17.5208 10.5723C17.8217 11.0532 17.9814 11.6088 17.982 12.176C17.9821 12.8012 17.7839 13.4104 17.416 13.9159C17.7605 15.5033 18.6376 16.9251 19.9017 17.9451C21.1658 18.9652 22.7408 19.5221 24.3652 19.5235H24.3547ZM14.1144 13.0774H15.0263C15.2268 13.0733 15.4196 12.9991 15.5713 12.8678C15.6679 12.7805 15.745 12.6737 15.7973 12.5544C15.8497 12.4352 15.8763 12.3062 15.8752 12.176C15.8752 11.9397 15.7814 11.7131 15.6143 11.546C15.4472 11.3789 15.2206 11.2851 14.9843 11.2851H14.1353C14.089 11.6712 14.0645 12.0596 14.062 12.4485L14.1144 13.0774ZM24.3652 2.16628C22.2197 2.17191 20.13 2.8506 18.3907 4.10669C16.6513 5.36279 15.3499 7.13298 14.6699 9.16784H15.0472C15.2917 9.17262 15.5346 9.20783 15.7704 9.27266C16.4096 7.49752 17.5825 5.96369 19.1281 4.88168C20.6738 3.79967 22.5164 3.22251 24.4031 3.2294C26.2898 3.23629 28.1281 3.82689 29.6658 4.92016C31.2035 6.01343 32.3651 7.55578 32.9914 9.33555C33.1978 9.2888 33.4086 9.26421 33.6202 9.26218H34.1024C33.4349 7.20378 32.1337 5.40909 30.3849 4.13466C28.636 2.86022 26.5291 2.17126 24.3652 2.16628Z" fill="#667CF0"/>
<path d="M45.2333 57.256V59.5619C45.2116 60.3275 44.8935 61.0549 44.3461 61.5906C43.7986 62.1264 43.0645 62.4286 42.2986 62.4338H6.48364C5.71767 62.4286 4.98361 62.1264 4.43614 61.5906C3.88868 61.0549 3.57056 60.3275 3.54885 59.5619V57.256L0.750324 34.9096C0.750324 34.9096 0.750324 34.8468 0.750324 34.8153C0.734787 34.352 0.813133 33.8902 0.980652 33.4579C1.14817 33.0256 1.40139 32.6317 1.72509 32.2998C2.04163 31.9681 2.42225 31.7042 2.84385 31.524C3.26545 31.3438 3.71925 31.2512 4.17774 31.2516H7.32215C8.01656 28.768 9.50329 26.5792 11.5561 25.0183C13.609 23.4573 16.1156 22.6098 18.6945 22.6045H30.0982C32.6771 22.6098 35.1837 23.4573 37.2365 25.0183C39.2894 26.5792 40.7761 28.768 41.4705 31.2516H44.6149C45.0734 31.2512 45.5272 31.3438 45.9488 31.524C46.3704 31.7042 46.751 31.9681 47.0676 32.2998C47.3997 32.6447 47.6569 33.0546 47.8228 33.5038C47.9888 33.953 48.06 34.4316 48.0319 34.9096L45.2333 57.256ZM6.4522 60.3375H42.2461C42.4641 60.335 42.6728 60.2486 42.8289 60.0964C42.985 59.9442 43.0766 59.7378 43.0847 59.5199V58.1783H5.61369V59.5304C5.62457 59.7519 5.72167 59.9604 5.88425 60.1112C6.04682 60.262 6.26196 60.3432 6.48364 60.3375H6.4522ZM20.7488 24.7008C20.9703 25.4821 21.4408 26.1699 22.0887 26.6596C22.7365 27.1494 23.5265 27.4143 24.3387 27.4143C25.1508 27.4143 25.9408 27.1494 26.5887 26.6596C27.2366 26.1699 27.707 25.4821 27.9286 24.7008H20.7488ZM30.0982 24.7008C29.8654 26.061 29.159 27.2951 28.104 28.1849C27.0491 29.0746 25.7135 29.5626 24.3335 29.5626C22.9534 29.5626 21.6178 29.0746 20.5629 28.1849C19.5079 27.2951 18.8015 26.061 18.5687 24.7008C16.5557 24.7112 14.5956 25.3459 12.9586 26.5173C11.3216 27.6888 10.0883 29.3392 9.42891 31.2412H39.2694C38.6118 29.3373 37.3793 27.6845 35.7421 26.5111C34.105 25.3377 32.1439 24.7015 30.1297 24.6903L30.0982 24.7008ZM45.5583 33.7357C45.4358 33.6094 45.2892 33.509 45.1271 33.4406C44.9651 33.3722 44.7909 33.3371 44.6149 33.3374H4.11485C3.93892 33.3371 3.76474 33.3722 3.60266 33.4406C3.44059 33.509 3.29396 33.6094 3.17152 33.7357C2.92152 33.9901 2.78213 34.3329 2.78371 34.6895L5.45646 56.0716H43.2733L45.9461 34.7315C45.9525 34.5478 45.9214 34.3649 45.8547 34.1937C45.788 34.0225 45.6872 33.8666 45.5583 33.7357Z" fill="#667CF0"/>
<path d="M1.04424 62.959H63.9326C64.2106 62.959 64.4772 63.0694 64.6737 63.266C64.8703 63.4625 64.9807 63.7291 64.9807 64.0071C64.9807 64.2851 64.8703 64.5517 64.6737 64.7483C64.4772 64.9448 64.2106 65.0553 63.9326 65.0553H1.04424C0.766258 65.0553 0.499657 64.9448 0.303093 64.7483C0.106529 64.5517 -0.00389862 64.2851 -0.00389862 64.0071C-0.00389862 63.7291 0.106529 63.4625 0.303093 63.266C0.499657 63.0694 0.766258 62.959 1.04424 62.959Z" fill="#667CF0"/>
<path d="M60.2645 62.4335H51.3553C51.0773 62.4335 50.8107 62.323 50.6142 62.1265C50.4176 61.9299 50.3072 61.6633 50.3072 61.3853V60.9451C50.3072 59.4857 50.8869 58.0861 51.9189 57.0541C52.9508 56.0221 54.3505 55.4424 55.8099 55.4424C57.2693 55.4424 58.6689 56.0221 59.7009 57.0541C60.7329 58.0861 61.3126 59.4857 61.3126 60.9451V61.3853C61.3126 61.6633 61.2022 61.9299 61.0056 62.1265C60.8091 62.323 60.5425 62.4335 60.2645 62.4335ZM56.858 57.7168V58.9432C56.858 59.2211 56.7476 59.4877 56.551 59.6843C56.3545 59.8809 56.0879 59.9913 55.8099 59.9913C55.5319 59.9913 55.2653 59.8809 55.0687 59.6843C54.8722 59.4877 54.7618 59.2211 54.7618 58.9432V57.7168C54.1768 57.905 53.6536 58.2479 53.2477 58.7092C52.8417 59.1705 52.5681 59.7331 52.4558 60.3372H59.1639C59.0517 59.7331 58.7781 59.1705 58.3721 58.7092C57.9662 58.2479 57.443 57.905 56.858 57.7168Z" fill="#667CF0"/>
<path d="M28.2121 46.5034L28.7571 49.7107C28.7877 49.9016 28.7649 50.0972 28.6913 50.276C28.6176 50.4547 28.4959 50.6096 28.3397 50.7235C28.1835 50.8374 27.9988 50.9059 27.8061 50.9214C27.6134 50.9369 27.4202 50.8987 27.2478 50.8112L24.3654 49.3334L21.4935 50.8427C21.3208 50.933 21.1263 50.9734 20.9319 50.9593C20.7374 50.9452 20.5508 50.8772 20.3929 50.7629C20.235 50.6485 20.1122 50.4924 20.0381 50.3121C19.964 50.1318 19.9417 49.9344 19.9737 49.7421L20.5187 46.5348L18.2023 44.2708C18.061 44.1348 17.9608 43.9618 17.9129 43.7716C17.865 43.5814 17.8715 43.3816 17.9315 43.1949C17.9916 43.0082 18.1028 42.842 18.2526 42.7154C18.4024 42.5888 18.5847 42.5067 18.7788 42.4785L22.0071 41.9964L23.443 39.0826C23.53 38.9081 23.6638 38.7614 23.8295 38.6588C23.9952 38.5563 24.1862 38.502 24.3811 38.502C24.576 38.502 24.767 38.5563 24.9327 38.6588C25.0984 38.7614 25.2323 38.9081 25.3192 39.0826L26.7447 41.9964L29.952 42.468C30.1461 42.4962 30.3284 42.5783 30.4782 42.7049C30.628 42.8315 30.7392 42.9977 30.7993 43.1844C30.8593 43.3711 30.8658 43.5709 30.8179 43.7611C30.77 43.9514 30.6698 44.1243 30.5285 44.2604L28.2121 46.5034ZM25.8957 43.9774C25.7278 43.9521 25.5685 43.8865 25.4315 43.7861C25.2946 43.6857 25.1841 43.5535 25.1096 43.4009L24.3759 41.902L23.6422 43.4009C23.5677 43.5535 23.4572 43.6857 23.3202 43.7861C23.1833 43.8865 23.024 43.9521 22.8561 43.9774L21.2 44.2184L22.3949 45.3924C22.5162 45.5102 22.6072 45.6556 22.6602 45.8162C22.7131 45.9768 22.7264 46.1479 22.6989 46.3147L22.4159 47.9708L23.8833 47.2371C24.0336 47.1581 24.2008 47.1169 24.3706 47.1169C24.5404 47.1169 24.7077 47.1581 24.858 47.2371L26.3359 48.0127L26.0529 46.3566C26.0254 46.1898 26.0387 46.0187 26.0916 45.8581C26.1445 45.6975 26.2355 45.5521 26.3569 45.4343L27.5517 44.2604L25.8957 43.9774Z" fill="#667CF0"/>
</svg>
