<svg width="126" height="38" viewBox="0 0 126 38" fill="none" xmlns="http://www.w3.org/2000/svg">
<g clip-path="url(#clip0_3009_688)">
<path d="M47.4643 9.31235C45.6374 9.33721 43.8588 9.92477 42.3541 11.0005C40.8493 12.0762 39.6861 13.5917 39.012 15.3547C38.338 17.1177 38.1834 19.0489 38.5679 20.9032C38.9524 22.7576 39.8587 24.4515 41.1717 25.7705C42.4848 27.0893 44.1456 27.9737 45.9434 28.3112C47.7413 28.6488 49.5952 28.4246 51.27 27.6668C52.9449 26.909 54.3653 25.6519 55.3511 24.0548C56.3369 22.4579 56.8437 20.5928 56.8071 18.6964C56.7585 16.1686 55.7488 13.7632 53.9985 12.0052C52.2483 10.2472 49.8994 9.27921 47.4643 9.31235ZM47.5789 22.6698C47.0953 22.6724 46.6162 22.5741 46.1698 22.3808C45.7235 22.1875 45.3191 21.9031 44.9807 21.5445C44.6423 21.1858 44.3767 20.7603 44.1996 20.2931C44.0226 19.8259 43.9378 19.3265 43.9502 18.8246C43.9854 17.8372 44.3757 16.8993 45.0442 16.196C45.7127 15.4926 46.6107 15.0749 47.5613 15.0252C48.0582 15.0209 48.5511 15.1193 49.0111 15.3147C49.4711 15.51 49.8891 15.7984 50.2407 16.1631C50.5924 16.5277 50.8706 16.9613 51.0593 17.4387C51.248 17.9161 51.3434 18.4276 51.3399 18.9436C51.3378 19.4484 51.238 19.9476 51.0463 20.4114C50.8547 20.8753 50.575 21.2944 50.2241 21.6438C49.8732 21.9932 49.4582 22.2657 49.0038 22.4451C48.5493 22.6245 48.0647 22.7071 47.5789 22.688V22.6698Z" fill="#2A4486"/>
<path d="M88.9891 18.8739V12.7307C88.9965 12.5776 88.9877 12.4241 88.9626 12.273C88.9141 12.0349 88.6231 11.9434 88.266 11.9434C87.9088 11.9434 87.5252 12.0167 87.4944 12.2958C87.4789 12.5902 87.4789 12.885 87.4944 13.1794C87.4944 17.1389 87.4944 21.0986 87.4944 25.0536C87.4944 25.31 87.2475 25.6807 88.0764 25.7128C88.7069 25.7128 89.0243 25.6624 89.0155 25.2138C88.967 23.0898 88.9891 20.9796 88.9891 18.8739Z" fill="#96D4C8"/>
<path d="M83.5967 18.8224V12.6151C83.5967 12.3039 83.7113 11.9331 82.9088 11.924C82.1064 11.9148 82.1108 12.2856 82.1108 12.6335V25.1074C82.1108 25.4095 82.0447 25.6933 82.8251 25.7025C83.6055 25.7116 83.601 25.4141 83.601 25.0891C83.601 22.9971 83.601 20.9098 83.601 18.8177L83.5967 18.8224Z" fill="#96D4C8"/>
<path d="M84.8406 18.8233V25.0854C84.8406 25.3829 84.7524 25.6668 85.5416 25.6668C86.3308 25.6668 86.3088 25.4333 86.3088 25.1037C86.3088 20.9106 86.3088 16.7176 86.3088 12.5245C86.3088 12.2041 86.3088 11.9157 85.5857 11.9111C84.8009 11.9111 84.8362 12.2315 84.8362 12.5612C84.845 14.6622 84.8406 16.7496 84.8406 18.8233Z" fill="#96D4C8"/>
<path d="M83.1836 10.5867C83.5275 10.9346 83.9596 11.255 84.4578 11.0444C84.8028 10.8827 85.1751 10.7933 85.5535 10.7814C85.9318 10.7697 86.3087 10.8357 86.6623 10.9758C86.8848 11.0396 87.1201 11.0375 87.3414 10.9695C87.5628 10.9015 87.7613 10.7704 87.9145 10.5912C88.2276 10.2845 87.7955 9.92291 87.65 9.62079C87.1474 8.59083 86.6138 7.57918 86.0848 6.56753C85.8202 6.05942 85.4719 5.89464 85.1633 6.50346C84.524 7.76229 83.9243 9.04401 83.307 10.3166C83.2806 10.3761 83.2585 10.4402 83.2012 10.5912L83.1836 10.5867Z" fill="#2A4486"/>
<path d="M85.5988 29.0979C86.5159 29.0979 87.433 29.0658 88.3456 29.0979C88.9585 29.1253 89.0511 28.8096 89.0335 28.2926C89.0158 27.7755 89.0335 27.4187 88.3809 27.4279C86.5115 27.4462 84.6449 27.4462 82.7814 27.4279C82.1465 27.4279 82.1288 27.8076 82.1332 28.2926C82.1377 28.7776 82.2391 29.1253 82.8475 29.0979C83.7602 29.0521 84.6773 29.0979 85.5944 29.0979H85.5988Z" fill="#2A4486"/>
<path d="M59.7482 22.6421C59.7834 19.7582 59.488 16.8514 60.8857 14.1369C62.5964 10.8136 66.5778 8.72166 70.2065 9.38541C74.1218 10.0995 77.2611 13.3221 77.702 17.1673C78.1032 20.4495 77.8298 23.7453 77.9092 27.032C77.9092 27.7278 77.6447 28.0116 76.9833 28.0025C75.8017 28.0025 74.6112 27.9613 73.4296 28.0025C72.5478 28.0436 72.3008 27.65 72.3097 26.7802C72.3361 24.0337 72.3361 21.2871 72.2832 18.5406C72.2911 17.8502 72.0962 17.1737 71.7244 16.6012C71.3526 16.0288 70.8216 15.5875 70.2021 15.3363C68.7868 14.6908 67.5126 15.025 66.3706 16.0184C65.4888 16.7737 65.2595 17.8127 65.2551 18.9296C65.2551 21.484 65.2154 24.0428 65.2551 26.5972C65.2551 27.6546 65.0082 28.1673 63.9103 28.0436C62.5876 27.888 60.8504 28.6387 59.9422 27.7004C59.1706 26.8947 59.7746 25.1689 59.7129 23.8506C59.7129 23.4614 59.7129 23.0679 59.7129 22.6742L59.7482 22.6421Z" fill="#2A4486"/>
<path d="M103.368 9.29127C105.352 9.37366 107.583 10.5776 109.435 12.6558C109.929 13.2097 109.876 13.5713 109.32 13.9329C108.765 14.2946 108.222 14.6882 107.68 15.0728C106.503 15.9059 105.564 16.9724 103.928 15.4618C102.636 14.2717 100.37 15.1002 99.3293 16.6475C98.852 17.3843 98.6312 18.2681 98.7034 19.1529C98.7755 20.0377 99.1363 20.8704 99.7261 21.5135C100.351 22.1972 101.201 22.6111 102.107 22.6722C103.012 22.7334 103.907 22.4372 104.611 21.843C105.207 21.3166 105.603 21.28 106.185 21.7789C107.041 22.5503 107.951 23.2557 108.906 23.8892C109.788 24.4385 109.528 24.8459 109.02 25.4456C105.846 29.2541 99.1838 29.3502 95.7932 25.5279C93.0816 22.4702 92.3982 18.9134 93.9238 15.0361C95.3214 11.4931 98.7738 9.2638 103.368 9.29127Z" fill="#2A4486"/>
<path d="M119.024 9.27539C121.049 9.27867 123.03 9.89252 124.725 11.0423C125.316 11.4451 125.541 11.7564 125.06 12.379C124.853 12.6445 124.707 12.9558 124.522 13.2396C124.02 14.0086 123.662 15.0706 122.961 15.4552C122.26 15.8396 121.639 14.5397 120.836 14.3702C120.792 14.3702 120.748 14.3291 120.704 14.3153C119.69 14.004 118.314 13.2167 117.82 14.5579C117.327 15.8992 118.993 15.8854 119.782 16.3249C120.572 16.7643 121.374 16.9291 122.155 17.2724C124.901 18.4855 126.211 20.4768 125.973 22.9807C125.717 25.5945 124.02 27.5125 121.242 28.1351C118.133 28.8309 115.246 28.1351 112.543 26.4368C111.692 25.9057 111.661 25.3839 112.309 24.6058C112.957 23.8275 113.297 22.6099 114.073 22.1704C114.955 21.6715 115.647 23.0631 116.59 23.2736C117.472 23.4705 118.288 23.9282 119.236 23.7772C119.743 23.6902 120.303 23.5758 120.431 22.9303C120.558 22.2849 119.99 21.9874 119.549 21.7814C118.226 21.1954 116.859 20.8658 115.581 20.2296C113.376 19.1355 112.256 17.3456 112.3 14.8555C112.34 12.4797 113.936 10.5754 116.339 9.75604C117.209 9.43502 118.128 9.27994 119.051 9.29828L119.024 9.27539Z" fill="#2A4486"/>
<path opacity="0.5" d="M48.8534 15.234C48.4387 15.0813 48.0016 15.004 47.5615 15.0059H47.4248C47.5668 15.1481 47.7563 15.2282 47.9539 15.2295H48.8357L48.8534 15.234Z" fill="#96D4C8"/>
<path d="M56.3707 9.34644H48.3506C50.0439 9.48755 51.6664 10.1133 53.0379 11.154C54.4093 12.1949 55.476 13.61 56.1194 15.2423H56.3707C56.5754 15.2423 56.7716 15.1579 56.9163 15.0077C57.061 14.8575 57.1423 14.6538 57.1423 14.4412V10.1292C57.1423 9.91675 57.061 9.71299 56.9163 9.56276C56.7716 9.41253 56.5754 9.32812 56.3707 9.32812V9.34644Z" fill="#96D4C8"/>
<path opacity="0.5" d="M48.3505 9.34509H47.9581C47.7565 9.34503 47.5629 9.42692 47.4187 9.57321C47.2745 9.71951 47.1911 9.91858 47.1865 10.1279V14.4171C47.1867 14.5256 47.2078 14.6329 47.2487 14.7328C47.2896 14.8327 47.3494 14.923 47.4246 14.9985H47.5613C48.0014 14.9966 48.4385 15.074 48.8532 15.2273H56.1193C55.4757 13.5955 54.4088 12.1811 53.0374 11.141C51.6659 10.101 50.0435 9.47614 48.3505 9.33594V9.34509Z" fill="#96D4C8"/>
<path d="M26.8306 9.27231C25.0039 9.29714 23.2255 9.88457 21.7208 10.9601C20.2161 12.0356 19.0529 13.5508 18.3787 15.3136C17.7045 17.0763 17.5496 19.0072 17.9338 20.8614C18.3179 22.7156 19.2237 24.4097 20.5363 25.7288C21.849 27.0479 23.5094 27.9326 25.3069 28.2707C27.1045 28.6089 28.9582 28.3852 30.6332 27.6281C32.3082 26.871 33.7289 25.6147 34.7152 24.0182C35.7016 22.4217 36.2091 20.5572 36.1734 18.6609C36.1259 16.1323 35.1168 13.7258 33.3664 11.9668C31.616 10.2078 29.2664 9.23918 26.8306 9.27231ZM26.9452 22.6342C26.4597 22.6376 25.9786 22.5392 25.5305 22.3451C25.0825 22.151 24.6768 21.865 24.3376 21.5044C23.9985 21.1437 23.7329 20.7157 23.5567 20.246C23.3804 19.7763 23.2973 19.2746 23.3121 18.7708C23.3493 17.7829 23.7407 16.8449 24.4096 16.1412C25.0785 15.4374 25.9766 15.0186 26.9276 14.9668C27.4246 14.9638 27.9173 15.0632 28.377 15.2593C28.8368 15.4553 29.2545 15.7442 29.606 16.1091C29.9574 16.474 30.2356 16.9077 30.4245 17.3849C30.6133 17.8623 30.7091 18.3738 30.7062 18.8898C30.7035 19.3944 30.6033 19.8933 30.4114 20.3569C30.2195 20.8205 29.9399 21.2393 29.5891 21.5886C29.2383 21.9378 28.8235 22.2103 28.3694 22.39C27.9152 22.5696 27.4309 22.6527 26.9452 22.6342Z" fill="#2A4486"/>
<path d="M16.6053 26.7158C13.8541 24.3767 11.1292 22.0284 8.33389 19.7397C7.45207 19.0347 7.54907 18.6273 8.33389 17.9864C10.221 16.43 12.0772 14.8279 13.9422 13.2349C15.1988 12.1684 16.4422 11.0834 17.69 10.0306L17.5709 9.65979C15.9307 9.65979 14.295 9.71473 12.6592 9.65979C12.118 9.62596 11.5759 9.7076 11.0663 9.89972C10.5567 10.0918 10.0905 10.3903 9.69629 10.7767C8.81447 11.587 6.91855 13.0655 6.91855 13.0655L5.70605 14.0543V23.6672C6.52615 24.3813 8.50584 26.0796 9.52433 26.8395C10.0578 27.2377 10.5032 27.9106 11.1822 27.929C13.2897 27.9976 15.4016 27.9564 17.6503 27.9564C17.4263 27.4637 17.0714 27.0475 16.6274 26.7571L16.6053 26.7158Z" fill="#96D4C8"/>
<path opacity="0.5" d="M5.64886 14.0484C5.58386 14.0867 5.52447 14.1344 5.47249 14.1903L0.225678 18.4474C0.13016 18.5716 0.078125 18.7257 0.078125 18.8846C0.078125 19.0434 0.13016 19.1976 0.225678 19.3218L5.30936 23.2905C5.30936 23.2905 5.45486 23.4278 5.67972 23.6247V14.0117L5.64446 14.0392L5.64886 14.0484Z" fill="#96D4C8"/>
<path d="M5.68043 10.1775V9.63735C5.68043 7.99857 5.68043 6.36436 5.65839 4.72559C5.65839 0.148003 5.65838 0.180049 1.21402 0.376885C0.402744 0.413505 0.155832 0.688159 0.164651 1.50297C0.204332 7.15171 0.217566 12.8005 0.239611 18.4401C0.143332 18.5638 0.0908203 18.7181 0.0908203 18.8772C0.0908203 19.0363 0.143332 19.1906 0.239611 19.3143C0.239611 21.855 0.239618 24.3955 0.177891 26.9361C0.177891 27.8104 0.543841 28.0255 1.28898 27.9981C2.3692 27.966 3.45384 27.9523 4.53848 27.9981C5.36298 28.0393 5.74217 27.7737 5.68926 26.8445C5.68926 26.7896 5.68926 26.7301 5.68926 26.6705V14.009V10.1775H5.68043Z" fill="#2A4486"/>
<path opacity="0.5" d="M5.64886 14.0484C5.58386 14.0867 5.52447 14.1344 5.47249 14.1903L0.225678 18.4474C0.13016 18.5716 0.078125 18.7257 0.078125 18.8846C0.078125 19.0434 0.13016 19.1976 0.225678 19.3218L5.30936 23.2905C5.30936 23.2905 5.45486 23.4278 5.67972 23.6247V14.0117L5.64446 14.0392L5.64886 14.0484Z" fill="#96D4C8"/>
<path d="M53.7123 35.4788C53.2714 34.3024 52.7335 33.1488 52.3587 31.9449C52.1383 31.24 51.8737 31.1851 51.2388 31.3728C49.997 31.7309 48.7178 31.9308 47.4294 31.9679C46.1482 31.9309 44.8763 31.7311 43.642 31.3728C43.0071 31.1896 42.7601 31.2445 42.5221 31.9449C42.1473 33.1488 41.6402 34.307 41.1641 35.4788C40.9039 36.1472 41.0803 36.5409 41.7725 36.7697C43.6003 37.4132 45.5217 37.7229 47.4514 37.6852C49.3797 37.7236 51.2998 37.4138 53.1259 36.7697C53.8225 36.5409 54.0077 36.1472 53.7344 35.4788H53.7123Z" fill="#2A4486"/>
</g>
<defs>
<clipPath id="clip0_3009_688">
<rect width="126" height="37.3758" fill="white" transform="translate(0 0.3125)"/>
</clipPath>
</defs>
</svg>
