<svg width="50" height="50" viewBox="0 0 50 50" fill="none" xmlns="http://www.w3.org/2000/svg">
<path d="M44.998 27.305V25.6501C45.458 25.6501 45.8314 25.2797 45.8314 24.8227V19.8582C45.8314 19.4011 45.458 19.0307 44.998 19.0307H40.498L40.3366 18.4092C39.9681 16.9877 39.3958 15.626 38.6364 14.3665L38.3031 13.8128L41.498 10.635C41.8197 10.315 41.8197 9.79656 41.498 9.47658L37.959 5.95745C37.6322 5.64813 37.1188 5.64813 36.792 5.95745L33.5911 9.13559L33.0338 8.80462C31.7633 8.05025 30.3906 7.48204 28.957 7.11584L28.3314 6.95423V2.48227C28.3314 2.02525 27.9583 1.65485 27.498 1.65485H22.498C22.0378 1.65485 21.6647 2.02525 21.6647 2.48227V6.95035L21.0387 7.11099C19.6071 7.47654 18.2357 8.04475 16.9665 8.79784L16.4089 9.12913L13.209 5.95745C12.8818 5.64555 12.3652 5.64555 12.0381 5.95745L8.49805 9.47141C8.34245 9.62558 8.25488 9.83502 8.25488 10.0532C8.25488 10.2717 8.34245 10.4808 8.49805 10.635L11.6989 13.8128L11.3656 14.3665C10.6064 15.626 10.0339 16.9877 9.66569 18.4092L9.50228 19.0307H4.99805C4.53776 19.0307 4.16471 19.4011 4.16471 19.8582V24.8227C4.16471 25.2797 4.53776 25.6501 4.99805 25.6501V27.305C3.61751 27.305 2.49805 26.1934 2.49805 24.8227V19.8582C2.49805 18.4874 3.61751 17.3759 4.99805 17.3759H8.22233C8.56608 16.2317 9.03092 15.127 9.60905 14.0804L7.31738 11.805C6.84863 11.3405 6.58529 10.7103 6.58529 10.0532C6.58529 9.3961 6.84863 8.76584 7.31738 8.30171L10.859 4.78516C11.8457 3.84752 13.4014 3.84752 14.388 4.78516L16.679 7.0596C17.7331 6.4859 18.846 6.02532 19.998 5.68433V2.48227C19.998 1.11153 21.1175 0 22.498 0H27.498C28.8786 0 29.998 1.11153 29.998 2.48227V5.68433C31.1504 6.02532 32.2627 6.48687 33.317 7.06057L35.6087 4.78516C36.5957 3.84752 38.151 3.84752 39.138 4.78516L42.679 8.30074C43.1474 8.76519 43.4105 9.39481 43.4105 10.0522C43.4105 10.7096 43.1474 11.3399 42.679 11.804L40.3874 14.0794C40.9652 15.1267 41.4297 16.2317 41.7738 17.3759H44.998C46.3786 17.3759 47.498 18.4874 47.498 19.8582V24.8227C47.498 26.1934 46.3786 27.305 44.998 27.305Z" fill="#3259BB"/>
<path d="M36.6644 22.3398H34.9977C34.9977 16.8562 30.5205 12.4107 24.9977 12.4107C19.4749 12.4107 14.9977 16.8562 14.9977 22.3398H13.3311C13.3311 15.9421 18.5544 10.7559 24.9977 10.7559C31.4408 10.7559 36.6644 15.9421 36.6644 22.3398Z" fill="#3259BB"/>
<path d="M25.0034 28.9613C22.242 28.9613 20.0034 26.7383 20.0034 23.9968C20.0034 21.255 22.242 19.0322 25.0034 19.0322C27.7651 19.0322 30.0034 21.255 30.0034 23.9968C30.0005 26.7376 27.7638 28.9584 25.0034 28.9613ZM25.0034 20.6871C23.1626 20.6871 21.6701 22.169 21.6701 23.9968C21.6701 25.8245 23.1626 27.3065 25.0034 27.3065C26.8442 27.3065 28.3368 25.8245 28.3368 23.9968C28.3368 22.169 26.8442 20.6871 25.0034 20.6871Z" fill="#3259BB"/>
<path d="M39.1641 32.2679C36.4027 32.2679 34.1641 30.0449 34.1641 27.3034C34.1641 24.5616 36.4027 22.3389 39.1641 22.3389C41.9255 22.3389 44.1641 24.5616 44.1641 27.3034C44.1611 30.0442 41.9245 32.265 39.1641 32.2679ZM39.1641 23.9937C37.3232 23.9937 35.8307 25.4756 35.8307 27.3034C35.8307 29.1312 37.3232 30.6131 39.1641 30.6131C41.0049 30.6131 42.4974 29.1312 42.4974 27.3034C42.4974 25.4756 41.0049 23.9937 39.1641 23.9937Z" fill="#3259BB"/>
<path d="M10.8308 32.2679C8.06942 32.2679 5.83081 30.0449 5.83081 27.3034C5.83081 24.5616 8.06942 22.3389 10.8308 22.3389C13.5925 22.3389 15.8308 24.5616 15.8308 27.3034C15.8279 30.0442 13.5912 32.265 10.8308 32.2679ZM10.8308 23.9937C8.98999 23.9937 7.49748 25.4756 7.49748 27.3034C7.49748 29.1312 8.98999 30.6131 10.8308 30.6131C12.6716 30.6131 14.1641 29.1312 14.1641 27.3034C14.1641 25.4756 12.6716 23.9937 10.8308 23.9937Z" fill="#3259BB"/>
<path d="M46.7214 34.3913C45.4795 33.5438 44.0072 33.0917 42.5 33.0959H35.8333C35.4281 33.0994 35.0234 33.136 34.624 33.2048C34.0908 32.3767 33.3971 31.6624 32.5833 31.1023C32.4613 31.0108 32.333 30.9278 32.1992 30.8544C31.0335 30.1533 29.696 29.7842 28.3333 29.7862H21.6667C19.1182 29.7771 16.7435 31.0684 15.3783 33.2048C14.9779 33.136 14.5726 33.0994 14.1667 33.0959H7.5C5.99414 33.0917 4.52214 33.5432 3.28092 34.3897C1.22949 35.7756 0.00130208 38.0792 0 40.5427V43.8524C0.00292967 46.1116 1.32682 48.1634 3.39355 49.1097C4.15658 49.4666 4.99023 49.6492 5.83333 49.6443H14.1667V47.9895H6.66667V38.8878H5V47.9064C4.6862 47.844 4.38151 47.7432 4.09245 47.6071C2.61621 46.9313 1.66992 45.4662 1.66667 43.8524V40.5427C1.66862 38.6254 2.62533 36.8332 4.22168 35.7549C5.1862 35.0975 6.32975 34.7475 7.5 34.7507H14.1667C14.3135 34.7507 14.4551 34.7662 14.5983 34.7759C14.3164 35.5652 14.1702 36.3959 14.1667 37.233V45.5072C14.1696 47.791 16.0335 49.6414 18.3333 49.6443H20.8333V36.4056H19.1667V47.9895H18.3333C16.9528 47.9895 15.8333 46.878 15.8333 45.5072V37.233C15.8333 34.0338 18.4453 31.441 21.6667 31.441H28.3333C29.4056 31.4417 30.4564 31.7364 31.3708 32.2924C31.4554 32.3383 31.5368 32.39 31.6139 32.4469C32.3949 32.9779 33.0358 33.6874 33.4824 34.5154C33.9313 35.3519 34.1667 36.285 34.1667 37.233V45.5072C34.1667 46.878 33.0472 47.9895 31.6667 47.9895H30.8333V36.4056H29.1667V49.6443H31.6667C33.9668 49.6414 35.8304 47.791 35.8333 45.5072V37.233C35.8294 36.3959 35.6839 35.5655 35.4023 34.7759C35.5459 34.7662 35.6875 34.7507 35.8333 34.7507H42.5C43.6709 34.7475 44.8154 35.0985 45.7806 35.7566C47.3757 36.8354 48.3311 38.6264 48.3333 40.5427V43.8524C48.3304 45.472 47.377 46.9413 45.8936 47.6136C45.6087 47.7474 45.3086 47.8457 45 47.9064V38.8878H43.3333V47.9895H35.8333V49.6443H44.1667C45.0049 49.6495 45.8337 49.4692 46.5924 49.1162C48.666 48.1727 49.9967 46.1171 50 43.8524V40.5427C49.9987 38.0801 48.7715 35.7776 46.7214 34.3913Z" fill="#3259BB"/>
<path d="M21.6677 47.9893H28.3344V49.6441H21.6677V47.9893Z" fill="#3259BB"/>
</svg>
