<svg width="50" height="46" viewBox="0 0 50 46" fill="none" xmlns="http://www.w3.org/2000/svg">
<path d="M8.33333 19.1667H19.1667C19.6275 19.1667 20 18.7933 20 18.3333C20 17.8733 19.6275 17.5 19.1667 17.5H8.33333C7.8725 17.5 7.5 17.8733 7.5 18.3333C7.5 18.7933 7.8725 19.1667 8.33333 19.1667Z" fill="#3259BB"/>
<path d="M30 22.5H8.33333C7.8725 22.5 7.5 22.8733 7.5 23.3333C7.5 23.7933 7.8725 24.1667 8.33333 24.1667H30C30.4608 24.1667 30.8333 23.7933 30.8333 23.3333C30.8333 22.8733 30.4608 22.5 30 22.5Z" fill="#3259BB"/>
<path d="M30 27.5H8.33333C7.8725 27.5 7.5 27.8733 7.5 28.3333C7.5 28.7933 7.8725 29.1667 8.33333 29.1667H30C30.4608 29.1667 30.8333 28.7933 30.8333 28.3333C30.8333 27.8733 30.4608 27.5 30 27.5Z" fill="#3259BB"/>
<path d="M45.06 0.0583335L16.6083 0C13.8833 0 11.6667 2.21667 11.6667 4.94167V9.21167L4.94167 9.22583C2.21667 9.22583 0 11.4425 0 14.1675V31.785C0 34.51 2.21667 36.7258 4.94167 36.7258H10V45.0592C10 45.4033 10.2117 45.7125 10.5333 45.8367C10.6308 45.8742 10.7325 45.8925 10.8333 45.8925C11.0633 45.8925 11.2892 45.7967 11.45 45.62L19.5367 36.7242L33.3917 36.6675C36.1167 36.6675 38.3333 34.4508 38.3333 31.7267V31.6325L42.7167 36.4542C42.8775 36.6308 43.1033 36.7267 43.3333 36.7267C43.4342 36.7267 43.5358 36.7083 43.6333 36.6708C43.955 36.5467 44.1667 36.2375 44.1667 35.8933V27.56H45.0583C47.7833 27.56 50 25.3433 50 22.6192V5C50 2.27583 47.7842 0.0591668 45.06 0.0583335ZM36.6667 31.7258C36.6667 33.5317 35.1975 35 33.3883 35L19.1633 35.0583C18.93 35.0592 18.7067 35.1583 18.55 35.3308L11.6667 42.9033V35.8917C11.6667 35.4317 11.2942 35.0583 10.8333 35.0583H4.94167C3.13583 35.0583 1.66667 33.5892 1.66667 31.7842V14.1667C1.66667 12.3608 3.13583 10.8917 4.94333 10.8917L12.5 10.8758C12.5008 10.8758 12.5008 10.8758 12.5017 10.8758L33.3917 10.8325C35.1975 10.8325 36.6667 12.3017 36.6667 14.1075V29.475V31.7258ZM48.3333 22.6175C48.3333 24.4233 46.8642 25.8917 45.0583 25.8917H43.3333C42.8725 25.8917 42.5 26.265 42.5 26.725V33.7367L38.3333 29.1533V14.1083C38.3333 11.3833 36.1167 9.16667 33.39 9.16667L13.3333 9.2075V4.94083C13.3333 3.135 14.8025 1.66583 16.6067 1.66583L45.0575 1.72417C45.0583 1.72417 45.0583 1.72417 45.0592 1.72417C46.865 1.72417 48.3342 3.19333 48.3342 4.99917L48.3333 22.6175Z" fill="#3259BB"/>
</svg>
