<svg width="52" height="67" viewBox="0 0 52 67" fill="none" xmlns="http://www.w3.org/2000/svg">
<path fill-rule="evenodd" clip-rule="evenodd" d="M38.5465 24.6167H46.2307C46.5642 24.6165 46.884 24.4867 47.12 24.2559C47.3561 24.025 47.4893 23.7119 47.4904 23.3851V15.8507C47.4893 15.5239 47.3561 15.2108 47.12 14.9799C46.884 14.7491 46.5642 14.6194 46.2307 14.6191H38.5465C38.213 14.6194 37.8933 14.7491 37.6572 14.9799C37.4211 15.2108 37.288 15.5239 37.2869 15.8507V23.3846C37.288 23.7114 37.4211 24.0245 37.6572 24.2554C37.8933 24.4862 38.213 24.6159 38.5465 24.6162V24.6167ZM20.955 4.66893C20.9549 4.54828 20.9791 4.42879 21.0262 4.31734C21.0734 4.2059 21.1426 4.10469 21.2298 4.01956C21.317 3.93442 21.4205 3.86703 21.5344 3.82127C21.6483 3.77551 21.7703 3.75228 21.8934 3.75292C22.0781 3.75367 22.2584 3.80803 22.4115 3.90913C22.5647 4.01024 22.6839 4.15356 22.754 4.32101C22.8242 4.48845 22.8421 4.67251 22.8056 4.84995C22.7691 5.02739 22.6798 5.19025 22.549 5.31798C22.4181 5.44571 22.2516 5.53258 22.0704 5.56761C21.8893 5.60265 21.7015 5.58429 21.531 5.51485C21.3605 5.44541 21.2147 5.328 21.1122 5.17745C21.0097 5.02689 20.955 4.84994 20.955 4.66893ZM12.4142 4.66893C12.4146 4.42651 12.5129 4.19412 12.6876 4.02249C12.8623 3.85086 13.0991 3.75395 13.3464 3.75292H19.0213C19.2692 3.75292 19.5069 3.84942 19.6821 4.02121C19.8574 4.193 19.9559 4.42599 19.9559 4.66893C19.9559 4.91187 19.8574 5.14487 19.6821 5.31665C19.5069 5.48844 19.2692 5.58495 19.0213 5.58495H13.3464C13.0991 5.58395 12.8622 5.48704 12.6876 5.31541C12.5129 5.14378 12.4146 4.91136 12.4142 4.66893ZM3.43894 1.83203C3.23307 1.83179 3.02917 1.87133 2.8389 1.94839C2.64863 2.02545 2.47572 2.13852 2.33007 2.28113C2.18441 2.42374 2.06887 2.5931 1.99004 2.77951C1.91121 2.96592 1.87065 3.16574 1.87067 3.36754V47.5735H33.3694V3.36754C33.3698 2.96095 33.2055 2.57084 32.9127 2.28292C32.6198 1.995 32.2223 1.83283 31.8074 1.83203H3.43894ZM48.5611 12.0311C48.9765 12.0316 49.3748 12.1935 49.6688 12.4813C49.9627 12.769 50.1284 13.1592 50.1295 13.5665V63.6325C50.1284 64.0397 49.9628 64.4299 49.6688 64.7177C49.3749 65.0055 48.9765 65.1674 48.5611 65.168H20.1926C19.7771 65.1674 19.3789 65.0055 19.0849 64.7177C18.791 64.43 18.6254 64.0398 18.6243 63.6326V56.8007H31.8074C32.7178 56.7987 33.5902 56.4432 34.2337 55.812C34.8771 55.1807 35.239 54.3252 35.2401 53.4329V12.0311H48.5611ZM3.43894 56.8007C2.52762 56.8 1.65376 56.4451 1.00907 55.8137C0.364375 55.1824 0.00148458 54.3262 0 53.4329V3.36754C0.00151995 2.4743 0.36443 1.61812 1.00912 0.986818C1.65382 0.355511 2.52765 0.000622502 3.43894 0L31.8074 0C32.7177 0.00197301 33.5901 0.357499 34.2334 0.988697C34.8768 1.6199 35.2387 2.4753 35.2398 3.36754V10.1993H48.5611C49.4723 10.1999 50.3461 10.5548 50.9907 11.186C51.6354 11.8172 51.9984 12.6733 52 13.5665V63.6325C51.9985 64.5257 51.6356 65.3819 50.9909 66.0132C50.3462 66.6445 49.4724 66.9994 48.5611 67H20.1926C19.2813 66.9993 18.4074 66.6444 17.7627 66.0131C17.118 65.3818 16.7551 64.5256 16.7536 63.6323V56.8007H3.43894ZM42.1686 21.1885C42.1681 21.3691 42.1131 21.5456 42.0104 21.6956C41.9077 21.8455 41.7619 21.9623 41.5915 22.0311C41.4211 22.1 41.2338 22.1177 41.0531 22.0822C40.8724 22.0467 40.7065 21.9595 40.5763 21.8316C40.4462 21.7037 40.3576 21.5409 40.3218 21.3637C40.286 21.1865 40.3046 21.0029 40.3753 20.8361C40.4459 20.6692 40.5654 20.5266 40.7186 20.4263C40.8719 20.326 41.052 20.2725 41.2363 20.2725C41.3589 20.2725 41.4803 20.2963 41.5936 20.3423C41.7068 20.3884 41.8096 20.4559 41.8962 20.541C41.9828 20.6261 42.0514 20.7271 42.0982 20.8382C42.1449 20.9493 42.1688 21.0683 42.1686 21.1885ZM43.5417 18.7022C43.7264 18.7029 43.9066 18.7573 44.0598 18.8584C44.2129 18.9596 44.3321 19.1029 44.4022 19.2703C44.4723 19.4378 44.4903 19.6218 44.4538 19.7993C44.4173 19.9767 44.3279 20.1396 44.1971 20.2673C44.0662 20.395 43.8997 20.4818 43.7185 20.5169C43.5374 20.5519 43.3497 20.5335 43.1791 20.4641C43.0086 20.3946 42.8629 20.2772 42.7604 20.1267C42.6579 19.9761 42.6032 19.7992 42.6032 19.6182C42.6028 19.4975 42.6269 19.3779 42.674 19.2664C42.7211 19.1548 42.7903 19.0535 42.8776 18.9684C42.9648 18.8832 43.0685 18.8158 43.1825 18.7701C43.2964 18.7244 43.4185 18.7013 43.5417 18.7022ZM40.3042 18.0479C40.3047 17.8672 40.3597 17.6908 40.4624 17.5408C40.5651 17.3908 40.7109 17.274 40.8813 17.2052C41.0517 17.1364 41.2391 17.1186 41.4198 17.1541C41.6005 17.1897 41.7664 17.2769 41.8965 17.4048C42.0267 17.5327 42.1152 17.6955 42.151 17.8727C42.1868 18.0499 42.1682 18.2335 42.0975 18.4004C42.0269 18.5672 41.9073 18.7098 41.7541 18.8101C41.6008 18.9104 41.4206 18.9639 41.2363 18.9639C41.1137 18.9639 40.9923 18.9401 40.8791 18.8941C40.7659 18.848 40.663 18.7805 40.5764 18.6954C40.4898 18.6103 40.4212 18.5093 40.3745 18.3982C40.3278 18.2871 40.3039 18.168 40.3042 18.0479ZM15.6133 52.1867C15.6134 52.5758 15.7311 52.9561 15.9517 53.2795C16.1723 53.6029 16.4858 53.8549 16.8525 54.0037C17.2193 54.1524 17.6228 54.1911 18.012 54.115C18.4013 54.0388 18.7587 53.8512 19.0391 53.5759C19.3195 53.3006 19.5103 52.9499 19.5873 52.5682C19.6643 52.1866 19.6241 51.7911 19.4717 51.4319C19.3194 51.0727 19.0617 50.7658 18.7314 50.5502C18.401 50.3345 18.0128 50.2197 17.6159 50.2204C17.0847 50.2219 16.5756 50.4296 16.2003 50.7981C15.825 51.1667 15.6139 51.666 15.6133 52.1867ZM17.6159 52.3212C17.6522 52.3212 17.6871 52.3071 17.7128 52.2819C17.7385 52.2567 17.7529 52.2226 17.7529 52.187C17.7529 52.1514 17.7385 52.1172 17.7128 52.092C17.6871 52.0669 17.6522 52.0527 17.6159 52.0527C17.5806 52.0542 17.5473 52.0691 17.5229 52.0941C17.4985 52.1191 17.4849 52.1524 17.4849 52.187C17.4849 52.2216 17.4985 52.2549 17.5229 52.2799C17.5473 52.3049 17.5806 52.3197 17.6159 52.3212Z" fill="#667CF0"/>
</svg>
