<svg width="42" height="66" viewBox="0 0 42 66" fill="none" xmlns="http://www.w3.org/2000/svg">
<path d="M41.6182 20.5526C41.6182 17.3757 39.8171 14.6129 37.1834 13.2272C37.1835 13.2221 37.1842 13.2171 37.1842 13.2118V4.17397C37.1842 1.87238 35.3118 0 33.0102 0H4.17397C1.87251 0 0 1.87238 0 4.17397V11.8507C0 12.3827 0.431267 12.814 0.963224 12.814C1.49518 12.814 1.92645 12.3827 1.92645 11.8507V4.17397C1.92645 2.93475 2.93475 1.92645 4.17397 1.92645H10.3824L10.9206 4.26207C11.3599 6.16771 13.0324 7.4985 14.988 7.4985H22.196C24.1516 7.4985 25.8242 6.16758 26.2634 4.26207L26.8018 1.92645H33.0102C34.2495 1.92645 35.2577 2.93475 35.2577 4.17397V12.5051C34.6433 12.3591 34.0036 12.2794 33.3451 12.2794C28.7832 12.2794 25.0719 15.9907 25.0719 20.5525C25.0719 21.2305 25.1557 21.8889 25.3102 22.5199H7.84013C5.96351 22.5199 4.43674 24.0467 4.43674 25.9233V38.5294C4.43674 40.4061 5.96351 41.9328 7.84013 41.9328H17.2719C17.8038 41.9328 18.2351 41.5016 18.2351 40.9696C18.2351 40.4377 17.8038 40.0064 17.2719 40.0064H7.84013C7.02575 40.0064 6.36318 39.3438 6.36318 38.5294V25.9233C6.36318 25.8877 6.36601 25.8528 6.36858 25.8177L16.4972 33.6857C17.1139 34.1649 17.8529 34.4043 18.592 34.4043C19.3311 34.4043 20.0704 34.1648 20.6871 33.6857L28.7459 27.4255C29.3813 27.8521 30.0788 28.1921 30.8216 28.4306C30.8216 28.4349 30.821 28.4389 30.821 28.4431V38.5296C30.821 39.344 30.1584 40.0065 29.344 40.0065H21.1248C20.5927 40.0065 20.1616 40.4378 20.1616 40.9697C20.1616 41.5017 20.5927 41.933 21.1248 41.933H29.344C31.2206 41.933 32.7474 40.4062 32.7474 38.5296V28.8018C32.9451 28.816 33.144 28.8258 33.3453 28.8258C34.0036 28.8258 34.6434 28.7462 35.2578 28.6002V61.5821C35.2578 62.8214 34.2497 63.8296 33.0103 63.8296H30.6548L30.1164 61.494C29.6772 59.5883 28.0046 58.2574 26.049 58.2574H11.1351C9.17952 58.2574 7.50698 59.5883 7.06775 61.494L6.5295 63.8296H4.17397C2.93475 63.8296 1.92645 62.8214 1.92645 61.5821V15.7036C1.92645 15.1717 1.49518 14.7404 0.963224 14.7404C0.431267 14.7404 0 15.1717 0 15.7036V61.5821C0 63.8837 1.87251 65.7561 4.17397 65.7561H33.0102C35.3118 65.7561 37.1842 63.8837 37.1842 61.5821V27.8777C39.8175 26.492 41.6182 23.7293 41.6182 20.5526ZM24.3861 3.82939C24.1497 4.85554 23.249 5.57218 22.196 5.57218H14.988C13.935 5.57218 13.0345 4.85555 12.7979 3.82952L12.3593 1.92645H24.8247L24.3861 3.82939ZM8.50642 63.8296L8.94501 61.9267C9.18145 60.9005 10.0821 60.1839 11.1351 60.1839H26.0489C27.1019 60.1839 28.0026 60.9005 28.239 61.9267L28.6776 63.8296H8.50642ZM19.5053 32.1646C18.9674 32.5821 18.2165 32.5823 17.679 32.1646L7.74933 24.4511C7.77951 24.4493 7.80943 24.4465 7.84013 24.4465H26.0483C26.3787 25.0633 26.7849 25.6336 27.2546 26.1447L19.5053 32.1646ZM33.3451 26.8994C29.8455 26.8994 26.9984 24.0522 26.9984 20.5526C26.9984 17.053 29.8455 14.206 33.3451 14.206C36.8447 14.206 39.6917 17.0532 39.6917 20.5526C39.6917 24.0522 36.8447 26.8994 33.3451 26.8994Z" fill="#9E79F7"/>
<path d="M33.7536 18.208H32.2705C31.7384 18.208 31.3073 18.6393 31.3073 19.1712C31.3073 19.7032 31.7384 20.1345 32.2705 20.1345H32.7904V22.5524C32.7904 23.0844 33.2215 23.5156 33.7536 23.5156C34.2857 23.5156 34.7168 23.0844 34.7168 22.5524V19.1712C34.7168 18.6393 34.2857 18.208 33.7536 18.208Z" fill="#9E79F7"/>
</svg>
