<svg width="50" height="50" viewBox="0 0 50 50" fill="none" xmlns="http://www.w3.org/2000/svg">
<path d="M8.48051 30.0352C7.18785 30.532 6.06625 31.3917 5.2506 32.5109C4.43496 33.6301 3.96 34.961 3.88285 36.3438L3.12504 48.3891C3.11842 48.4957 3.13372 48.6025 3.17001 48.7029C3.20629 48.8034 3.26279 48.8953 3.336 48.9731C3.40922 49.0508 3.4976 49.1128 3.59569 49.155C3.69378 49.1973 3.79949 49.219 3.90629 49.2188H33.5938C33.7006 49.219 33.8063 49.1973 33.9044 49.155C34.0025 49.1128 34.0909 49.0508 34.1641 48.9731C34.2373 48.8953 34.2938 48.8034 34.3301 48.7029C34.3664 48.6025 34.3817 48.4957 34.375 48.3891L33.6172 36.3484C33.541 34.9649 33.0664 33.6329 32.2507 32.5128C31.435 31.3928 30.3129 30.5323 29.0196 30.0352L22.6563 27.5883V25.9648C23.489 25.2964 24.1373 24.4265 24.5399 23.4375H25C25.8288 23.4375 26.6237 23.1083 27.2097 22.5222C27.7958 21.9362 28.125 21.1413 28.125 20.3125C28.1225 19.5583 27.8447 18.831 27.3438 18.2672V13.4078C27.3445 12.5895 27.1063 11.7888 26.6585 11.1039C26.2106 10.4191 25.5726 9.87982 24.8227 9.55235C24.4952 8.80243 23.956 8.16441 23.2711 7.71658C22.5862 7.26874 21.7855 7.03055 20.9672 7.03125H17.1875C15.3234 7.03332 13.5361 7.77477 12.218 9.09294C10.8998 10.4111 10.1584 12.1983 10.1563 14.0625V18.2672C9.65539 18.831 9.37758 19.5583 9.37504 20.3125C9.37504 21.1413 9.70428 21.9362 10.2903 22.5222C10.8764 23.1083 11.6712 23.4375 12.5 23.4375H12.9602C13.3627 24.4265 14.0111 25.2964 14.8438 25.9648V27.5883L8.48051 30.0352ZM15.3719 29.0625L17.6563 31.9094L15.1821 33.8883L13.5305 29.7656L15.3719 29.0625ZM18.75 33.032L20.75 34.632L18.75 35.132L16.75 34.632L18.75 33.032ZM17.9688 36.5477V47.4367L10.1563 45.4836V34.5945L17.9688 36.5477ZM19.5313 36.5477L27.3438 34.5945V45.4836L19.5313 47.4367V36.5477ZM5.44223 36.4359C5.50248 35.3529 5.87428 34.3104 6.51293 33.4336C7.15157 32.5569 8.02987 31.8832 9.04223 31.4938L12.0719 30.3289L13.4641 33.8109L9.5641 32.8359C9.44896 32.8072 9.32879 32.8051 9.21271 32.8298C9.09663 32.8544 8.98769 32.9052 8.89416 32.9783C8.80064 33.0513 8.72498 33.1447 8.67293 33.2513C8.62089 33.358 8.59382 33.4751 8.59379 33.5938V46.0938C8.59384 46.268 8.65215 46.4373 8.75945 46.5746C8.86676 46.7119 9.01689 46.8094 9.18598 46.8516L12.4055 47.6563H4.73754L5.44223 36.4359ZM31.9571 35.6438C32.0098 35.9069 32.0435 36.1734 32.0578 36.4414L32.7625 47.6563H25.0946L28.3141 46.8516C28.4832 46.8094 28.6333 46.7119 28.7406 46.5746C28.8479 46.4373 28.9062 46.268 28.9063 46.0938V33.5938C28.9062 33.475 28.8791 33.3579 28.827 33.2512C28.7749 33.1445 28.6991 33.0511 28.6055 32.9781C28.5124 32.9045 28.4035 32.8533 28.2874 32.8287C28.1712 32.804 28.051 32.8065 27.936 32.8359L24.036 33.8109L25.4282 30.3289L28.4578 31.4938C29.345 31.8323 30.1315 32.3908 30.7436 33.1167C31.3557 33.8426 31.7732 34.7122 31.9571 35.6438ZM23.9696 29.7656L22.3219 33.8859L19.8477 31.907L22.1282 29.0625L23.9696 29.7656ZM25 21.875H24.9461C24.9803 21.616 24.9983 21.355 25 21.0938V18.75C25.4144 18.75 25.8119 18.9146 26.1049 19.2076C26.3979 19.5007 26.5625 19.8981 26.5625 20.3125C26.5625 20.7269 26.3979 21.1243 26.1049 21.4174C25.8119 21.7104 25.4144 21.875 25 21.875ZM17.1875 8.59375H20.9672C21.5228 8.59339 22.0643 8.76798 22.515 9.09276C22.9657 9.41754 23.3027 9.87602 23.4782 10.4031C23.5162 10.5183 23.5807 10.6229 23.6664 10.7086C23.7522 10.7944 23.8568 10.8588 23.9719 10.8969C24.499 11.0723 24.9575 11.4093 25.2823 11.86C25.6071 12.3107 25.7817 12.8523 25.7813 13.4078V17.2984C25.5267 17.2281 25.2641 17.1908 25 17.1875V15.625C25 15.0034 24.7531 14.4073 24.3136 13.9677C23.874 13.5282 23.2779 13.2813 22.6563 13.2813C22.4491 13.2813 22.2504 13.3636 22.1039 13.5102C21.1879 14.4313 20.0982 15.1615 18.898 15.6587C17.6978 16.1558 16.4108 16.4099 15.1118 16.4063H13.2813C13.0741 16.4063 12.8754 16.4886 12.7289 16.6351C12.5823 16.7816 12.5 16.9803 12.5 17.1875C12.2359 17.1908 11.9734 17.2281 11.7188 17.2984V14.0625C11.7206 12.6127 12.2974 11.2228 13.3226 10.1976C14.3478 9.17238 15.7377 8.59561 17.1875 8.59375ZM12.5 21.875C12.0856 21.875 11.6882 21.7104 11.3952 21.4174C11.1022 21.1243 10.9375 20.7269 10.9375 20.3125C10.9375 19.8981 11.1022 19.5007 11.3952 19.2076C11.6882 18.9146 12.0856 18.75 12.5 18.75V21.0938C12.5018 21.355 12.5198 21.616 12.5539 21.875H12.5ZM14.0625 21.0938V17.9688H15.1118C18.0131 17.9768 20.8078 16.8759 22.9243 14.8914C23.0747 14.9463 23.2046 15.0462 23.2964 15.1774C23.3882 15.3086 23.4375 15.4649 23.4375 15.625V21.0938C23.4375 22.337 22.9437 23.5292 22.0646 24.4083C21.1855 25.2874 19.9932 25.7813 18.75 25.7813C17.5068 25.7813 16.3146 25.2874 15.4355 24.4083C14.5564 23.5292 14.0625 22.337 14.0625 21.0938ZM18.75 27.3438C19.5537 27.3435 20.3497 27.1873 21.0938 26.8836V27.85L18.75 30.7813L16.4063 27.8516V26.8836C17.1504 27.1873 17.9464 27.3435 18.75 27.3438Z" fill="#3259BB"/>
<path d="M35.9386 19.5313V14.8438H37.5011C37.637 14.8437 37.7706 14.8082 37.8886 14.7407C38.0066 14.6732 38.105 14.576 38.174 14.4588C38.2429 14.3417 38.2801 14.2085 38.2818 14.0726C38.2836 13.9366 38.2498 13.8026 38.1839 13.6837L34.2776 6.65241C34.204 6.53824 34.1029 6.44436 33.9836 6.37935C33.8643 6.31434 33.7307 6.28027 33.5948 6.28027C33.459 6.28027 33.3253 6.31434 33.206 6.37935C33.0867 6.44436 32.9856 6.53824 32.912 6.65241L29.0058 13.6837C28.9398 13.8026 28.906 13.9366 28.9078 14.0726C28.9095 14.2085 28.9467 14.3417 29.0157 14.4588C29.0846 14.576 29.183 14.6732 29.301 14.7407C29.419 14.8082 29.5526 14.8437 29.6886 14.8438H31.2511V19.5313C31.2511 19.7385 31.3334 19.9372 31.4799 20.0837C31.6264 20.2303 31.8251 20.3126 32.0323 20.3126H35.1573C35.3645 20.3126 35.5632 20.2303 35.7097 20.0837C35.8563 19.9372 35.9386 19.7385 35.9386 19.5313ZM34.3761 14.0626V18.7501H32.8136V14.0626C32.8136 13.8554 32.7313 13.6566 32.5847 13.5101C32.4382 13.3636 32.2395 13.2813 32.0323 13.2813H31.0167L33.5948 8.64069L36.1729 13.2813H35.1573C34.9501 13.2813 34.7514 13.3636 34.6049 13.5101C34.4584 13.6566 34.3761 13.8554 34.3761 14.0626Z" fill="#3259BB"/>
<path d="M40.6261 14.8438H43.7511C43.9583 14.8438 44.157 14.7615 44.3035 14.615C44.45 14.4685 44.5323 14.2698 44.5323 14.0626V9.37506H46.0948C46.2308 9.37499 46.3644 9.33944 46.4824 9.27192C46.6004 9.2044 46.6987 9.10726 46.7677 8.99008C46.8367 8.87291 46.8739 8.73976 46.8756 8.60381C46.8773 8.46786 46.8436 8.33381 46.7776 8.21491L42.8714 1.18366C42.7977 1.06949 42.6967 0.975607 42.5774 0.910597C42.4581 0.845587 42.3244 0.811523 42.1886 0.811523C42.0527 0.811523 41.919 0.845587 41.7997 0.910597C41.6805 0.975607 41.5794 1.06949 41.5058 1.18366L37.5995 8.21491C37.5336 8.33381 37.4998 8.46786 37.5015 8.60381C37.5033 8.73976 37.5405 8.87291 37.6094 8.99008C37.6784 9.10726 37.7767 9.2044 37.8947 9.27192C38.0128 9.33944 38.1464 9.37499 38.2823 9.37506H39.8448V14.0626C39.8448 14.2698 39.9271 14.4685 40.0736 14.615C40.2201 14.7615 40.4189 14.8438 40.6261 14.8438ZM39.6104 7.81256L42.1886 3.17194L44.7667 7.81256H43.7511C43.5439 7.81256 43.3451 7.89487 43.1986 8.04139C43.0521 8.1879 42.9698 8.38661 42.9698 8.59381V13.2813H41.4073V8.59381C41.4073 8.38661 41.325 8.1879 41.1785 8.04139C41.032 7.89487 40.8333 7.81256 40.6261 7.81256H39.6104Z" fill="#3259BB"/>
</svg>
