<svg width="50" height="51" viewBox="0 0 50 51" fill="none" xmlns="http://www.w3.org/2000/svg">
<path d="M49.9483 4.33306C49.8892 4.1617 49.783 4.01051 49.6417 3.89691C49.5005 3.78331 49.33 3.71193 49.15 3.69098L46.6259 3.40348L46.394 0.872137C46.3772 0.692001 46.3098 0.520302 46.1995 0.376897C46.0892 0.233491 45.9405 0.124238 45.7707 0.061771C45.601 -0.00288401 45.4162 -0.0171473 45.2386 0.0206964C45.061 0.05854 44.8981 0.14688 44.7695 0.275096L40.2745 4.67001C40.1726 4.76959 40.0941 4.89065 40.0449 5.02436C39.9957 5.15808 39.9769 5.3011 39.9899 5.443L40.2666 8.45638L36.9715 11.7619C32.7116 7.86727 27.0959 5.79593 21.3273 5.99162C15.5588 6.1873 10.0963 8.63444 6.11015 12.8088C2.12399 16.9831 -0.0687641 22.5526 0.00164462 28.324C0.0720534 34.0954 2.40003 39.6097 6.48683 43.6856C10.5736 47.7614 16.0942 50.0746 21.8658 50.1295C27.6374 50.1844 33.201 47.9766 37.3646 43.9793C41.5281 39.9819 43.9606 34.5129 44.1408 28.7438C44.321 22.9748 42.2345 17.3646 38.3285 13.1152L41.7492 9.68439L44.4369 9.99316C44.5784 10.0058 44.7211 9.98847 44.8554 9.94223C44.9898 9.896 45.1129 9.82191 45.2166 9.72483L49.7116 5.32819C49.8411 5.20169 49.9321 5.04104 49.974 4.8649C50.0159 4.68875 50.007 4.50434 49.9483 4.33306ZM42.2349 28.0255C42.2398 32.645 40.6571 37.1259 37.7519 40.7175C34.8467 44.3091 30.7954 46.7932 26.2769 47.7536C21.7583 48.714 17.047 48.0925 12.9321 45.993C8.81725 43.8936 5.54886 40.4438 3.67451 36.2216C1.80015 31.9995 1.43371 27.2615 2.63655 22.8013C3.8394 18.3412 6.53847 14.4299 10.2816 11.7227C14.0247 9.01548 18.5844 7.67686 23.1969 7.93108C27.8094 8.18529 32.1945 10.0169 35.6174 13.1191L32.909 15.8367C29.733 13.0214 25.5851 11.5544 21.3453 11.7471C17.1056 11.9398 13.1078 13.777 10.2004 16.8688C7.29294 19.9606 5.70473 24.0637 5.77278 28.3073C5.84083 32.5508 7.5598 36.6009 10.5649 39.5979C13.5699 42.5949 17.6246 44.303 21.8683 44.3596C26.1121 44.4163 30.2109 42.8171 33.2949 39.9013C36.3789 36.9856 38.2053 32.9829 38.3866 28.7426C38.5679 24.5024 37.0898 20.3584 34.2659 17.1901L36.9753 14.4722C40.3621 18.1731 42.2387 23.0089 42.2349 28.0255ZM21.4333 28.705C21.6135 28.8841 21.8575 28.9844 22.1116 28.9837C22.3658 28.9829 22.6092 28.8813 22.7884 28.7012L24.7022 26.7828C24.9953 27.3944 25.0628 28.0899 24.8927 28.7464C24.7226 29.4029 24.3259 29.9782 23.7726 30.3705C23.2194 30.7628 22.5453 30.9469 21.8695 30.8903C21.1936 30.8337 20.5596 30.5399 20.0794 30.061C19.5992 29.5821 19.3037 28.9488 19.2453 28.2731C19.1868 27.5975 19.3691 26.9229 19.7599 26.3686C20.1508 25.8143 20.725 25.4161 21.381 25.2442C22.0371 25.0723 22.7328 25.1379 23.3452 25.4294L21.4314 27.3499C21.252 27.5299 21.1514 27.7737 21.1518 28.0278C21.1521 28.282 21.2534 28.5255 21.4333 28.705ZM24.7453 24.0256C23.7529 23.3715 22.553 23.1091 21.3782 23.2894C20.2034 23.4697 19.1374 24.0798 18.3868 25.0014C17.6363 25.9231 17.2548 27.0906 17.3162 28.2776C17.3776 29.4646 17.8776 30.5865 18.7193 31.4257C19.5609 32.265 20.6842 32.7618 21.8714 32.8199C23.0585 32.878 24.225 32.4931 25.1445 31.74C26.064 30.9869 26.6711 29.9191 26.8481 28.7438C27.0251 27.5685 26.7593 26.3693 26.1023 25.3788L28.8374 22.6349C30.2172 24.3568 30.8854 26.5417 30.7046 28.7408C30.5239 30.9399 29.5079 32.9864 27.8654 34.4598C26.2229 35.9333 24.0786 36.7218 21.8728 36.6636C19.667 36.6054 17.5672 35.7047 16.0048 34.1467C14.4423 32.5886 13.5357 30.4914 13.4713 28.2858C13.4068 26.0802 14.1893 23.9336 15.6581 22.287C17.1269 20.6403 19.1704 19.6186 21.3691 19.4316C23.5677 19.2446 25.7544 19.9066 27.4802 21.2816L24.7453 24.0256ZM22.1099 17.4839C19.7088 17.4818 17.3789 18.2987 15.5048 19.7996C13.6307 21.3006 12.3246 23.3958 11.8021 25.7393C11.2797 28.0828 11.5721 30.5344 12.6311 32.6893C13.6902 34.8441 15.4525 36.5734 17.627 37.5914C19.8016 38.6094 22.2583 38.8553 24.5915 38.2885C26.9247 37.7218 28.9948 36.3762 30.4599 34.474C31.9251 32.5718 32.6977 30.2268 32.6501 27.8262C32.6025 25.4256 31.7376 23.1131 30.1982 21.2704L32.9114 18.5488C35.3729 21.3544 36.6476 25.0068 36.4663 28.7347C36.285 32.4627 34.662 35.9742 31.94 38.5278C29.218 41.0814 25.61 42.4771 21.8782 42.4201C18.1463 42.3632 14.5826 40.8581 11.9397 38.2227C9.29684 35.5873 7.78167 32.0279 7.71419 28.2962C7.64671 24.5645 9.03221 20.9526 11.5781 18.2234C14.1239 15.4941 17.6309 13.8612 21.3583 13.6694C25.0857 13.4776 28.7417 14.7419 31.5543 17.1954L28.8403 19.9171C26.951 18.3428 24.5691 17.4817 22.1099 17.4839ZM44.2021 8.03721L42.131 7.79954L41.9393 5.72188L44.669 3.05273L44.7879 4.35606C44.8086 4.57529 44.9038 4.78077 45.0578 4.93818C45.2118 5.09558 45.4152 5.19537 45.6339 5.22086L46.9311 5.36863L44.2021 8.03721Z" fill="#3259BB"/>
</svg>
