<svg width="55" height="50" viewBox="0 0 55 50" fill="none" xmlns="http://www.w3.org/2000/svg">
<path d="M48.1041 28.6008C48.3822 28.9023 48.3631 29.3726 48.0605 29.6507C47.759 29.9289 47.2888 29.9098 47.0106 29.6072L45.2803 27.7282C46.0478 32.156 45.0117 36.6911 42.3153 40.4469C39.2049 44.7792 34.3673 47.3365 29.0425 47.466C29.0361 47.466 29.0297 47.466 29.0244 47.466C28.6221 47.466 28.2919 47.1454 28.2813 46.741C28.2718 46.3301 28.5956 45.9894 29.0064 45.9798C33.861 45.8631 38.2718 43.5297 41.1083 39.5807C43.6423 36.0509 44.5701 31.7718 43.7495 27.6221L42.8355 30.5446C42.7357 30.863 42.4427 31.0658 42.1263 31.0658C42.0531 31.0658 41.9777 31.0552 41.9045 31.0318C41.5128 30.9098 41.2941 30.4926 41.4172 30.1008L43.0775 24.7877C43.1571 24.534 43.3652 24.3418 43.6242 24.2845C43.8833 24.2272 44.1539 24.311 44.3334 24.5064L48.1041 28.6008ZM43.914 5.46601C43.9788 5.48299 44.0425 5.49148 44.1062 5.49148C44.4342 5.49148 44.7346 5.2728 44.8238 4.94053L45.8949 0.935218C46.0011 0.538191 45.7654 0.131609 45.3694 0.0254516C44.9735 -0.0807056 44.5658 0.154963 44.4597 0.55093L43.3886 4.55624C43.2813 4.95221 43.517 5.35985 43.914 5.46601ZM52.2357 11.9172L48.2304 10.8461C47.8344 10.7399 47.4268 10.9756 47.3206 11.3715C47.2145 11.7686 47.4501 12.1751 47.8472 12.2813L51.8525 13.3524C51.9172 13.3694 51.9809 13.3779 52.0446 13.3779C52.3726 13.3779 52.6731 13.1592 52.7622 12.8269C52.8684 12.431 52.6327 12.0233 52.2357 11.9172ZM54.2527 3.24201C54.0478 2.88639 53.5934 2.76431 53.2378 2.97025L46.9247 6.61463C46.569 6.81951 46.4469 7.27493 46.6529 7.62949C46.7909 7.86834 47.0404 8.00104 47.2973 8.00104C47.4236 8.00104 47.551 7.96919 47.6678 7.90125L53.9809 4.25688C54.3355 4.05199 54.4576 3.59764 54.2527 3.24201ZM34.0467 3.54562C33.4533 2.51908 33.8068 1.19955 34.8355 0.60507C35.3323 0.317384 35.9119 0.242012 36.4692 0.390632C37.0266 0.540314 37.4915 0.897002 37.7782 1.39488L40.7888 6.61038C41.5117 6.35348 42.2951 6.31739 43.0563 6.5159C44.069 6.78023 44.9151 7.42461 45.4385 8.32907C46.3864 9.97132 45.9926 12.0244 44.6019 13.2155L47.6147 18.4342C47.9013 18.9299 47.9777 19.5095 47.8291 20.0669C47.6805 20.6231 47.3249 21.0881 46.8291 21.3747C46.499 21.5658 46.1306 21.6635 45.758 21.6635C45.5712 21.6635 45.3822 21.6391 45.1964 21.5892C44.6402 21.4405 44.1752 21.0849 43.8886 20.5892L43.2304 19.448L34.3015 20.3875L38.3843 27.4575C38.483 27.6284 38.5096 27.8312 38.4586 28.0212C38.4077 28.2112 38.2835 28.3737 38.1125 28.4724L34.6975 30.4437C34.5807 30.5117 34.4522 30.5435 34.327 30.5435C34.0701 30.5435 33.8206 30.4098 33.6826 30.172L29.4002 22.7558L29.1189 22.9182C28.4342 23.3142 27.672 23.517 26.8981 23.517C26.5074 23.517 26.1147 23.466 25.7272 23.362C24.5701 23.052 23.6051 22.3132 23.0096 21.2802C22.414 20.2495 22.2569 19.0446 22.5669 17.8885C22.8769 16.7314 23.6157 15.7664 24.6486 15.1709L28.8514 12.7463L34.7091 4.68363L34.0467 3.54562ZM28.3716 21.6327L29.2665 21.1157C29.276 21.1093 29.2856 21.103 29.2951 21.0966C29.3047 21.0913 29.3153 21.086 29.3259 21.0807L32.0669 19.4968C31.569 18.6348 31.0722 17.7739 30.5743 16.9119C30.0765 16.0499 29.5796 15.1879 29.0818 14.3269L25.3864 16.4596C24.6985 16.8567 24.206 17.501 23.9979 18.2749C23.7909 19.0478 23.8949 19.8524 24.2919 20.5393C24.689 21.2272 25.3333 21.7208 26.1072 21.9278C26.8811 22.1348 27.6858 22.0297 28.3716 21.6327ZM36.7229 27.5594L32.8111 20.7855L30.6837 22.0148L34.5945 28.7877L36.7229 27.5594ZM42.4151 18.0403L35.5181 6.09446L30.2399 13.3588C30.7813 14.2951 31.3217 15.2325 31.8631 16.1698C32.4045 17.1072 32.9448 18.0435 33.4862 18.9809L42.4151 18.0403ZM41.5531 7.93522L43.8376 11.8928C44.5276 11.1433 44.6869 10.001 44.1508 9.07323C43.828 8.51484 43.3047 8.11675 42.6794 7.95433C42.3047 7.85667 41.9204 7.85242 41.5531 7.93522ZM35.3334 2.80252L36.2145 4.32906C36.2272 4.34817 36.2389 4.36834 36.2495 4.38957L44.2431 18.2357C44.2654 18.2675 44.2856 18.3025 44.3026 18.3386L45.1741 19.8482C45.2622 20 45.4066 20.1104 45.5796 20.156C45.7527 20.2027 45.9321 20.1794 46.0849 20.0913C46.2378 20.0032 46.3472 19.8588 46.3939 19.6858C46.4406 19.5127 46.4172 19.3333 46.3291 19.1805L39.8578 7.97025C39.8535 7.96389 39.8493 7.95858 39.845 7.95115C39.8387 7.94053 39.8334 7.92991 39.828 7.9193L36.4915 2.13904C36.4024 1.98511 36.259 1.87471 36.086 1.828C35.914 1.78235 35.7346 1.80465 35.5818 1.89276C35.2601 2.07641 35.1497 2.48511 35.3334 2.80252ZM25.7983 49.2569C25.7983 49.6677 25.466 50 25.0552 50H0.7431C0.332272 50 0 49.6677 0 49.2569C0 43.2813 4.08493 38.242 9.60829 36.7834C8.17623 35.7558 7.23992 34.0775 7.23992 32.1836C7.23992 29.0637 9.7792 26.5265 12.9002 26.5265C16.0191 26.5265 18.5573 29.0647 18.5573 32.1836C18.5573 34.0775 17.6221 35.7558 16.1911 36.7834C21.7144 38.242 25.7983 43.2813 25.7983 49.2569ZM12.9002 36.3567C15.1996 36.3567 17.0711 34.4841 17.0711 32.1826C17.0711 29.8832 15.2006 28.0117 12.9002 28.0117C10.5987 28.0117 8.72612 29.8822 8.72612 32.1826C8.72718 34.4841 10.5987 36.3567 12.9002 36.3567ZM24.2877 48.5138C23.9034 42.5648 18.9427 37.8429 12.9013 37.8429C6.85775 37.8429 1.89597 42.5648 1.51168 48.5138H24.2877ZM11.173 23.9352C11.31 24.1486 11.5467 24.2771 11.7983 24.2771C11.81 24.2771 11.8217 24.2771 11.8333 24.276C12.0987 24.2633 12.3376 24.1104 12.4586 23.8747L14.8567 19.2314C15.0446 18.8662 14.9023 18.4182 14.5372 18.2303C14.172 18.0414 13.724 18.1847 13.5361 18.5499L12.3004 20.9416C12.2686 16.9586 13.8949 13.1539 16.8652 10.3535C20.0998 7.30253 24.4745 5.93416 28.8694 6.59976C29.276 6.66134 29.6539 6.38214 29.7155 5.97556C29.7771 5.57004 29.4979 5.19106 29.0913 5.12949C24.2431 4.39594 19.414 5.9055 15.845 9.27174C12.6529 12.2824 10.8694 16.3482 10.8164 20.6242L9.6051 18.7335C9.38323 18.3875 8.92357 18.2877 8.57856 18.5085C8.23355 18.7303 8.1327 19.19 8.35351 19.535L11.173 23.9352ZM35.2378 39.6454C35.6486 39.6454 35.9809 39.3132 35.9809 38.9023V37.3461H37.534C37.9448 37.3461 38.2771 37.0138 38.2771 36.603C38.2771 36.1921 37.9448 35.8599 37.534 35.8599H35.9809V34.3068C35.9809 33.896 35.6486 33.5637 35.2378 33.5637C34.827 33.5637 34.4947 33.896 34.4947 34.3068V35.8599H32.9395C32.5287 35.8599 32.1964 36.1921 32.1964 36.603C32.1964 37.0138 32.5287 37.3461 32.9395 37.3461H34.4947V38.9023C34.4947 39.3132 34.827 39.6454 35.2378 39.6454ZM29.4448 33.621C29.8556 33.621 30.1879 33.2887 30.1879 32.8779C30.1879 32.4671 29.8556 32.1348 29.4448 32.1348H27.4374V30.1306C27.4374 29.7197 27.1051 29.3875 26.6943 29.3875C26.2835 29.3875 25.9512 29.7197 25.9512 30.1306V32.1348H23.9469C23.5361 32.1348 23.2038 32.4671 23.2038 32.8779C23.2038 33.2887 23.5361 33.621 23.9469 33.621H25.9512V35.6253C25.9512 36.0361 26.2835 36.3684 26.6943 36.3684C27.1051 36.3684 27.4374 36.0361 27.4374 35.6253V33.621H29.4448Z" fill="#3259BB"/>
</svg>
