<svg width="45" height="45" viewBox="0 0 45 45" fill="none" xmlns="http://www.w3.org/2000/svg">
<path d="M30.6228 25.1938L28.7783 23.8127C28.8668 23.3892 28.9131 22.9501 28.9131 22.5001C28.9131 22.05 28.8668 21.611 28.7783 21.1867L30.6228 19.8056C30.9521 19.5596 31.0448 19.1059 30.8393 18.7493L29.9178 17.1531C29.7123 16.7966 29.2725 16.6508 28.8946 16.8128L26.7746 17.7203C26.1227 17.1369 25.3515 16.6854 24.5022 16.4062L24.2282 14.1183C24.1796 13.7102 23.8326 13.4023 23.4216 13.4023H21.5779C21.1668 13.4023 20.8207 13.7103 20.7713 14.1183L20.4979 16.4062C19.6479 16.6854 18.8767 17.1369 18.2248 17.7203L16.1056 16.8128C15.727 16.6508 15.288 16.7967 15.0825 17.1531L14.1602 18.7493C13.9548 19.1059 14.0475 19.5596 14.3768 19.8056L16.222 21.1867C16.1336 21.611 16.0872 22.05 16.0872 22.5001C16.0872 22.9502 16.1336 23.3892 16.222 23.8127L14.377 25.1938C14.0477 25.4405 13.9549 25.8943 14.1604 26.2501L15.0826 27.8471C15.2881 28.2028 15.7272 28.3494 16.1058 28.1873L18.225 27.2798C18.8769 27.8632 19.6482 28.3148 20.4981 28.594L20.7714 30.8819C20.8208 31.29 21.167 31.5971 21.578 31.5971H23.4218C23.8328 31.5971 24.1798 31.29 24.2284 30.8819L24.5024 28.594C25.3517 28.3148 26.1229 27.8632 26.7748 27.2798L28.8948 28.1873C29.2727 28.3494 29.7124 28.2028 29.918 27.8471L30.8395 26.2501C31.0448 25.8943 30.952 25.4405 30.6228 25.1938ZM22.5003 25.842C20.6544 25.842 19.1583 24.3452 19.1583 22.5C19.1583 20.6541 20.6543 19.158 22.5003 19.158C24.3454 19.158 25.8415 20.654 25.8415 22.5C25.8415 24.3452 24.3454 25.842 22.5003 25.842Z" stroke="#3259BB" stroke-miterlimit="10" stroke-linecap="round" stroke-linejoin="round"/>
<path d="M1.04709 32.6939C1.21061 32.0631 1.78336 31.5977 2.46514 31.5977H16.553C17.362 31.5977 18.0178 32.2535 18.0178 33.0624V35.9262C18.0178 36.7352 17.362 37.391 16.553 37.391H2.46514C1.65618 37.391 1.00037 36.7352 1.00037 35.9262V35.7134" stroke="#3259BB" stroke-miterlimit="10" stroke-linecap="round" stroke-linejoin="round"/>
<path d="M16.5528 43.1838H2.46486C1.65581 43.1838 1 42.528 1 41.7189V38.8555C1 38.0464 1.65581 37.3906 2.46486 37.3906H16.5528C17.3618 37.3906 18.0176 38.0464 18.0176 38.8555V41.7189C18.0176 42.528 17.3617 43.1838 16.5528 43.1838Z" stroke="#3259BB" stroke-miterlimit="10" stroke-linecap="round" stroke-linejoin="round"/>
<path d="M4.23603 35.7165C4.91092 35.7165 5.45803 35.1693 5.45803 34.4945C5.45803 33.8196 4.91092 33.2725 4.23603 33.2725C3.56114 33.2725 3.01404 33.8196 3.01404 34.4945C3.01404 35.1693 3.56114 35.7165 4.23603 35.7165Z" stroke="#3259BB" stroke-miterlimit="10" stroke-linecap="round" stroke-linejoin="round"/>
<path d="M8.28682 35.7165C8.96171 35.7165 9.50881 35.1693 9.50881 34.4945C9.50881 33.8196 8.96171 33.2725 8.28682 33.2725C7.61193 33.2725 7.06482 33.8196 7.06482 34.4945C7.06482 35.1693 7.61193 35.7165 8.28682 35.7165Z" stroke="#3259BB" stroke-miterlimit="10" stroke-linecap="round" stroke-linejoin="round"/>
<path d="M4.23603 41.5094C4.91092 41.5094 5.45803 40.9623 5.45803 40.2874C5.45803 39.6125 4.91092 39.0654 4.23603 39.0654C3.56114 39.0654 3.01404 39.6125 3.01404 40.2874C3.01404 40.9623 3.56114 41.5094 4.23603 41.5094Z" stroke="#3259BB" stroke-miterlimit="10" stroke-linecap="round" stroke-linejoin="round"/>
<path d="M8.28682 41.5094C8.96171 41.5094 9.50881 40.9623 9.50881 40.2874C9.50881 39.6125 8.96171 39.0654 8.28682 39.0654C7.61193 39.0654 7.06482 39.6125 7.06482 40.2874C7.06482 40.9623 7.61193 41.5094 8.28682 41.5094Z" stroke="#3259BB" stroke-miterlimit="10" stroke-linecap="round" stroke-linejoin="round"/>
<path d="M11.9755 34.4941H15.8083" stroke="#3259BB" stroke-miterlimit="10" stroke-linecap="round" stroke-linejoin="round"/>
<path d="M11.9755 40.2871H15.8083" stroke="#3259BB" stroke-miterlimit="10" stroke-linecap="round" stroke-linejoin="round"/>
<path d="M39.2945 1H42.3572C43.1662 1 43.822 1.65582 43.822 2.46477V5.32855C43.822 6.13751 43.1662 6.79332 42.3572 6.79332H28.2693C27.4604 6.79332 26.8046 6.13751 26.8046 5.32855V2.46477C26.8046 1.65582 27.4604 1 28.2693 1H36.2663" stroke="#3259BB" stroke-miterlimit="10" stroke-linecap="round" stroke-linejoin="round"/>
<path d="M42.3575 12.5862H28.2695C27.4605 12.5862 26.8047 11.9304 26.8047 11.1213V8.25782C26.8047 7.44878 27.4605 6.79297 28.2695 6.79297H42.3575C43.1665 6.79297 43.8223 7.44878 43.8223 8.25782V11.1213C43.8223 11.9304 43.1665 12.5862 42.3575 12.5862Z" stroke="#3259BB" stroke-miterlimit="10" stroke-linecap="round" stroke-linejoin="round"/>
<path d="M30.0407 5.1188C30.7156 5.1188 31.2627 4.57169 31.2627 3.8968C31.2627 3.22191 30.7156 2.6748 30.0407 2.6748C29.3658 2.6748 28.8187 3.22191 28.8187 3.8968C28.8187 4.57169 29.3658 5.1188 30.0407 5.1188Z" stroke="#3259BB" stroke-miterlimit="10" stroke-linecap="round" stroke-linejoin="round"/>
<path d="M34.0915 5.1188C34.7664 5.1188 35.3135 4.57169 35.3135 3.8968C35.3135 3.22191 34.7664 2.6748 34.0915 2.6748C33.4166 2.6748 32.8695 3.22191 32.8695 3.8968C32.8695 4.57169 33.4166 5.1188 34.0915 5.1188Z" stroke="#3259BB" stroke-miterlimit="10" stroke-linecap="round" stroke-linejoin="round"/>
<path d="M30.0407 10.9118C30.7156 10.9118 31.2627 10.3647 31.2627 9.68977C31.2627 9.01488 30.7156 8.46777 30.0407 8.46777C29.3658 8.46777 28.8187 9.01488 28.8187 9.68977C28.8187 10.3647 29.3658 10.9118 30.0407 10.9118Z" stroke="#3259BB" stroke-miterlimit="10" stroke-linecap="round" stroke-linejoin="round"/>
<path d="M34.0915 10.9118C34.7664 10.9118 35.3135 10.3647 35.3135 9.68977C35.3135 9.01488 34.7664 8.46777 34.0915 8.46777C33.4166 8.46777 32.8695 9.01488 32.8695 9.68977C32.8695 10.3647 33.4166 10.9118 34.0915 10.9118Z" stroke="#3259BB" stroke-miterlimit="10" stroke-linecap="round" stroke-linejoin="round"/>
<path d="M37.7802 3.89648H41.6131" stroke="#3259BB" stroke-miterlimit="10" stroke-linecap="round" stroke-linejoin="round"/>
<path d="M37.7802 9.68945H41.6131" stroke="#3259BB" stroke-miterlimit="10" stroke-linecap="round" stroke-linejoin="round"/>
<path d="M27.3272 43.4764L28.6155 43.9566C29.1043 44.1383 29.6062 43.723 29.5196 43.2091L29.2843 41.8118C33.0453 40.4854 36.4065 38.0378 38.8265 34.8401C41.5336 31.2643 42.9647 26.9972 42.9647 22.4999C42.9647 21.6477 42.9119 20.792 42.8072 19.9571C42.7189 19.252 42.0761 18.7519 41.3701 18.8402C40.665 18.9284 40.1649 19.5721 40.2532 20.2773C40.344 21.0066 40.3907 21.7541 40.3907 22.4999C40.3907 26.4313 39.1405 30.162 36.7742 33.2871C34.748 35.964 31.9673 38.0413 28.8491 39.2301L28.6294 37.9288C28.5428 37.4149 27.932 37.1873 27.5306 37.5196L23.4036 40.931C23.0022 41.2624 23.1103 41.9052 23.5983 42.0869L24.5266 42.433" stroke="#3259BB" stroke-miterlimit="10" stroke-linecap="round" stroke-linejoin="round"/>
<path d="M21.4011 2.91287L16.3838 1.04355C15.8954 0.861598 15.3932 1.27663 15.4798 1.79055L15.7155 3.18852C11.9543 4.51425 8.59285 6.96247 6.173 10.1594C3.466 13.7357 2.03516 18.003 2.03516 22.4999C2.03516 23.3524 2.08819 24.2079 2.19271 25.0425C2.27421 25.6934 2.82853 26.1696 3.46808 26.1696C3.52138 26.1696 3.57536 26.1664 3.62961 26.1595C4.33483 26.0712 4.83499 25.4278 4.74666 24.7226C4.65529 23.9937 4.60909 23.2458 4.60909 22.4999C4.60909 18.5684 5.85955 14.8382 8.22532 11.7128C10.2518 9.03546 13.0323 6.95884 16.1508 5.7699L16.3701 7.07097C16.4567 7.58489 17.0673 7.81226 17.469 7.4802L21.5961 4.06902C21.9977 3.73705 21.8894 3.09473 21.4011 2.91287Z" stroke="#3259BB" stroke-miterlimit="10" stroke-linecap="round" stroke-linejoin="round"/>
</svg>
